{"glyphs":{"0":{"ha":708,"x_min":69,"x_max":639,"o":"m 354 986 q 472 963 419 986 q 562 882 525 939 q 619 728 599 825 q 639 486 639 632 q 619 244 639 340 q 562 90 599 147 q 472 10 525 33 q 354 -14 419 -14 q 236 10 289 -14 q 147 90 183 33 q 90 244 110 147 q 69 486 69 340 q 90 728 69 632 q 147 882 110 825 q 236 963 183 939 q 354 986 289 986 m 354 69 q 412 88 383 69 q 463 153 440 106 q 500 281 486 200 q 514 486 514 361 q 500 692 514 611 q 463 819 486 772 q 412 885 440 867 q 354 903 383 903 q 297 885 325 903 q 245 819 268 867 q 208 692 222 772 q 194 486 194 611 q 208 281 194 361 q 245 153 222 200 q 297 88 268 106 q 354 69 325 69 z "},"1":{"ha":389,"x_min":14,"x_max":292,"o":"m 292 972 l 292 0 l 167 0 l 167 875 l 14 875 l 14 944 q 103 964 46 956 q 222 972 160 972 l 292 972 z "},"2":{"ha":542,"x_min":14,"x_max":500,"o":"m 14 111 q 188 327 118 242 q 299 475 257 413 q 358 588 340 538 q 375 694 375 638 q 335 850 375 804 q 222 896 296 896 l 28 896 l 28 958 q 117 978 60 969 q 236 986 174 986 q 436 919 372 986 q 500 694 500 851 q 479 568 500 626 q 415 443 458 510 q 304 294 371 376 q 146 97 238 211 l 500 97 l 500 0 l 14 0 l 14 111 z "},"3":{"ha":576,"x_min":21,"x_max":521,"o":"m 243 986 q 493 729 493 986 q 462 599 493 650 q 368 517 431 549 l 368 511 q 439 476 410 500 q 486 418 468 451 q 513 345 504 385 q 521 264 521 306 q 453 52 521 118 q 229 -14 385 -14 q 110 -6 167 -14 q 21 14 53 3 l 21 76 l 201 76 q 351 120 306 76 q 396 264 396 164 q 351 413 396 368 q 201 458 306 458 l 104 458 l 104 556 l 188 556 q 325 598 282 556 q 368 729 368 640 q 328 854 368 813 q 215 896 289 896 l 35 896 l 35 958 q 124 978 67 969 q 243 986 181 986 z "},"4":{"ha":653,"x_min":42,"x_max":611,"o":"m 42 250 l 42 361 l 389 972 l 528 972 l 528 347 l 611 347 l 611 250 l 528 250 l 528 0 l 403 0 l 403 250 l 42 250 m 397 771 l 160 347 l 403 347 l 403 771 l 397 771 z "},"5":{"ha":618,"x_min":63,"x_max":563,"o":"m 208 569 l 271 569 q 494 501 426 569 q 563 278 563 433 q 547 144 563 200 q 495 53 531 89 q 404 2 460 18 q 271 -14 349 -14 q 151 -6 208 -14 q 63 14 94 3 l 63 76 l 243 76 q 392 122 347 76 q 438 278 438 168 q 392 433 438 388 q 243 479 347 479 l 83 479 l 83 972 l 535 972 l 535 882 l 208 882 l 208 569 z "},"6":{"ha":632,"x_min":69,"x_max":583,"o":"m 340 986 q 460 978 403 986 q 549 958 517 969 l 549 896 l 368 896 q 297 878 329 896 q 242 822 265 861 q 207 717 219 782 q 194 556 194 651 q 273 575 226 567 q 361 583 319 583 q 524 514 465 583 q 583 278 583 444 q 520 53 583 121 q 326 -14 457 -14 q 133 53 196 -14 q 69 278 69 121 l 69 583 q 88 769 69 693 q 140 894 106 846 q 224 964 174 942 q 340 986 275 986 m 194 500 l 194 278 q 204 181 194 221 q 232 117 214 142 q 274 81 250 92 q 326 69 297 69 q 379 81 356 69 q 421 117 403 92 q 449 181 439 142 q 458 278 458 221 q 416 451 458 403 q 285 500 374 500 l 194 500 z "},"7":{"ha":569,"x_min":28,"x_max":528,"o":"m 528 861 q 372 415 433 631 q 278 0 310 199 l 153 0 q 403 875 215 396 l 28 875 l 28 972 l 528 972 l 528 861 z "},"8":{"ha":667,"x_min":56,"x_max":611,"o":"m 333 986 q 590 743 590 986 q 577 656 590 694 q 543 588 564 617 q 496 539 522 558 q 444 510 469 519 l 444 504 q 505 468 475 490 q 558 414 535 446 q 597 341 582 382 q 611 250 611 300 q 546 50 611 114 q 333 -14 481 -14 q 121 50 186 -14 q 56 250 56 114 q 70 341 56 300 q 108 414 85 382 q 162 468 132 446 q 222 504 192 490 l 222 510 q 171 539 197 519 q 124 588 144 558 q 90 656 103 617 q 76 743 76 694 q 333 986 76 986 m 333 69 q 447 113 407 69 q 486 250 486 156 q 444 374 486 328 q 333 451 401 419 q 223 374 265 419 q 181 250 181 328 q 220 113 181 156 q 333 69 260 69 m 333 563 q 428 626 392 583 q 465 743 465 669 q 428 863 465 822 q 333 903 392 903 q 238 863 275 903 q 201 743 201 822 q 238 626 201 669 q 333 563 275 583 z "},"9":{"ha":632,"x_min":49,"x_max":563,"o":"m 292 -14 q 172 -6 229 -14 q 83 14 115 3 l 83 76 l 264 76 q 335 94 303 76 q 390 151 367 111 q 425 256 413 190 q 438 417 438 321 q 359 397 406 406 q 271 389 313 389 q 108 458 167 389 q 49 694 49 528 q 112 919 49 851 q 306 986 175 986 q 499 919 436 986 q 563 694 563 851 l 563 389 q 544 203 563 279 q 492 78 526 126 q 408 8 458 31 q 292 -14 357 -14 m 438 472 l 438 694 q 428 791 438 751 q 400 856 418 831 q 358 892 382 881 q 306 903 335 903 q 253 892 276 903 q 211 856 229 881 q 183 791 193 831 q 174 694 174 751 q 216 521 174 569 q 347 472 258 472 l 438 472 z "}," ":{"ha":347,"x_min":0,"x_max":0,"o":""},"!":{"ha":319,"x_min":83,"x_max":236,"o":"m 101 257 l 83 972 l 236 972 l 213 257 l 101 257 m 219 146 l 219 -7 l 94 -7 l 94 146 l 219 146 z "},"\"":{"ha":458,"x_min":56,"x_max":403,"o":"m 56 972 l 194 972 l 160 646 l 90 646 l 56 972 m 264 972 l 403 972 l 368 646 l 299 646 l 264 972 z "},"#":{"ha":792,"x_min":28,"x_max":764,"o":"m 563 278 l 521 0 l 396 0 l 438 278 l 285 278 l 243 0 l 118 0 l 160 278 l 28 278 l 28 375 l 174 375 l 208 597 l 69 597 l 69 694 l 229 694 l 271 972 l 396 972 l 354 694 l 507 694 l 549 972 l 674 972 l 632 694 l 764 694 l 764 597 l 611 597 l 576 375 l 722 375 l 722 278 l 563 278 m 292 375 l 458 375 l 493 597 l 326 597 l 292 375 z "},"$":{"ha":618,"x_min":49,"x_max":569,"o":"m 49 736 q 101 910 49 849 q 264 983 153 972 l 264 1097 l 347 1097 l 347 985 q 447 974 400 982 q 521 958 493 967 l 521 896 l 347 896 l 347 535 q 426 496 386 517 q 498 443 467 475 q 549 365 529 411 q 569 250 569 318 q 519 70 569 133 q 347 -8 468 7 l 347 -125 l 264 -125 l 264 -14 l 257 -14 q 138 -6 194 -14 q 49 14 81 3 l 49 76 l 264 76 l 264 443 q 186 483 225 461 q 117 538 147 504 q 67 618 86 571 q 49 736 49 665 m 444 250 q 417 343 444 308 q 347 401 389 378 l 347 92 q 422 149 400 111 q 444 250 444 188 m 174 736 q 199 640 174 675 q 264 579 224 604 l 264 883 q 174 736 174 853 z "},"%":{"ha":944,"x_min":42,"x_max":903,"o":"m 806 972 l 264 0 l 139 0 l 681 972 l 806 972 m 799 194 q 774 291 799 263 q 708 319 750 319 q 642 291 667 319 q 618 194 618 263 q 642 98 618 126 q 708 69 667 69 q 774 98 750 69 q 799 194 799 126 m 903 194 q 853 38 903 90 q 708 -14 803 -14 q 564 38 614 -14 q 514 194 514 90 q 564 351 514 299 q 708 403 614 403 q 853 351 803 403 q 903 194 903 299 m 326 778 q 302 874 326 846 q 236 903 278 903 q 170 874 194 903 q 146 778 146 846 q 170 681 146 710 q 236 653 194 653 q 302 681 278 653 q 326 778 326 710 m 431 778 q 381 622 431 674 q 236 569 331 569 q 92 622 142 569 q 42 778 42 674 q 92 934 42 882 q 236 986 142 986 q 381 934 331 986 q 431 778 431 882 z "},"&":{"ha":715,"x_min":49,"x_max":701,"o":"m 563 0 l 486 111 q 449 56 468 79 q 407 17 431 33 q 351 -6 383 1 q 271 -14 318 -14 q 108 50 167 -14 q 49 250 49 114 q 57 369 49 313 q 76 458 65 426 l 174 458 l 174 250 q 183 162 174 196 q 206 109 192 128 q 238 83 221 90 q 271 76 256 76 q 308 83 292 76 q 340 105 325 89 q 372 149 356 121 q 410 222 389 178 q 287 405 335 329 q 213 539 239 481 q 176 643 186 597 q 167 736 167 689 q 227 924 167 863 q 403 986 288 986 q 522 978 465 986 q 611 958 579 969 l 611 896 l 431 896 q 330 856 368 896 q 292 736 292 815 q 297 668 292 703 q 318 590 301 633 q 368 489 335 546 q 458 354 401 432 l 535 542 l 660 542 l 535 236 l 701 0 l 563 0 z "},"'":{"ha":250,"x_min":56,"x_max":194,"o":"m 56 972 l 194 972 l 160 646 l 90 646 l 56 972 z "},"(":{"ha":342,"x_min":69,"x_max":342,"o":"m 69 389 q 78 532 69 457 q 110 689 88 607 q 169 859 132 771 q 264 1042 207 947 l 342 1000 q 282 856 307 926 q 240 710 257 785 q 216 557 224 636 q 208 389 208 478 q 216 221 208 300 q 240 67 224 142 q 282 -78 257 -7 q 342 -222 307 -150 l 264 -264 q 169 -82 207 -171 q 110 89 132 7 q 78 246 88 171 q 69 389 69 321 z "},")":{"ha":342,"x_min":0,"x_max":272,"o":"m 272 389 q 263 246 272 321 q 232 89 254 171 q 172 -82 210 7 q 78 -264 135 -171 l 0 -222 q 60 -78 35 -150 q 101 67 85 -7 q 126 221 118 142 q 133 389 133 300 q 126 557 133 478 q 101 710 118 636 q 60 856 85 785 q 0 1000 35 926 l 78 1042 q 172 859 135 947 q 232 689 210 771 q 263 532 254 607 q 272 389 272 457 z "},"*":{"ha":597,"x_min":28,"x_max":569,"o":"m 299 632 l 201 451 l 111 500 l 208 681 l 28 715 l 50 813 l 243 771 l 243 972 l 354 972 l 354 771 l 547 813 l 569 715 l 389 681 l 486 500 l 396 451 l 299 632 z "},"+":{"ha":597,"x_min":42,"x_max":556,"o":"m 354 694 l 354 465 l 556 465 l 556 368 l 354 368 l 354 139 l 243 139 l 243 368 l 42 368 l 42 465 l 243 465 l 243 694 l 354 694 z "},",":{"ha":236,"x_min":56,"x_max":188,"o":"m 56 146 l 188 146 l 146 -160 l 56 -160 l 56 146 z "},"-":{"ha":500,"x_min":42,"x_max":458,"o":"m 42 465 l 458 465 l 458 368 l 42 368 l 42 465 z "},".":{"ha":236,"x_min":56,"x_max":181,"o":"m 181 146 l 181 -7 l 56 -7 l 56 146 l 181 146 z "},"/":{"ha":542,"x_min":0,"x_max":542,"o":"m 542 972 l 125 0 l 0 0 l 417 972 l 542 972 z "},":":{"ha":236,"x_min":56,"x_max":181,"o":"m 181 146 l 181 -7 l 56 -7 l 56 146 l 181 146 m 181 694 l 181 542 l 56 542 l 56 694 l 181 694 z "},";":{"ha":229,"x_min":56,"x_max":188,"o":"m 181 694 l 181 542 l 56 542 l 56 694 l 181 694 m 56 146 l 188 146 l 146 -160 l 56 -160 l 56 146 z "},"<":{"ha":556,"x_min":56,"x_max":500,"o":"m 181 346 l 500 146 l 500 14 l 56 292 l 56 410 l 500 688 l 500 556 l 181 356 l 181 346 z "},"=":{"ha":597,"x_min":42,"x_max":556,"o":"m 556 347 l 556 243 l 42 243 l 42 347 l 556 347 m 556 590 l 556 486 l 42 486 l 42 590 l 556 590 z "},">":{"ha":556,"x_min":56,"x_max":500,"o":"m 375 356 l 56 556 l 56 688 l 500 410 l 500 292 l 56 14 l 56 146 l 375 346 l 375 356 z "},"?":{"ha":514,"x_min":14,"x_max":472,"o":"m 146 257 q 160 363 146 318 q 198 442 175 407 q 247 508 221 478 q 295 569 272 538 q 333 637 318 600 q 347 722 347 674 q 308 853 347 811 q 194 896 268 896 l 14 896 l 14 958 q 103 978 46 969 q 222 986 160 986 q 410 922 349 986 q 472 722 472 858 q 456 620 472 664 q 417 542 440 576 q 365 477 393 507 q 313 415 336 447 q 273 344 289 382 q 257 257 257 307 l 146 257 m 264 146 l 264 -7 l 139 -7 l 139 146 l 264 146 z "},"@":{"ha":1153,"x_min":69,"x_max":1083,"o":"m 625 667 q 552 655 583 667 q 500 613 521 643 q 469 532 479 583 q 458 403 458 481 q 468 306 458 346 q 494 242 478 267 q 534 206 511 217 q 583 194 557 194 q 638 203 610 194 q 681 222 665 211 l 681 667 l 625 667 m 806 215 q 870 228 842 215 q 918 273 899 240 q 948 362 938 306 q 958 507 958 418 q 858 802 958 701 q 569 903 758 903 q 411 878 481 903 q 294 797 342 853 q 220 651 246 740 q 194 431 194 561 q 221 214 194 303 q 301 70 247 125 q 435 -10 354 15 q 625 -35 515 -35 l 806 -35 l 806 -97 q 717 -117 774 -108 q 597 -125 660 -125 q 203 12 336 -125 q 69 431 69 149 q 199 849 69 711 q 569 986 329 986 q 790 953 694 986 q 951 859 886 921 q 1050 708 1017 797 q 1083 507 1083 619 q 1065 327 1083 400 q 1001 209 1046 254 q 884 144 957 164 q 701 125 811 125 l 694 167 l 688 167 q 622 126 661 140 q 542 111 583 111 q 463 127 500 111 q 396 178 425 143 q 350 269 367 214 q 333 403 333 325 q 349 568 333 501 q 401 675 365 635 q 492 733 436 715 q 625 750 547 750 q 671 748 646 750 q 721 742 696 746 q 768 733 746 738 q 806 722 790 728 l 806 215 z "},"A":{"ha":708,"x_min":28,"x_max":681,"o":"m 215 250 l 153 0 l 28 0 l 264 972 l 444 972 l 681 0 l 556 0 l 493 250 l 215 250 m 357 833 l 351 833 l 236 347 l 472 347 l 357 833 z "},"B":{"ha":694,"x_min":97,"x_max":639,"o":"m 486 518 q 604 426 569 494 q 639 264 639 358 q 622 138 639 190 q 568 52 606 86 q 469 2 531 18 q 319 -14 408 -14 q 203 -8 257 -14 q 97 14 150 -1 l 97 958 q 203 980 150 974 q 319 986 257 986 q 532 923 467 986 q 597 729 597 860 q 573 613 597 667 q 486 524 549 558 l 486 518 m 222 465 l 222 76 l 319 76 q 469 120 424 76 q 514 264 514 164 q 469 419 514 374 q 319 465 424 465 l 222 465 m 306 556 q 472 729 472 556 q 306 896 472 896 l 222 896 l 222 556 l 306 556 z "},"C":{"ha":604,"x_min":69,"x_max":583,"o":"m 375 -14 q 245 10 301 -14 q 149 90 189 33 q 90 244 110 147 q 69 486 69 340 q 90 728 69 632 q 147 882 110 825 q 239 963 185 939 q 361 986 293 986 q 481 978 424 986 q 569 958 538 969 l 569 896 l 389 896 q 312 878 347 896 q 250 813 276 860 q 209 688 224 767 q 194 486 194 608 q 210 285 194 364 q 252 159 225 206 q 317 94 279 113 q 403 76 356 76 l 583 76 l 583 14 q 494 -6 551 3 q 375 -14 438 -14 z "},"D":{"ha":722,"x_min":97,"x_max":653,"o":"m 653 486 q 632 244 653 340 q 569 90 611 147 q 465 10 528 33 q 319 -14 403 -14 q 203 -8 257 -14 q 97 14 150 -1 l 97 958 q 203 980 150 974 q 319 986 257 986 q 465 963 403 986 q 569 882 528 939 q 632 728 611 825 q 653 486 653 632 m 528 486 q 513 688 528 608 q 470 813 497 767 q 405 878 443 860 q 319 896 367 896 l 222 896 l 222 76 l 319 76 q 405 94 367 76 q 470 159 443 113 q 513 285 497 206 q 528 486 528 364 z "},"E":{"ha":625,"x_min":97,"x_max":569,"o":"m 222 97 l 569 97 l 569 0 l 97 0 l 97 972 l 569 972 l 569 875 l 222 875 l 222 556 l 528 556 l 528 458 l 222 458 l 222 97 z "},"F":{"ha":597,"x_min":97,"x_max":569,"o":"m 222 0 l 97 0 l 97 972 l 569 972 l 569 875 l 222 875 l 222 535 l 514 535 l 514 438 l 222 438 l 222 0 z "},"G":{"ha":694,"x_min":69,"x_max":611,"o":"m 611 14 q 522 -6 579 3 q 403 -14 465 -14 q 257 10 319 -14 q 153 90 194 33 q 90 244 111 147 q 69 486 69 340 q 90 728 69 632 q 149 882 110 825 q 245 963 189 939 q 375 986 301 986 q 494 978 438 986 q 583 958 551 969 l 583 896 l 403 896 q 317 878 356 896 q 252 813 279 860 q 210 688 225 767 q 194 486 194 608 q 210 285 194 364 q 255 159 225 206 q 329 94 285 113 q 431 76 374 76 l 486 76 l 486 528 l 611 528 l 611 14 z "},"H":{"ha":736,"x_min":97,"x_max":639,"o":"m 639 972 l 639 0 l 514 0 l 514 444 l 222 444 l 222 0 l 97 0 l 97 972 l 222 972 l 222 542 l 514 542 l 514 972 l 639 972 z "},"I":{"ha":319,"x_min":97,"x_max":222,"o":"m 222 972 l 222 0 l 97 0 l 97 972 l 222 972 z "},"J":{"ha":486,"x_min":0,"x_max":403,"o":"m 125 76 q 190 88 161 76 q 238 129 218 100 q 267 208 257 158 q 278 333 278 258 l 278 972 l 403 972 l 403 333 q 387 168 403 235 q 337 61 371 101 q 250 3 303 21 q 125 -14 197 -14 q 60 -6 93 -14 q 0 14 26 3 l 0 76 l 125 76 z "},"K":{"ha":681,"x_min":97,"x_max":667,"o":"m 667 0 l 521 0 l 222 486 l 222 0 l 97 0 l 97 972 l 222 972 l 222 500 l 493 972 l 639 972 l 354 493 l 667 0 z "},"L":{"ha":583,"x_min":97,"x_max":569,"o":"m 222 97 l 569 97 l 569 0 l 97 0 l 97 972 l 222 972 l 222 97 z "},"M":{"ha":1028,"x_min":76,"x_max":951,"o":"m 451 125 l 250 722 l 243 722 l 201 0 l 76 0 l 132 972 l 285 972 l 511 306 l 517 306 l 743 972 l 896 972 l 951 0 l 826 0 l 785 722 l 778 722 l 576 125 l 451 125 z "},"N":{"ha":750,"x_min":97,"x_max":653,"o":"m 222 0 l 97 0 l 97 972 l 236 972 l 521 285 l 528 285 l 528 972 l 653 972 l 653 0 l 514 0 l 229 688 l 222 688 l 222 0 z "},"O":{"ha":736,"x_min":69,"x_max":667,"o":"m 368 986 q 494 963 439 986 q 588 882 549 939 q 647 728 626 825 q 667 486 667 632 q 647 244 667 340 q 588 90 626 147 q 494 10 549 33 q 368 -14 439 -14 q 242 10 297 -14 q 149 90 188 33 q 90 244 110 147 q 69 486 69 340 q 90 728 69 632 q 149 882 110 825 q 242 963 188 939 q 368 986 297 986 m 368 69 q 433 88 401 69 q 489 153 465 106 q 527 281 513 200 q 542 486 542 361 q 527 692 542 611 q 489 819 513 772 q 433 885 465 867 q 368 903 401 903 q 303 885 335 903 q 247 819 271 867 q 209 692 224 772 q 194 486 194 611 q 209 281 194 361 q 247 153 224 200 q 303 88 271 106 q 368 69 335 69 z "},"P":{"ha":681,"x_min":97,"x_max":625,"o":"m 319 382 q 401 394 367 382 q 457 435 435 406 q 490 514 479 464 q 500 639 500 564 q 490 764 500 714 q 457 843 479 814 q 401 884 435 872 q 319 896 367 896 l 222 896 l 222 382 l 319 382 m 222 0 l 97 0 l 97 958 q 203 980 150 974 q 319 986 257 986 q 461 969 403 986 q 556 911 519 951 q 608 804 592 871 q 625 639 625 738 q 609 469 625 538 q 560 360 593 401 q 478 302 528 319 q 361 285 429 285 q 289 289 329 285 q 222 299 249 293 l 222 0 z "},"Q":{"ha":750,"x_min":69,"x_max":736,"o":"m 368 986 q 494 963 439 986 q 588 882 549 939 q 647 728 626 825 q 667 486 667 632 q 642 226 667 324 q 569 69 617 128 q 663 61 622 69 q 736 42 704 53 l 736 -14 l 368 -14 q 242 10 297 -14 q 149 90 188 33 q 90 244 110 147 q 69 486 69 340 q 90 728 69 632 q 149 882 110 825 q 242 963 188 939 q 368 986 297 986 m 368 69 q 433 88 401 69 q 489 153 465 106 q 527 281 513 200 q 542 486 542 361 q 527 692 542 611 q 489 819 513 772 q 433 885 465 867 q 368 903 401 903 q 303 885 335 903 q 247 819 271 867 q 209 692 224 772 q 194 486 194 611 q 209 281 194 361 q 247 153 224 200 q 303 88 271 106 q 368 69 335 69 z "},"R":{"ha":701,"x_min":97,"x_max":653,"o":"m 625 653 q 616 531 625 582 q 590 442 607 479 q 546 383 572 406 q 486 347 519 360 l 653 0 l 514 0 l 361 319 l 222 319 l 222 0 l 97 0 l 97 958 q 203 980 150 974 q 319 986 257 986 q 461 969 403 986 q 556 913 519 953 q 608 810 592 874 q 625 653 625 746 m 319 417 q 401 428 367 417 q 457 467 435 440 q 490 540 479 494 q 500 653 500 585 q 490 770 500 724 q 457 844 479 817 q 401 884 435 872 q 319 896 367 896 l 222 896 l 222 417 l 319 417 z "},"S":{"ha":618,"x_min":49,"x_max":569,"o":"m 49 736 q 113 924 49 863 q 313 986 176 986 q 432 978 375 986 q 521 958 489 969 l 521 896 l 340 896 q 174 736 174 896 q 203 635 174 672 q 276 572 232 597 q 372 524 321 546 q 467 470 422 503 q 540 386 511 438 q 569 250 569 335 q 553 133 569 182 q 499 51 536 83 q 403 2 463 18 q 257 -14 343 -14 q 138 -6 194 -14 q 49 14 81 3 l 49 76 l 229 76 q 397 119 349 76 q 444 250 444 161 q 415 346 444 311 q 342 405 386 381 q 247 451 297 429 q 151 507 196 474 q 78 594 107 540 q 49 736 49 647 z "},"T":{"ha":597,"x_min":14,"x_max":583,"o":"m 14 972 l 583 972 l 583 875 l 361 875 l 361 0 l 236 0 l 236 875 l 14 875 l 14 972 z "},"U":{"ha":722,"x_min":83,"x_max":639,"o":"m 361 69 q 426 81 397 69 q 474 123 454 93 q 503 204 493 153 q 514 333 514 256 l 514 972 l 639 972 l 639 333 q 623 168 639 235 q 573 61 607 101 q 486 3 539 21 q 361 -14 433 -14 q 235 3 288 -14 q 149 61 183 21 q 99 168 115 101 q 83 333 83 235 l 83 972 l 208 972 l 208 333 q 219 204 208 256 q 249 123 229 153 q 297 81 268 93 q 361 69 325 69 z "},"V":{"ha":681,"x_min":28,"x_max":653,"o":"m 338 132 l 343 132 l 528 972 l 653 972 l 431 0 l 250 0 l 28 972 l 153 972 l 338 132 z "},"W":{"ha":1000,"x_min":28,"x_max":972,"o":"m 563 792 l 715 222 l 722 222 l 847 972 l 972 972 l 813 0 l 660 0 l 503 583 l 497 583 l 340 0 l 188 0 l 28 972 l 153 972 l 278 222 l 285 222 l 438 792 l 563 792 z "},"X":{"ha":639,"x_min":21,"x_max":618,"o":"m 472 972 l 597 972 l 410 500 l 618 0 l 493 0 l 319 417 l 146 0 l 21 0 l 229 500 l 42 972 l 167 972 l 319 583 l 472 972 z "},"Y":{"ha":625,"x_min":14,"x_max":611,"o":"m 486 972 l 611 972 l 375 306 l 375 0 l 250 0 l 250 306 l 14 972 l 139 972 l 313 479 l 486 972 z "},"Z":{"ha":563,"x_min":28,"x_max":535,"o":"m 174 97 l 528 97 l 528 0 l 28 0 l 28 90 l 389 875 l 35 875 l 35 972 l 535 972 l 535 882 l 174 97 z "},"[":{"ha":361,"x_min":97,"x_max":361,"o":"m 361 944 l 222 944 l 222 -167 l 361 -167 l 361 -250 l 97 -250 l 97 1028 l 361 1028 l 361 944 z "},"\\":{"ha":542,"x_min":0,"x_max":542,"o":"m 125 972 l 542 0 l 417 0 l 0 972 l 125 972 z "},"]":{"ha":361,"x_min":0,"x_max":264,"o":"m 0 1028 l 264 1028 l 264 -250 l 0 -250 l 0 -167 l 139 -167 l 139 944 l 0 944 l 0 1028 z "},"^":{"ha":618,"x_min":42,"x_max":576,"o":"m 132 569 l 42 625 l 250 972 l 368 972 l 576 625 l 486 569 l 313 847 l 306 847 l 132 569 z "},"_":{"ha":417,"x_min":0,"x_max":417,"o":"m 0 0 l 417 0 l 417 -97 l 0 -97 l 0 0 z "},"`":{"ha":236,"x_min":28,"x_max":208,"o":"m 125 750 l 28 972 l 160 972 l 208 750 l 125 750 z "},"a":{"ha":625,"x_min":63,"x_max":535,"o":"m 410 340 l 313 340 q 224 313 260 340 q 188 208 188 286 q 197 140 188 167 q 224 97 207 113 q 263 76 240 82 q 313 69 286 69 q 367 78 339 69 q 410 97 394 86 l 410 340 m 271 -14 q 185 -5 224 -14 q 120 29 147 4 q 78 97 93 54 q 63 208 63 140 q 78 315 63 274 q 120 381 93 357 q 185 415 147 406 q 271 424 224 424 q 340 419 303 424 q 410 410 378 415 l 410 472 q 399 549 410 519 q 369 596 389 579 q 322 619 350 613 q 257 625 293 625 l 118 625 l 118 681 q 197 700 150 692 q 285 708 243 708 q 394 699 347 708 q 472 663 440 689 q 519 591 503 638 q 535 472 535 544 l 535 0 l 431 0 l 424 42 l 417 42 q 351 1 390 15 q 271 -14 313 -14 z "},"b":{"ha":653,"x_min":97,"x_max":590,"o":"m 222 674 q 287 699 254 689 q 361 708 319 708 q 458 691 415 708 q 531 632 501 674 q 575 521 560 590 q 590 347 590 451 q 574 174 590 243 q 525 63 558 104 q 441 3 492 21 q 319 -14 390 -14 q 203 -3 257 -14 q 97 28 150 7 l 97 972 l 222 972 l 222 674 m 222 69 l 319 69 q 380 81 353 69 q 426 124 407 93 q 455 210 444 156 q 465 347 465 264 q 455 484 465 431 q 426 569 444 538 q 380 613 407 600 q 319 625 353 625 q 265 617 293 625 q 222 597 238 608 l 222 69 z "},"c":{"ha":521,"x_min":63,"x_max":500,"o":"m 347 625 q 278 613 308 625 q 228 569 249 600 q 198 484 208 538 q 188 347 188 431 q 198 210 188 264 q 230 124 208 156 q 284 81 251 93 q 361 69 317 69 l 500 69 l 500 14 q 422 -6 468 3 q 333 -14 375 -14 q 212 3 263 -14 q 128 63 161 21 q 78 174 94 104 q 63 347 63 243 q 78 521 63 451 q 126 632 94 590 q 206 691 158 674 q 319 708 254 708 q 408 700 361 708 q 486 681 454 692 l 486 625 l 347 625 z "},"d":{"ha":653,"x_min":63,"x_max":556,"o":"m 438 42 q 372 1 411 15 q 292 -14 333 -14 q 194 3 238 -14 q 122 63 151 21 q 78 174 93 104 q 63 347 63 243 q 78 521 63 451 q 122 632 93 590 q 194 691 151 674 q 292 708 238 708 q 366 699 333 708 q 431 674 399 689 l 431 972 l 556 972 l 556 0 l 451 0 l 444 42 l 438 42 m 431 597 q 388 617 415 608 q 333 625 360 625 q 273 613 300 625 q 227 569 246 600 q 198 484 208 538 q 188 347 188 431 q 198 210 188 264 q 227 124 208 156 q 273 81 246 93 q 333 69 300 69 q 388 78 360 69 q 431 97 415 86 l 431 597 z "},"e":{"ha":611,"x_min":63,"x_max":549,"o":"m 549 306 l 188 306 q 199 192 188 238 q 233 120 210 147 q 292 81 256 93 q 382 69 329 69 l 521 69 l 521 14 q 442 -6 489 3 q 354 -14 396 -14 q 221 3 276 -14 q 130 63 165 21 q 78 174 94 104 q 63 347 63 243 q 78 521 63 451 q 124 632 93 590 q 200 691 154 674 q 306 708 246 708 q 411 691 365 708 q 488 632 457 674 q 533 521 518 590 q 549 347 549 451 l 549 306 m 424 389 q 414 506 424 460 q 388 581 404 553 q 351 620 372 608 q 306 632 329 632 q 260 620 282 632 q 223 581 239 608 q 197 506 207 553 q 188 389 188 460 l 424 389 z "},"f":{"ha":444,"x_min":28,"x_max":458,"o":"m 111 736 q 126 855 111 808 q 167 927 140 901 q 228 963 193 953 q 306 972 264 972 q 342 970 321 972 q 384 964 363 968 q 426 955 406 960 q 458 944 446 950 l 458 889 l 333 889 q 301 883 318 889 q 269 860 283 876 q 245 813 254 843 q 236 736 236 783 l 236 681 l 431 681 l 431 618 q 352 599 399 607 q 264 590 306 590 l 236 590 l 236 0 l 111 0 l 111 590 l 28 590 l 28 681 l 111 681 l 111 736 z "},"g":{"ha":646,"x_min":63,"x_max":556,"o":"m 431 21 q 366 -4 399 6 q 292 -14 333 -14 q 194 3 238 -14 q 122 63 151 21 q 78 174 93 104 q 63 347 63 243 q 78 521 63 451 q 128 632 94 590 q 212 691 161 674 q 333 708 263 708 q 449 698 396 708 q 556 667 503 688 l 556 56 q 540 -110 556 -43 q 490 -217 524 -176 q 403 -274 456 -257 q 278 -292 350 -292 q 190 -283 236 -292 q 111 -264 143 -275 l 111 -208 l 250 -208 q 331 -197 297 -208 q 388 -159 365 -186 q 420 -88 410 -132 q 431 21 431 -44 m 431 625 l 333 625 q 273 613 300 625 q 227 569 246 600 q 198 484 208 538 q 188 347 188 431 q 198 210 188 264 q 227 124 208 156 q 273 81 246 93 q 333 69 300 69 q 388 78 360 69 q 431 97 415 86 l 431 625 z "},"h":{"ha":667,"x_min":97,"x_max":576,"o":"m 222 0 l 97 0 l 97 972 l 222 972 l 222 674 q 291 699 254 689 q 375 708 328 708 q 456 699 419 708 q 520 667 493 690 q 562 603 547 643 q 576 500 576 563 l 576 0 l 451 0 l 451 500 q 442 560 451 536 q 414 599 432 585 q 372 619 396 614 q 319 625 349 625 q 265 617 293 625 q 222 597 238 608 l 222 0 z "},"i":{"ha":319,"x_min":97,"x_max":222,"o":"m 222 0 l 97 0 l 97 694 l 222 694 l 222 0 m 222 944 l 222 792 l 97 792 l 97 944 l 222 944 z "},"j":{"ha":333,"x_min":-83,"x_max":236,"o":"m 236 -56 q 222 -175 236 -129 q 181 -247 207 -221 q 119 -282 154 -272 q 42 -292 83 -292 q -24 -283 10 -292 q -83 -264 -57 -275 l -83 -208 l 14 -208 q 47 -202 29 -208 q 78 -179 64 -196 q 102 -133 93 -162 q 111 -56 111 -103 l 111 694 l 236 694 l 236 -56 m 236 944 l 236 792 l 111 792 l 111 944 l 236 944 z "},"k":{"ha":604,"x_min":97,"x_max":590,"o":"m 222 361 l 222 0 l 97 0 l 97 972 l 222 972 l 222 375 l 424 694 l 563 694 l 347 368 l 590 0 l 451 0 l 222 361 z "},"l":{"ha":319,"x_min":97,"x_max":222,"o":"m 97 972 l 222 972 l 222 0 l 97 0 l 97 972 z "},"m":{"ha":958,"x_min":90,"x_max":868,"o":"m 542 0 l 417 0 l 417 500 q 407 560 417 536 q 382 599 397 585 q 347 619 367 614 q 306 625 326 625 q 255 617 279 625 q 215 597 231 608 l 215 0 l 90 0 l 90 694 l 194 694 l 201 653 l 208 653 q 267 694 235 679 q 347 708 300 708 q 435 695 394 708 q 503 647 475 682 q 542 674 519 663 q 587 692 564 685 q 633 704 610 700 q 674 708 656 708 q 751 699 715 708 q 813 667 786 690 q 853 603 839 643 q 868 500 868 563 l 868 0 l 743 0 l 743 500 q 733 560 743 536 q 708 599 724 585 q 673 619 693 614 q 632 625 653 625 q 572 617 600 625 q 528 597 543 608 q 538 557 533 582 q 542 500 542 532 l 542 0 z "},"n":{"ha":660,"x_min":90,"x_max":569,"o":"m 215 0 l 90 0 l 90 694 l 194 694 l 201 653 l 208 653 q 274 694 235 679 q 354 708 313 708 q 444 699 404 708 q 511 667 483 690 q 554 603 539 643 q 569 500 569 563 l 569 0 l 444 0 l 444 500 q 435 560 444 536 q 407 599 425 585 q 365 619 389 614 q 313 625 342 625 q 258 617 286 625 q 215 597 231 608 l 215 0 z "},"o":{"ha":639,"x_min":63,"x_max":576,"o":"m 451 347 q 440 485 451 431 q 411 573 429 540 q 369 619 393 606 q 319 632 346 632 q 269 619 293 632 q 228 573 246 606 q 199 485 210 540 q 188 347 188 431 q 199 209 188 264 q 228 122 210 154 q 269 76 246 89 q 319 63 293 63 q 369 76 346 63 q 411 122 393 89 q 440 209 429 154 q 451 347 451 264 m 576 347 q 560 176 576 246 q 510 65 543 107 q 430 4 478 22 q 319 -14 382 -14 q 209 4 257 -14 q 128 65 161 22 q 79 176 96 107 q 63 347 63 246 q 79 518 63 449 q 128 630 96 588 q 209 690 161 672 q 319 708 257 708 q 430 690 382 708 q 510 630 478 672 q 560 518 543 588 q 576 347 576 449 z "},"p":{"ha":646,"x_min":90,"x_max":583,"o":"m 208 653 q 274 694 235 679 q 354 708 313 708 q 451 691 408 708 q 524 632 494 674 q 568 521 553 590 q 583 347 583 451 q 568 174 583 243 q 524 63 553 104 q 451 3 494 21 q 354 -14 408 -14 q 280 -4 313 -14 q 215 21 247 6 l 215 -278 l 90 -278 l 90 694 l 194 694 l 201 653 l 208 653 m 215 97 q 258 78 231 86 q 313 69 286 69 q 373 81 346 69 q 419 124 400 93 q 448 210 438 156 q 458 347 458 264 q 448 484 458 431 q 419 569 438 538 q 373 613 400 600 q 313 625 346 625 q 258 617 286 625 q 215 597 231 608 l 215 97 z "},"q":{"ha":646,"x_min":63,"x_max":556,"o":"m 431 21 q 366 -4 399 6 q 292 -14 333 -14 q 194 3 238 -14 q 122 63 151 21 q 78 174 93 104 q 63 347 63 243 q 78 521 63 451 q 128 632 94 590 q 212 691 161 674 q 333 708 263 708 q 449 698 396 708 q 556 667 503 688 l 556 -278 l 431 -278 l 431 21 m 431 625 l 333 625 q 273 613 300 625 q 227 569 246 600 q 198 484 208 538 q 188 347 188 431 q 198 210 188 264 q 227 124 208 156 q 273 81 246 93 q 333 69 300 69 q 388 78 360 69 q 431 97 415 86 l 431 625 z "},"r":{"ha":465,"x_min":90,"x_max":451,"o":"m 215 0 l 90 0 l 90 694 l 196 694 l 203 639 l 210 639 q 277 677 235 660 q 382 694 319 694 l 451 694 l 451 590 l 313 590 q 261 584 286 590 q 215 563 236 578 l 215 0 z "},"s":{"ha":549,"x_min":49,"x_max":500,"o":"m 174 528 q 198 462 174 486 q 258 419 222 438 q 337 385 294 401 q 415 344 379 369 q 476 281 451 319 q 500 181 500 243 q 484 86 500 124 q 434 26 468 49 q 347 -5 400 4 q 222 -14 294 -14 q 134 -6 181 -14 q 56 14 88 3 l 56 69 l 194 69 q 332 94 289 69 q 375 181 375 118 q 351 247 375 222 q 290 289 326 271 q 212 323 254 307 q 133 364 169 339 q 73 427 97 389 q 49 528 49 465 q 111 670 49 632 q 299 708 174 708 q 387 700 340 708 q 465 681 433 692 l 465 625 l 326 625 q 213 603 253 625 q 174 528 174 581 z "},"t":{"ha":479,"x_min":28,"x_max":458,"o":"m 236 590 l 236 222 q 245 145 236 175 q 269 99 254 115 q 301 76 283 82 q 333 69 318 69 l 458 69 l 458 14 q 426 3 446 8 q 384 -6 406 -1 q 342 -12 363 -10 q 306 -14 321 -14 q 228 -4 264 -14 q 167 31 193 6 q 126 103 140 57 q 111 222 111 149 l 111 590 l 28 590 l 28 681 l 111 681 l 111 847 l 236 847 l 236 681 l 431 681 l 431 618 q 352 599 399 607 q 264 590 306 590 l 236 590 z "},"u":{"ha":660,"x_min":90,"x_max":569,"o":"m 444 694 l 569 694 l 569 0 l 465 0 l 458 42 l 451 42 q 386 1 425 15 q 306 -14 347 -14 q 216 -5 256 -14 q 149 28 176 4 q 106 92 121 51 q 90 194 90 132 l 90 694 l 215 694 l 215 194 q 225 134 215 158 q 253 95 235 110 q 294 75 271 81 q 347 69 318 69 q 401 78 374 69 q 444 97 429 86 l 444 694 z "},"v":{"ha":597,"x_min":21,"x_max":576,"o":"m 208 0 l 21 694 l 139 694 l 296 118 l 301 118 l 458 694 l 576 694 l 389 0 l 208 0 z "},"w":{"ha":847,"x_min":21,"x_max":826,"o":"m 421 375 l 299 0 l 146 0 l 21 694 l 139 694 l 235 167 l 242 167 l 368 556 l 479 556 l 606 167 l 613 167 l 708 694 l 826 694 l 701 0 l 549 0 l 426 375 l 421 375 z "},"x":{"ha":556,"x_min":21,"x_max":535,"o":"m 404 694 l 529 694 l 361 354 l 535 0 l 410 0 l 278 271 l 146 0 l 21 0 l 194 354 l 26 694 l 151 694 l 278 438 l 404 694 z "},"y":{"ha":660,"x_min":90,"x_max":569,"o":"m 306 -14 q 216 -5 256 -14 q 149 28 176 4 q 106 92 121 51 q 90 194 90 132 l 90 694 l 215 694 l 215 194 q 225 134 215 158 q 253 95 235 110 q 294 75 271 81 q 347 69 318 69 q 401 78 374 69 q 444 97 429 86 l 444 694 l 569 694 l 569 56 q 553 -110 569 -43 q 503 -217 538 -176 q 417 -274 469 -257 q 292 -292 364 -292 q 203 -283 250 -292 q 125 -264 157 -275 l 125 -208 l 264 -208 q 345 -197 311 -208 q 401 -159 379 -186 q 434 -88 424 -132 q 444 21 444 -44 q 380 -4 413 6 q 306 -14 347 -14 z "},"z":{"ha":514,"x_min":28,"x_max":486,"o":"m 486 611 l 175 90 l 479 90 l 479 0 l 28 0 l 28 83 l 340 604 l 42 604 l 42 694 l 486 694 l 486 611 z "},"{":{"ha":403,"x_min":28,"x_max":403,"o":"m 264 639 q 256 543 264 582 q 234 477 249 504 q 199 431 219 450 q 153 392 179 411 l 153 386 q 199 347 179 367 q 234 299 219 326 q 256 234 249 272 q 264 139 264 196 l 264 -14 q 274 -91 264 -61 q 302 -137 283 -121 q 346 -160 321 -154 q 403 -167 371 -167 l 403 -250 q 285 -240 335 -250 q 203 -205 236 -231 q 155 -133 171 -179 q 139 -14 139 -87 l 139 167 q 131 242 139 211 q 109 293 124 272 q 74 326 94 314 q 28 347 54 339 l 28 431 q 74 451 54 439 q 109 485 94 464 q 131 536 124 506 q 139 611 139 567 l 139 792 q 155 910 139 864 q 203 983 171 957 q 285 1018 236 1008 q 403 1028 335 1028 l 403 944 q 346 938 371 944 q 302 915 321 932 q 274 869 283 899 q 264 792 264 839 l 264 639 z "},"|":{"ha":319,"x_min":97,"x_max":222,"o":"m 222 972 l 222 -278 l 97 -278 l 97 972 l 222 972 z "},"}":{"ha":403,"x_min":0,"x_max":375,"o":"m 139 792 q 129 869 139 839 q 101 915 119 899 q 56 938 82 932 q 0 944 31 944 l 0 1028 q 117 1018 68 1028 q 199 983 167 1008 q 248 910 232 957 q 264 792 264 864 l 264 611 q 272 536 264 567 q 294 485 279 506 q 328 451 308 464 q 375 431 349 439 l 375 347 q 328 326 349 339 q 294 293 308 314 q 272 242 279 272 q 264 167 264 211 l 264 -14 q 248 -133 264 -87 q 199 -205 232 -179 q 117 -240 167 -231 q 0 -250 68 -250 l 0 -167 q 56 -160 31 -167 q 101 -137 82 -154 q 129 -91 119 -121 q 139 -14 139 -61 l 139 139 q 147 234 139 196 q 169 299 154 272 q 203 347 183 326 q 250 386 224 367 l 250 392 q 203 431 224 411 q 169 477 183 450 q 147 543 154 504 q 139 639 139 582 l 139 792 z "},"~":{"ha":625,"x_min":42,"x_max":583,"o":"m 486 278 q 469 353 486 325 q 417 382 453 382 q 375 365 393 382 q 335 326 357 347 q 285 288 314 306 q 208 271 256 271 q 129 286 161 271 q 78 331 97 301 q 50 403 58 360 q 42 500 42 446 l 139 500 q 156 424 139 453 q 208 396 172 396 q 250 413 232 396 q 290 451 268 431 q 340 490 311 472 q 417 507 369 507 q 547 447 510 507 q 583 278 583 388 l 486 278 z "}," ":{"ha":347,"x_min":0,"x_max":0,"o":""},"¡":{"ha":319,"x_min":83,"x_max":236,"o":"m 213 715 l 236 0 l 83 0 l 101 715 l 213 715 m 94 826 l 94 979 l 219 979 l 219 826 l 94 826 z "},"¢":{"ha":521,"x_min":63,"x_max":500,"o":"m 368 625 l 368 69 l 500 69 l 500 14 q 440 -2 475 6 q 368 -12 404 -10 l 368 -83 l 285 -83 l 285 -11 q 185 15 226 -6 q 116 78 143 36 q 76 187 89 121 q 63 347 63 253 q 76 511 63 444 q 117 620 90 578 q 186 683 144 663 q 285 707 228 703 l 285 792 l 368 792 l 368 706 q 431 694 400 701 q 486 681 463 688 l 486 625 l 368 625 m 188 347 q 211 160 188 221 q 285 81 235 100 l 285 615 q 212 537 236 597 q 188 347 188 476 z "},"£":{"ha":576,"x_min":49,"x_max":549,"o":"m 132 542 l 132 694 q 148 845 132 788 q 198 934 164 903 q 284 976 232 965 q 410 986 336 986 q 475 978 442 986 q 535 958 508 969 l 535 896 l 410 896 q 345 889 374 896 q 297 860 317 882 q 267 799 278 839 q 257 694 257 760 l 257 542 l 465 542 l 465 444 l 257 444 l 257 325 q 238 172 257 221 q 188 103 219 124 l 188 97 l 549 97 l 549 0 l 63 0 l 63 69 q 113 139 94 90 q 132 292 132 188 l 132 444 l 49 444 l 49 542 l 132 542 z "},"¤":{"ha":722,"x_min":42,"x_max":681,"o":"m 486 486 q 450 617 486 575 q 361 660 414 660 q 272 617 308 660 q 236 486 236 575 q 272 355 236 397 q 361 313 308 313 q 450 355 414 313 q 486 486 486 397 m 618 486 q 608 415 618 450 q 583 354 599 381 l 681 257 l 611 188 l 514 278 q 445 237 488 251 q 360 222 403 222 q 277 237 319 222 q 208 278 235 251 l 111 188 l 42 257 l 139 354 q 114 415 124 381 q 104 486 104 450 q 114 557 104 522 q 139 618 124 592 l 42 715 l 111 785 l 208 694 q 277 735 235 721 q 360 750 319 750 q 445 735 403 750 q 514 694 488 721 l 611 785 l 681 715 l 583 618 q 608 557 599 592 q 618 486 618 522 z "},"¥":{"ha":625,"x_min":14,"x_max":611,"o":"m 431 465 l 401 382 l 542 382 l 542 285 l 375 285 l 375 0 l 250 0 l 250 285 l 83 285 l 83 382 l 222 382 l 193 465 l 83 465 l 83 563 l 158 563 l 14 972 l 139 972 l 313 479 l 486 972 l 611 972 l 465 563 l 542 563 l 542 465 l 431 465 z "},"¦":{"ha":319,"x_min":97,"x_max":222,"o":"m 222 222 l 222 -278 l 97 -278 l 97 222 l 222 222 m 222 944 l 222 444 l 97 444 l 97 944 l 222 944 z "},"§":{"ha":604,"x_min":56,"x_max":549,"o":"m 181 347 q 193 287 181 313 q 227 242 206 261 q 276 207 249 222 q 335 178 304 192 q 399 239 374 200 q 424 347 424 278 q 411 408 424 382 q 377 453 399 433 q 328 488 356 472 q 271 517 300 503 q 206 457 231 496 q 181 347 181 418 m 222 -208 q 378 -170 332 -208 q 424 -69 424 -132 q 397 10 424 -21 q 328 63 369 40 q 240 108 288 86 q 151 159 192 129 q 83 233 110 189 q 56 347 56 278 q 97 479 56 428 q 192 558 138 531 q 106 635 142 588 q 69 764 69 682 q 134 927 69 868 q 340 986 199 986 q 444 978 393 986 q 528 958 496 969 l 528 903 l 368 903 q 237 865 279 903 q 194 764 194 826 q 221 685 194 715 q 286 631 247 654 q 372 587 325 608 q 457 535 418 565 q 522 461 496 506 q 549 347 549 417 q 509 217 549 268 q 417 139 469 167 q 467 105 443 124 q 510 62 492 86 q 538 5 528 38 q 549 -69 549 -28 q 480 -233 549 -174 q 250 -292 411 -292 q 146 -283 197 -292 q 63 -264 94 -275 l 63 -208 l 222 -208 z "},"¨":{"ha":403,"x_min":28,"x_max":375,"o":"m 153 958 l 153 806 l 28 806 l 28 958 l 153 958 m 375 958 l 375 806 l 250 806 l 250 958 l 375 958 z "},"©":{"ha":1125,"x_min":63,"x_max":1063,"o":"m 340 486 q 356 645 340 585 q 401 738 371 706 q 475 781 431 771 q 576 792 519 792 q 664 783 624 792 q 736 764 704 775 l 736 708 l 604 708 q 540 701 568 708 q 492 670 511 693 q 462 603 472 647 q 451 486 451 558 q 462 369 451 413 q 492 302 472 325 q 540 272 511 279 q 604 264 568 264 l 750 264 l 750 208 q 671 189 718 197 q 576 181 624 181 q 475 191 519 181 q 401 234 431 201 q 356 327 371 267 q 340 486 340 388 m 563 917 q 410 888 479 917 q 292 806 342 860 q 215 671 242 751 q 188 486 188 590 q 215 301 188 382 q 292 167 242 221 q 410 84 342 113 q 563 56 479 56 q 715 84 646 56 q 833 167 783 113 q 910 301 883 221 q 938 486 938 382 q 910 671 938 590 q 833 806 883 751 q 715 888 783 860 q 563 917 646 917 m 563 1000 q 769 965 676 1000 q 927 863 863 929 q 1027 701 992 796 q 1063 486 1063 606 q 1027 272 1063 367 q 927 110 992 176 q 769 8 863 43 q 563 -28 676 -28 q 355 8 447 -28 q 198 110 263 43 q 98 272 133 176 q 63 486 63 367 q 98 701 63 606 q 198 863 133 796 q 355 965 263 929 q 563 1000 447 1000 z "},"ª":{"ha":396,"x_min":42,"x_max":354,"o":"m 264 743 l 201 743 q 151 728 169 743 q 132 681 132 713 q 151 633 132 649 q 201 618 169 618 q 264 639 232 618 l 264 743 m 174 813 q 202 811 186 813 q 232 808 218 810 q 264 806 247 807 l 264 833 q 242 892 264 875 q 174 910 221 910 l 76 910 l 76 963 q 129 974 97 969 q 188 979 161 979 q 258 973 226 979 q 310 951 289 967 q 343 906 332 935 q 354 833 354 878 l 354 556 l 271 556 l 264 583 q 217 558 243 568 q 160 549 192 549 q 118 556 139 549 q 80 578 97 563 q 52 619 63 593 q 42 681 42 644 q 81 783 42 753 q 174 813 121 813 z "},"«":{"ha":604,"x_min":28,"x_max":563,"o":"m 167 350 l 167 344 l 333 118 l 243 63 l 28 347 l 243 632 l 333 576 l 167 350 m 396 350 l 396 344 l 563 118 l 472 63 l 257 347 l 472 632 l 563 576 l 396 350 z "},"¬":{"ha":583,"x_min":42,"x_max":542,"o":"m 542 333 l 451 333 l 440 472 l 42 472 l 42 569 l 542 569 l 542 333 z "},"­":{"ha":500,"x_min":42,"x_max":458,"o":"m 42 472 l 458 472 l 458 361 l 42 361 l 42 472 z "},"®":{"ha":1125,"x_min":63,"x_max":1063,"o":"m 479 194 l 368 194 l 368 764 q 449 783 404 775 q 556 792 493 792 q 649 783 607 792 q 719 751 690 774 q 763 692 747 729 q 778 597 778 654 q 769 527 778 556 q 745 480 760 499 q 713 450 731 461 q 681 431 696 439 l 792 194 l 674 194 l 576 403 l 479 403 l 479 194 m 556 486 q 632 510 597 486 q 667 597 667 535 q 632 684 667 660 q 556 708 597 708 l 479 708 l 479 486 l 556 486 m 563 917 q 410 888 479 917 q 292 806 342 860 q 215 671 242 751 q 188 486 188 590 q 215 301 188 382 q 292 167 242 221 q 410 84 342 113 q 563 56 479 56 q 715 84 646 56 q 833 167 783 113 q 910 301 883 221 q 938 486 938 382 q 910 671 938 590 q 833 806 883 751 q 715 888 783 860 q 563 917 646 917 m 563 1000 q 769 965 676 1000 q 927 863 863 929 q 1027 701 992 796 q 1063 486 1063 606 q 1027 272 1063 367 q 927 110 992 176 q 769 8 863 43 q 563 -28 676 -28 q 355 8 447 -28 q 198 110 263 43 q 98 272 133 176 q 63 486 63 367 q 98 701 63 606 q 198 863 133 796 q 355 965 263 929 q 563 1000 447 1000 z "},"¯":{"ha":375,"x_min":28,"x_max":347,"o":"m 28 972 l 347 972 l 347 889 l 28 889 l 28 972 z "},"°":{"ha":528,"x_min":56,"x_max":472,"o":"m 264 625 q 333 658 306 625 q 361 764 361 690 q 333 870 361 838 q 264 903 306 903 q 194 870 222 903 q 167 764 167 838 q 194 658 167 690 q 264 625 222 625 m 264 986 q 415 927 358 986 q 472 764 472 868 q 415 601 472 660 q 264 542 358 542 q 113 601 169 542 q 56 764 56 660 q 113 927 56 868 q 264 986 169 986 z "},"±":{"ha":597,"x_min":42,"x_max":556,"o":"m 42 167 l 556 167 l 556 69 l 42 69 l 42 167 m 354 736 l 354 521 l 556 521 l 556 424 l 354 424 l 354 208 l 243 208 l 243 424 l 42 424 l 42 521 l 243 521 l 243 736 l 354 736 z "},"²":{"ha":354,"x_min":42,"x_max":313,"o":"m 167 979 q 276 944 240 979 q 313 847 313 910 q 271 738 313 789 q 146 625 229 688 l 313 625 l 313 556 l 42 556 l 42 632 q 110 688 78 661 q 168 742 143 715 q 208 795 193 769 q 222 847 222 821 q 202 892 222 874 q 146 910 182 910 l 56 910 l 56 964 q 106 975 76 971 q 167 979 135 979 z "},"³":{"ha":354,"x_min":42,"x_max":313,"o":"m 153 979 q 260 954 221 979 q 299 861 299 929 q 278 806 299 829 q 242 778 258 783 q 291 747 269 772 q 313 674 313 721 q 268 574 313 600 q 146 549 224 549 q 88 553 114 549 q 42 564 63 557 l 42 618 l 146 618 q 222 674 222 618 q 203 721 222 706 q 153 736 185 736 l 90 736 l 90 806 l 146 806 q 195 823 182 806 q 208 861 208 840 q 192 896 208 882 q 138 910 175 910 l 42 910 l 42 964 q 91 975 61 971 q 153 979 121 979 z "},"´":{"ha":236,"x_min":28,"x_max":208,"o":"m 28 778 l 76 958 l 208 958 l 111 778 l 28 778 z "},"µ":{"ha":660,"x_min":90,"x_max":569,"o":"m 444 694 l 569 694 l 569 0 l 465 0 l 458 42 l 451 42 q 393 1 425 15 q 319 -14 361 -14 q 278 -8 297 -14 q 247 6 260 -1 q 225 19 233 13 q 215 28 217 26 l 215 -278 l 90 -278 l 90 694 l 215 694 l 215 222 q 252 109 215 149 q 347 69 289 69 q 401 78 374 69 q 444 97 429 86 l 444 694 z "},"¶":{"ha":736,"x_min":42,"x_max":708,"o":"m 611 -278 l 500 -278 l 500 875 l 403 875 l 403 -278 l 292 -278 l 292 458 q 109 526 176 458 q 42 715 42 594 q 59 811 42 765 q 109 893 76 857 q 188 951 142 929 q 292 972 235 972 l 708 972 l 708 875 l 611 875 l 611 -278 z "},"·":{"ha":347,"x_min":111,"x_max":236,"o":"m 236 563 l 236 410 l 111 410 l 111 563 l 236 563 z "},"¸":{"ha":278,"x_min":28,"x_max":250,"o":"m 132 -35 q 220 -62 190 -35 q 250 -132 250 -90 q 220 -201 250 -174 q 132 -229 190 -229 q 90 -226 108 -229 q 57 -219 71 -224 q 28 -208 42 -214 l 28 -167 l 118 -167 q 160 -132 160 -167 q 118 -97 160 -97 l 42 -97 l 42 21 l 111 21 l 111 -35 l 132 -35 z "},"¹":{"ha":257,"x_min":42,"x_max":215,"o":"m 215 972 l 215 556 l 125 556 l 125 903 l 42 903 l 42 956 q 100 967 63 963 q 174 972 138 972 l 215 972 z "},"º":{"ha":417,"x_min":42,"x_max":375,"o":"m 285 764 q 263 878 285 847 q 208 910 240 910 q 154 878 176 910 q 132 764 132 847 q 154 649 132 681 q 208 618 176 618 q 263 649 240 618 q 285 764 285 681 m 375 764 q 328 601 375 654 q 208 549 282 549 q 88 601 135 549 q 42 764 42 654 q 88 926 42 874 q 208 979 135 979 q 328 926 282 979 q 375 764 375 874 z "},"»":{"ha":604,"x_min":42,"x_max":576,"o":"m 271 576 l 361 632 l 576 347 l 361 63 l 271 118 l 438 344 l 438 350 l 271 576 m 42 576 l 132 632 l 347 347 l 132 63 l 42 118 l 208 344 l 208 350 l 42 576 z "},"¼":{"ha":778,"x_min":56,"x_max":708,"o":"m 569 160 l 569 296 l 465 160 l 569 160 m 368 160 l 563 417 l 660 417 l 660 160 l 701 160 l 701 90 l 660 90 l 660 0 l 569 0 l 569 90 l 368 90 l 368 160 m 708 972 l 167 0 l 56 0 l 597 972 l 708 972 m 243 972 l 243 556 l 146 556 l 146 903 l 63 903 l 63 956 q 121 967 83 963 q 194 972 158 972 l 243 972 z "},"½":{"ha":819,"x_min":69,"x_max":736,"o":"m 590 424 q 700 389 664 424 q 736 292 736 354 q 694 183 736 233 q 569 69 653 132 l 736 69 l 736 0 l 465 0 l 465 76 q 534 133 501 106 q 592 187 567 160 q 631 240 617 214 q 646 292 646 265 q 626 336 646 318 q 569 354 606 354 l 479 354 l 479 408 q 529 419 500 415 q 590 424 558 424 m 722 972 l 181 0 l 69 0 l 611 972 l 722 972 m 257 972 l 257 556 l 160 556 l 160 903 l 76 903 l 76 956 q 135 967 97 963 q 208 972 172 972 l 257 972 z "},"¾":{"ha":785,"x_min":56,"x_max":715,"o":"m 167 979 q 274 954 235 979 q 313 861 313 929 q 292 806 313 829 q 256 778 272 783 q 305 747 283 772 q 326 674 326 721 q 282 574 326 600 q 160 549 238 549 q 102 553 128 549 q 56 564 76 557 l 56 618 l 160 618 q 236 674 236 618 q 217 721 236 706 q 167 736 199 736 l 104 736 l 104 806 l 160 806 q 209 823 196 806 q 222 861 222 840 q 206 896 222 882 q 151 910 189 910 l 56 910 l 56 964 q 105 975 75 971 q 167 979 135 979 m 576 160 l 576 296 l 472 160 l 576 160 m 375 160 l 569 417 l 667 417 l 667 160 l 708 160 l 708 90 l 667 90 l 667 0 l 576 0 l 576 90 l 375 90 l 375 160 m 715 972 l 174 0 l 63 0 l 604 972 l 715 972 z "},"¿":{"ha":514,"x_min":42,"x_max":500,"o":"m 368 715 q 353 610 368 654 q 316 530 339 565 q 267 465 293 494 q 219 403 242 435 q 181 335 196 372 q 167 250 167 299 q 206 119 167 161 q 319 76 246 76 l 500 76 l 500 14 q 411 -6 468 3 q 292 -14 354 -14 q 103 50 165 -14 q 42 250 42 114 q 58 352 42 308 q 97 431 74 396 q 149 495 121 465 q 201 558 178 525 q 241 628 225 590 q 257 715 257 665 l 368 715 m 250 826 l 250 979 l 375 979 l 375 826 l 250 826 z "},"À":{"ha":708,"x_min":28,"x_max":681,"o":"m 215 250 l 153 0 l 28 0 l 264 972 l 444 972 l 681 0 l 556 0 l 493 250 l 215 250 m 357 833 l 351 833 l 236 347 l 472 347 l 357 833 m 319 1042 l 222 1222 l 354 1222 l 403 1042 l 319 1042 z "},"Á":{"ha":708,"x_min":28,"x_max":681,"o":"m 215 250 l 153 0 l 28 0 l 264 972 l 444 972 l 681 0 l 556 0 l 493 250 l 215 250 m 357 833 l 351 833 l 236 347 l 472 347 l 357 833 m 306 1042 l 354 1222 l 486 1222 l 389 1042 l 306 1042 z "},"Â":{"ha":708,"x_min":28,"x_max":681,"o":"m 215 250 l 153 0 l 28 0 l 264 972 l 444 972 l 681 0 l 556 0 l 493 250 l 215 250 m 357 833 l 351 833 l 236 347 l 472 347 l 357 833 m 185 1042 l 289 1222 l 421 1222 l 525 1042 l 442 1042 l 354 1144 l 268 1042 l 185 1042 z "},"Ã":{"ha":708,"x_min":28,"x_max":681,"o":"m 215 250 l 153 0 l 28 0 l 264 972 l 444 972 l 681 0 l 556 0 l 493 250 l 215 250 m 357 833 l 351 833 l 236 347 l 472 347 l 357 833 m 444 1063 q 410 1125 444 1125 q 385 1112 397 1125 q 360 1083 374 1099 q 329 1055 347 1068 q 285 1042 311 1042 q 206 1075 232 1042 q 181 1188 181 1108 l 250 1188 q 285 1125 250 1125 q 309 1138 297 1125 q 334 1167 321 1151 q 365 1195 347 1182 q 410 1208 383 1208 q 488 1175 463 1208 q 514 1063 514 1142 l 444 1063 z "},"Ä":{"ha":708,"x_min":28,"x_max":681,"o":"m 215 250 l 153 0 l 28 0 l 264 972 l 444 972 l 681 0 l 556 0 l 493 250 l 215 250 m 357 833 l 351 833 l 236 347 l 472 347 l 357 833 m 306 1208 l 306 1056 l 181 1056 l 181 1208 l 306 1208 m 528 1208 l 528 1056 l 403 1056 l 403 1208 l 528 1208 z "},"Å":{"ha":708,"x_min":28,"x_max":681,"o":"m 215 250 l 153 0 l 28 0 l 264 972 l 444 972 l 681 0 l 556 0 l 493 250 l 215 250 m 357 833 l 351 833 l 236 347 l 472 347 l 357 833 m 403 1125 q 389 1163 403 1151 q 354 1174 375 1174 q 319 1163 333 1174 q 306 1125 306 1151 q 319 1088 306 1099 q 354 1076 333 1076 q 389 1088 375 1076 q 403 1125 403 1099 m 472 1125 q 440 1043 472 1072 q 354 1014 407 1014 q 269 1043 301 1014 q 236 1125 236 1072 q 269 1207 236 1178 q 354 1236 301 1236 q 440 1207 407 1236 q 472 1125 472 1178 z "},"Æ":{"ha":1015,"x_min":0,"x_max":960,"o":"m 333 972 l 960 972 l 960 875 l 613 875 l 613 556 l 918 556 l 918 458 l 613 458 l 613 97 l 960 97 l 960 0 l 488 0 l 488 250 l 211 250 l 125 0 l 0 0 l 333 972 m 244 347 l 488 347 l 488 875 l 425 875 l 244 347 z "},"Ç":{"ha":604,"x_min":69,"x_max":583,"o":"m 396 -35 q 484 -62 454 -35 q 514 -132 514 -90 q 482 -201 514 -174 q 382 -229 450 -229 q 340 -226 358 -229 q 307 -219 321 -224 q 278 -208 292 -214 l 278 -167 l 368 -167 q 412 -157 400 -167 q 424 -132 424 -147 q 382 -97 424 -97 l 306 -97 l 306 -8 q 205 32 249 1 q 131 121 161 63 q 85 269 100 179 q 69 486 69 358 q 90 728 69 632 q 147 882 110 825 q 239 963 185 939 q 361 986 293 986 q 481 978 424 986 q 569 958 538 969 l 569 896 l 389 896 q 312 878 347 896 q 250 813 276 860 q 209 688 224 767 q 194 486 194 608 q 210 285 194 364 q 252 159 225 206 q 317 94 279 113 q 403 76 356 76 l 583 76 l 583 14 q 494 -6 551 3 q 375 -14 438 -14 l 375 -35 l 396 -35 z "},"È":{"ha":625,"x_min":97,"x_max":569,"o":"m 222 97 l 569 97 l 569 0 l 97 0 l 97 972 l 569 972 l 569 875 l 222 875 l 222 556 l 528 556 l 528 458 l 222 458 l 222 97 m 306 1042 l 208 1222 l 340 1222 l 389 1042 l 306 1042 z "},"É":{"ha":625,"x_min":97,"x_max":569,"o":"m 222 97 l 569 97 l 569 0 l 97 0 l 97 972 l 569 972 l 569 875 l 222 875 l 222 556 l 528 556 l 528 458 l 222 458 l 222 97 m 292 1042 l 340 1222 l 472 1222 l 375 1042 l 292 1042 z "},"Ê":{"ha":625,"x_min":97,"x_max":569,"o":"m 222 97 l 569 97 l 569 0 l 97 0 l 97 972 l 569 972 l 569 875 l 222 875 l 222 556 l 528 556 l 528 458 l 222 458 l 222 97 m 160 1042 l 264 1222 l 396 1222 l 500 1042 l 417 1042 l 329 1144 l 243 1042 l 160 1042 z "},"Ë":{"ha":625,"x_min":97,"x_max":569,"o":"m 222 97 l 569 97 l 569 0 l 97 0 l 97 972 l 569 972 l 569 875 l 222 875 l 222 556 l 528 556 l 528 458 l 222 458 l 222 97 m 278 1222 l 278 1069 l 153 1069 l 153 1222 l 278 1222 m 500 1222 l 500 1069 l 375 1069 l 375 1222 l 500 1222 z "},"Ì":{"ha":313,"x_min":21,"x_max":215,"o":"m 215 972 l 215 0 l 90 0 l 90 972 l 215 972 m 118 1042 l 21 1222 l 153 1222 l 201 1042 l 118 1042 z "},"Í":{"ha":319,"x_min":97,"x_max":299,"o":"m 222 972 l 222 0 l 97 0 l 97 972 l 222 972 m 118 1042 l 167 1222 l 299 1222 l 201 1042 l 118 1042 z "},"Î":{"ha":299,"x_min":-21,"x_max":319,"o":"m 208 972 l 208 0 l 83 0 l 83 972 l 208 972 m -21 1042 l 83 1222 l 215 1222 l 319 1042 l 236 1042 l 149 1144 l 63 1042 l -21 1042 z "},"Ï":{"ha":319,"x_min":-14,"x_max":333,"o":"m 222 972 l 222 0 l 97 0 l 97 972 l 222 972 m 111 1222 l 111 1069 l -14 1069 l -14 1222 l 111 1222 m 333 1222 l 333 1069 l 208 1069 l 208 1222 l 333 1222 z "},"Ð":{"ha":750,"x_min":14,"x_max":681,"o":"m 125 542 l 125 958 q 231 980 178 974 q 347 986 285 986 q 493 963 431 986 q 597 882 556 939 q 660 728 639 825 q 681 486 681 632 q 660 244 681 340 q 597 90 639 147 q 493 10 556 33 q 347 -14 431 -14 q 231 -8 285 -14 q 125 14 178 -1 l 125 444 l 14 444 l 14 542 l 125 542 m 556 486 q 540 688 556 608 q 498 813 525 767 q 433 878 471 860 q 347 896 394 896 l 250 896 l 250 542 l 403 542 l 403 444 l 250 444 l 250 76 l 347 76 q 433 94 394 76 q 498 159 471 113 q 540 285 525 206 q 556 486 556 364 z "},"Ñ":{"ha":750,"x_min":97,"x_max":653,"o":"m 458 1063 q 424 1125 458 1125 q 399 1112 411 1125 q 374 1083 388 1099 q 343 1055 361 1068 q 299 1042 325 1042 q 220 1075 246 1042 q 194 1188 194 1108 l 264 1188 q 299 1125 264 1125 q 323 1138 311 1125 q 348 1167 335 1151 q 379 1195 361 1182 q 424 1208 397 1208 q 502 1175 476 1208 q 528 1063 528 1142 l 458 1063 m 222 0 l 97 0 l 97 972 l 236 972 l 521 285 l 528 285 l 528 972 l 653 972 l 653 0 l 514 0 l 229 688 l 222 688 l 222 0 z "},"Ò":{"ha":736,"x_min":69,"x_max":667,"o":"m 368 986 q 494 963 439 986 q 588 882 549 939 q 647 728 626 825 q 667 486 667 632 q 647 244 667 340 q 588 90 626 147 q 494 10 549 33 q 368 -14 439 -14 q 242 10 297 -14 q 149 90 188 33 q 90 244 110 147 q 69 486 69 340 q 90 728 69 632 q 149 882 110 825 q 242 963 188 939 q 368 986 297 986 m 368 69 q 433 88 401 69 q 489 153 465 106 q 527 281 513 200 q 542 486 542 361 q 527 692 542 611 q 489 819 513 772 q 433 885 465 867 q 368 903 401 903 q 303 885 335 903 q 247 819 271 867 q 209 692 224 772 q 194 486 194 611 q 209 281 194 361 q 247 153 224 200 q 303 88 271 106 q 368 69 335 69 m 333 1056 l 236 1236 l 368 1236 l 417 1056 l 333 1056 z "},"Ó":{"ha":736,"x_min":69,"x_max":667,"o":"m 368 986 q 494 963 439 986 q 588 882 549 939 q 647 728 626 825 q 667 486 667 632 q 647 244 667 340 q 588 90 626 147 q 494 10 549 33 q 368 -14 439 -14 q 242 10 297 -14 q 149 90 188 33 q 90 244 110 147 q 69 486 69 340 q 90 728 69 632 q 149 882 110 825 q 242 963 188 939 q 368 986 297 986 m 368 69 q 433 88 401 69 q 489 153 465 106 q 527 281 513 200 q 542 486 542 361 q 527 692 542 611 q 489 819 513 772 q 433 885 465 867 q 368 903 401 903 q 303 885 335 903 q 247 819 271 867 q 209 692 224 772 q 194 486 194 611 q 209 281 194 361 q 247 153 224 200 q 303 88 271 106 q 368 69 335 69 m 319 1056 l 368 1236 l 500 1236 l 403 1056 l 319 1056 z "},"Ô":{"ha":736,"x_min":69,"x_max":667,"o":"m 368 986 q 494 963 439 986 q 588 882 549 939 q 647 728 626 825 q 667 486 667 632 q 647 244 667 340 q 588 90 626 147 q 494 10 549 33 q 368 -14 439 -14 q 242 10 297 -14 q 149 90 188 33 q 90 244 110 147 q 69 486 69 340 q 90 728 69 632 q 149 882 110 825 q 242 963 188 939 q 368 986 297 986 m 368 69 q 433 88 401 69 q 489 153 465 106 q 527 281 513 200 q 542 486 542 361 q 527 692 542 611 q 489 819 513 772 q 433 885 465 867 q 368 903 401 903 q 303 885 335 903 q 247 819 271 867 q 209 692 224 772 q 194 486 194 611 q 209 281 194 361 q 247 153 224 200 q 303 88 271 106 q 368 69 335 69 m 201 1056 l 306 1236 l 438 1236 l 542 1056 l 458 1056 l 371 1158 l 285 1056 l 201 1056 z "},"Õ":{"ha":736,"x_min":69,"x_max":667,"o":"m 368 986 q 494 963 439 986 q 588 882 549 939 q 647 728 626 825 q 667 486 667 632 q 647 244 667 340 q 588 90 626 147 q 494 10 549 33 q 368 -14 439 -14 q 242 10 297 -14 q 149 90 188 33 q 90 244 110 147 q 69 486 69 340 q 90 728 69 632 q 149 882 110 825 q 242 963 188 939 q 368 986 297 986 m 368 69 q 433 88 401 69 q 489 153 465 106 q 527 281 513 200 q 542 486 542 361 q 527 692 542 611 q 489 819 513 772 q 433 885 465 867 q 368 903 401 903 q 303 885 335 903 q 247 819 271 867 q 209 692 224 772 q 194 486 194 611 q 209 281 194 361 q 247 153 224 200 q 303 88 271 106 q 368 69 335 69 m 458 1076 q 424 1139 458 1139 q 399 1126 411 1139 q 374 1097 388 1113 q 343 1069 361 1082 q 299 1056 325 1056 q 220 1089 246 1056 q 194 1201 194 1122 l 264 1201 q 299 1139 264 1139 q 323 1152 311 1139 q 348 1181 335 1165 q 379 1209 361 1196 q 424 1222 397 1222 q 502 1189 476 1222 q 528 1076 528 1156 l 458 1076 z "},"Ö":{"ha":736,"x_min":69,"x_max":667,"o":"m 368 986 q 494 963 439 986 q 588 882 549 939 q 647 728 626 825 q 667 486 667 632 q 647 244 667 340 q 588 90 626 147 q 494 10 549 33 q 368 -14 439 -14 q 242 10 297 -14 q 149 90 188 33 q 90 244 110 147 q 69 486 69 340 q 90 728 69 632 q 149 882 110 825 q 242 963 188 939 q 368 986 297 986 m 368 69 q 433 88 401 69 q 489 153 465 106 q 527 281 513 200 q 542 486 542 361 q 527 692 542 611 q 489 819 513 772 q 433 885 465 867 q 368 903 401 903 q 303 885 335 903 q 247 819 271 867 q 209 692 224 772 q 194 486 194 611 q 209 281 194 361 q 247 153 224 200 q 303 88 271 106 q 368 69 335 69 m 319 1222 l 319 1069 l 194 1069 l 194 1222 l 319 1222 m 542 1222 l 542 1069 l 417 1069 l 417 1222 l 542 1222 z "},"×":{"ha":556,"x_min":56,"x_max":500,"o":"m 424 681 l 500 604 l 354 458 l 500 313 l 424 236 l 278 382 l 132 236 l 56 313 l 201 458 l 56 604 l 132 681 l 278 535 l 424 681 z "},"Ø":{"ha":750,"x_min":42,"x_max":708,"o":"m 375 986 q 506 960 449 986 q 601 871 563 935 l 653 944 l 708 903 l 635 797 q 664 664 654 740 q 674 486 674 588 q 653 244 674 340 q 594 90 633 147 q 501 10 556 33 q 375 -14 446 -14 q 244 12 300 -14 q 149 101 188 38 l 97 28 l 42 69 l 115 175 q 86 308 96 232 q 76 486 76 385 q 97 728 76 632 q 156 882 117 825 q 249 963 194 939 q 375 986 304 986 m 201 486 q 203 392 201 435 q 211 313 206 349 l 519 754 q 457 871 496 839 q 375 903 418 903 q 310 885 342 903 q 254 819 278 867 q 216 692 231 772 q 201 486 201 611 m 375 69 q 440 88 408 69 q 496 153 472 106 q 534 281 519 200 q 549 486 549 361 q 546 581 549 538 q 539 660 543 624 l 229 217 q 292 101 253 132 q 375 69 331 69 z "},"Ù":{"ha":722,"x_min":83,"x_max":639,"o":"m 361 69 q 426 81 397 69 q 474 123 454 93 q 503 204 493 153 q 514 333 514 256 l 514 972 l 639 972 l 639 333 q 623 168 639 235 q 573 61 607 101 q 486 3 539 21 q 361 -14 433 -14 q 235 3 288 -14 q 149 61 183 21 q 99 168 115 101 q 83 333 83 235 l 83 972 l 208 972 l 208 333 q 219 204 208 256 q 249 123 229 153 q 297 81 268 93 q 361 69 325 69 m 326 1028 l 229 1208 l 361 1208 l 410 1028 l 326 1028 z "},"Ú":{"ha":722,"x_min":83,"x_max":639,"o":"m 361 69 q 426 81 397 69 q 474 123 454 93 q 503 204 493 153 q 514 333 514 256 l 514 972 l 639 972 l 639 333 q 623 168 639 235 q 573 61 607 101 q 486 3 539 21 q 361 -14 433 -14 q 235 3 288 -14 q 149 61 183 21 q 99 168 115 101 q 83 333 83 235 l 83 972 l 208 972 l 208 333 q 219 204 208 256 q 249 123 229 153 q 297 81 268 93 q 361 69 325 69 m 313 1028 l 361 1208 l 493 1208 l 396 1028 l 313 1028 z "},"Û":{"ha":722,"x_min":83,"x_max":639,"o":"m 361 69 q 426 81 397 69 q 474 123 454 93 q 503 204 493 153 q 514 333 514 256 l 514 972 l 639 972 l 639 333 q 623 168 639 235 q 573 61 607 101 q 486 3 539 21 q 361 -14 433 -14 q 235 3 288 -14 q 149 61 183 21 q 99 168 115 101 q 83 333 83 235 l 83 972 l 208 972 l 208 333 q 219 204 208 256 q 249 123 229 153 q 297 81 268 93 q 361 69 325 69 m 192 1028 l 296 1208 l 428 1208 l 532 1028 l 449 1028 l 361 1131 l 275 1028 l 192 1028 z "},"Ü":{"ha":722,"x_min":83,"x_max":639,"o":"m 361 69 q 426 81 397 69 q 474 123 454 93 q 503 204 493 153 q 514 333 514 256 l 514 972 l 639 972 l 639 333 q 623 168 639 235 q 573 61 607 101 q 486 3 539 21 q 361 -14 433 -14 q 235 3 288 -14 q 149 61 183 21 q 99 168 115 101 q 83 333 83 235 l 83 972 l 208 972 l 208 333 q 219 204 208 256 q 249 123 229 153 q 297 81 268 93 q 361 69 325 69 m 313 1194 l 313 1042 l 188 1042 l 188 1194 l 313 1194 m 535 1194 l 535 1042 l 410 1042 l 410 1194 l 535 1194 z "},"Ý":{"ha":625,"x_min":14,"x_max":611,"o":"m 264 1028 l 313 1208 l 444 1208 l 347 1028 l 264 1028 m 486 972 l 611 972 l 375 306 l 375 0 l 250 0 l 250 306 l 14 972 l 139 972 l 313 479 l 486 972 z "},"Þ":{"ha":694,"x_min":97,"x_max":639,"o":"m 222 875 q 538 767 438 864 q 639 486 639 669 q 538 206 639 303 q 222 97 438 108 l 222 -14 l 97 -14 l 97 986 l 222 986 l 222 875 m 222 188 q 514 486 514 197 q 442 706 514 633 q 222 785 369 779 l 222 188 z "},"ß":{"ha":736,"x_min":90,"x_max":688,"o":"m 458 507 q 475 458 458 479 q 517 418 492 438 q 573 378 543 399 q 628 332 603 358 q 671 271 654 306 q 688 188 688 236 q 672 89 688 128 q 627 27 657 50 q 553 -5 597 4 q 451 -14 508 -14 q 382 -6 419 -14 q 313 14 344 3 l 313 69 l 424 69 q 524 94 486 69 q 563 188 563 119 q 546 248 563 222 q 503 295 529 274 q 448 337 478 317 q 392 381 418 357 q 350 435 367 404 q 333 507 333 465 q 356 585 333 554 q 406 643 379 617 q 456 697 433 669 q 479 764 479 725 q 443 859 479 822 q 354 896 407 896 q 253 849 292 896 q 215 688 215 801 l 215 0 l 90 0 l 90 688 q 154 917 90 849 q 354 986 218 986 q 542 927 481 986 q 604 764 604 868 q 581 681 604 714 q 531 622 558 649 q 481 569 504 596 q 458 507 458 543 z "},"à":{"ha":625,"x_min":63,"x_max":535,"o":"m 299 778 l 201 958 l 333 958 l 382 778 l 299 778 m 410 340 l 313 340 q 224 313 260 340 q 188 208 188 286 q 197 140 188 167 q 224 97 207 113 q 263 76 240 82 q 313 69 286 69 q 367 78 339 69 q 410 97 394 86 l 410 340 m 271 -14 q 185 -5 224 -14 q 120 29 147 4 q 78 97 93 54 q 63 208 63 140 q 78 315 63 274 q 120 381 93 357 q 185 415 147 406 q 271 424 224 424 q 340 419 303 424 q 410 410 378 415 l 410 472 q 399 549 410 519 q 369 596 389 579 q 322 619 350 613 q 257 625 293 625 l 118 625 l 118 681 q 197 700 150 692 q 285 708 243 708 q 394 699 347 708 q 472 663 440 689 q 519 591 503 638 q 535 472 535 544 l 535 0 l 431 0 l 424 42 l 417 42 q 351 1 390 15 q 271 -14 313 -14 z "},"á":{"ha":625,"x_min":63,"x_max":535,"o":"m 271 778 l 319 958 l 451 958 l 354 778 l 271 778 m 410 340 l 313 340 q 224 313 260 340 q 188 208 188 286 q 197 140 188 167 q 224 97 207 113 q 263 76 240 82 q 313 69 286 69 q 367 78 339 69 q 410 97 394 86 l 410 340 m 271 -14 q 185 -5 224 -14 q 120 29 147 4 q 78 97 93 54 q 63 208 63 140 q 78 315 63 274 q 120 381 93 357 q 185 415 147 406 q 271 424 224 424 q 340 419 303 424 q 410 410 378 415 l 410 472 q 399 549 410 519 q 369 596 389 579 q 322 619 350 613 q 257 625 293 625 l 118 625 l 118 681 q 197 700 150 692 q 285 708 243 708 q 394 699 347 708 q 472 663 440 689 q 519 591 503 638 q 535 472 535 544 l 535 0 l 431 0 l 424 42 l 417 42 q 351 1 390 15 q 271 -14 313 -14 z "},"â":{"ha":625,"x_min":63,"x_max":535,"o":"m 153 764 l 257 944 l 389 944 l 493 764 l 410 764 l 322 867 l 236 764 l 153 764 m 410 340 l 313 340 q 224 313 260 340 q 188 208 188 286 q 197 140 188 167 q 224 97 207 113 q 263 76 240 82 q 313 69 286 69 q 367 78 339 69 q 410 97 394 86 l 410 340 m 271 -14 q 185 -5 224 -14 q 120 29 147 4 q 78 97 93 54 q 63 208 63 140 q 78 315 63 274 q 120 381 93 357 q 185 415 147 406 q 271 424 224 424 q 340 419 303 424 q 410 410 378 415 l 410 472 q 399 549 410 519 q 369 596 389 579 q 322 619 350 613 q 257 625 293 625 l 118 625 l 118 681 q 197 700 150 692 q 285 708 243 708 q 394 699 347 708 q 472 663 440 689 q 519 591 503 638 q 535 472 535 544 l 535 0 l 431 0 l 424 42 l 417 42 q 351 1 390 15 q 271 -14 313 -14 z "},"ã":{"ha":625,"x_min":63,"x_max":535,"o":"m 410 340 l 313 340 q 224 313 260 340 q 188 208 188 286 q 197 140 188 167 q 224 97 207 113 q 263 76 240 82 q 313 69 286 69 q 367 78 339 69 q 410 97 394 86 l 410 340 m 271 -14 q 185 -5 224 -14 q 120 29 147 4 q 78 97 93 54 q 63 208 63 140 q 78 315 63 274 q 120 381 93 357 q 185 415 147 406 q 271 424 224 424 q 340 419 303 424 q 410 410 378 415 l 410 472 q 399 549 410 519 q 369 596 389 579 q 322 619 350 613 q 257 625 293 625 l 118 625 l 118 681 q 197 700 150 692 q 285 708 243 708 q 394 699 347 708 q 472 663 440 689 q 519 591 503 638 q 535 472 535 544 l 535 0 l 431 0 l 424 42 l 417 42 q 351 1 390 15 q 271 -14 313 -14 m 417 806 q 382 868 417 868 q 358 855 369 868 q 333 826 346 842 q 301 798 319 811 q 257 785 283 785 q 178 818 204 785 q 153 931 153 851 l 222 931 q 257 868 222 868 q 281 881 269 868 q 306 910 293 894 q 338 938 319 925 q 382 951 356 951 q 460 918 435 951 q 486 806 486 885 l 417 806 z "},"ä":{"ha":625,"x_min":63,"x_max":535,"o":"m 271 944 l 271 792 l 146 792 l 146 944 l 271 944 m 493 944 l 493 792 l 368 792 l 368 944 l 493 944 m 410 340 l 313 340 q 224 313 260 340 q 188 208 188 286 q 197 140 188 167 q 224 97 207 113 q 263 76 240 82 q 313 69 286 69 q 367 78 339 69 q 410 97 394 86 l 410 340 m 271 -14 q 185 -5 224 -14 q 120 29 147 4 q 78 97 93 54 q 63 208 63 140 q 78 315 63 274 q 120 381 93 357 q 185 415 147 406 q 271 424 224 424 q 340 419 303 424 q 410 410 378 415 l 410 472 q 399 549 410 519 q 369 596 389 579 q 322 619 350 613 q 257 625 293 625 l 118 625 l 118 681 q 197 700 150 692 q 285 708 243 708 q 394 699 347 708 q 472 663 440 689 q 519 591 503 638 q 535 472 535 544 l 535 0 l 431 0 l 424 42 l 417 42 q 351 1 390 15 q 271 -14 313 -14 z "},"å":{"ha":625,"x_min":63,"x_max":535,"o":"m 410 340 l 313 340 q 224 313 260 340 q 188 208 188 286 q 197 140 188 167 q 224 97 207 113 q 263 76 240 82 q 313 69 286 69 q 367 78 339 69 q 410 97 394 86 l 410 340 m 271 -14 q 185 -5 224 -14 q 120 29 147 4 q 78 97 93 54 q 63 208 63 140 q 78 315 63 274 q 120 381 93 357 q 185 415 147 406 q 271 424 224 424 q 340 419 303 424 q 410 410 378 415 l 410 472 q 399 549 410 519 q 369 596 389 579 q 322 619 350 613 q 257 625 293 625 l 118 625 l 118 681 q 197 700 150 692 q 285 708 243 708 q 394 699 347 708 q 472 663 440 689 q 519 591 503 638 q 535 472 535 544 l 535 0 l 431 0 l 424 42 l 417 42 q 351 1 390 15 q 271 -14 313 -14 m 368 861 q 354 899 368 888 q 319 910 340 910 q 285 899 299 910 q 271 861 271 888 q 285 824 271 835 q 319 813 299 813 q 354 824 340 813 q 368 861 368 835 m 438 861 q 405 779 438 808 q 319 750 372 750 q 234 779 267 750 q 201 861 201 808 q 234 943 201 914 q 319 972 267 972 q 405 943 372 972 q 438 861 438 914 z "},"æ":{"ha":958,"x_min":63,"x_max":896,"o":"m 410 313 l 313 313 q 263 307 286 313 q 224 288 240 301 q 197 251 207 274 q 188 194 188 228 q 197 134 188 158 q 222 95 207 110 q 258 75 238 81 q 299 69 278 69 q 345 76 325 69 q 381 90 365 82 q 410 111 397 99 l 410 313 m 771 396 q 761 509 771 464 q 735 581 751 554 q 698 620 719 608 q 653 632 676 632 q 608 621 629 632 q 572 583 588 610 q 546 513 556 557 q 535 403 536 469 l 535 396 l 771 396 m 410 472 q 399 549 410 519 q 369 596 389 579 q 322 619 350 613 q 257 625 293 625 l 118 625 l 118 681 q 197 700 150 692 q 285 708 243 708 q 400 683 347 708 q 479 611 453 658 q 550 683 506 658 q 653 708 594 708 q 758 691 713 708 q 835 633 804 674 q 881 524 865 592 q 896 354 896 456 l 896 313 l 535 313 l 535 292 q 547 185 536 228 q 582 117 558 143 q 642 81 606 92 q 729 69 678 69 l 868 69 l 868 14 q 790 -6 836 3 q 701 -14 743 -14 q 567 8 618 -14 q 479 83 515 31 q 396 11 447 36 q 271 -14 344 -14 q 185 -5 224 -14 q 120 28 147 4 q 78 92 93 51 q 63 194 63 132 q 78 293 63 254 q 120 355 93 332 q 185 387 147 378 q 271 396 224 396 q 340 392 303 396 q 410 382 378 388 l 410 472 z "},"ç":{"ha":521,"x_min":63,"x_max":500,"o":"m 340 -35 q 428 -62 399 -35 q 458 -132 458 -90 q 426 -201 458 -174 q 326 -229 394 -229 q 284 -226 303 -229 q 251 -219 265 -224 q 222 -208 236 -214 l 222 -167 l 313 -167 q 356 -157 344 -167 q 368 -132 368 -147 q 326 -97 368 -97 l 250 -97 l 250 -6 q 166 26 201 3 q 108 92 131 50 q 74 197 85 135 q 63 347 63 260 q 78 521 63 451 q 126 632 94 590 q 206 691 158 674 q 319 708 254 708 q 408 700 361 708 q 486 681 454 692 l 486 625 l 347 625 q 278 613 308 625 q 228 569 249 600 q 198 484 208 538 q 188 347 188 431 q 198 210 188 264 q 230 124 208 156 q 284 81 251 93 q 361 69 317 69 l 500 69 l 500 14 q 422 -6 468 3 q 333 -14 375 -14 l 319 -14 l 319 -35 l 340 -35 z "},"è":{"ha":611,"x_min":63,"x_max":549,"o":"m 549 306 l 188 306 q 199 192 188 238 q 233 120 210 147 q 292 81 256 93 q 382 69 329 69 l 521 69 l 521 14 q 442 -6 489 3 q 354 -14 396 -14 q 221 3 276 -14 q 130 63 165 21 q 78 174 94 104 q 63 347 63 243 q 78 521 63 451 q 124 632 93 590 q 200 691 154 674 q 306 708 246 708 q 411 691 365 708 q 488 632 457 674 q 533 521 518 590 q 549 347 549 451 l 549 306 m 424 389 q 414 506 424 460 q 388 581 404 553 q 351 620 372 608 q 306 632 329 632 q 260 620 282 632 q 223 581 239 608 q 197 506 207 553 q 188 389 188 460 l 424 389 m 271 778 l 174 958 l 306 958 l 354 778 l 271 778 z "},"é":{"ha":611,"x_min":63,"x_max":549,"o":"m 549 306 l 188 306 q 199 192 188 238 q 233 120 210 147 q 292 81 256 93 q 382 69 329 69 l 521 69 l 521 14 q 442 -6 489 3 q 354 -14 396 -14 q 221 3 276 -14 q 130 63 165 21 q 78 174 94 104 q 63 347 63 243 q 78 521 63 451 q 124 632 93 590 q 200 691 154 674 q 306 708 246 708 q 411 691 365 708 q 488 632 457 674 q 533 521 518 590 q 549 347 549 451 l 549 306 m 424 389 q 414 506 424 460 q 388 581 404 553 q 351 620 372 608 q 306 632 329 632 q 260 620 282 632 q 223 581 239 608 q 197 506 207 553 q 188 389 188 460 l 424 389 m 257 778 l 306 958 l 438 958 l 340 778 l 257 778 z "},"ê":{"ha":611,"x_min":63,"x_max":549,"o":"m 549 306 l 188 306 q 199 192 188 238 q 233 120 210 147 q 292 81 256 93 q 382 69 329 69 l 521 69 l 521 14 q 442 -6 489 3 q 354 -14 396 -14 q 221 3 276 -14 q 130 63 165 21 q 78 174 94 104 q 63 347 63 243 q 78 521 63 451 q 124 632 93 590 q 200 691 154 674 q 306 708 246 708 q 411 691 365 708 q 488 632 457 674 q 533 521 518 590 q 549 347 549 451 l 549 306 m 424 389 q 414 506 424 460 q 388 581 404 553 q 351 620 372 608 q 306 632 329 632 q 260 620 282 632 q 223 581 239 608 q 197 506 207 553 q 188 389 188 460 l 424 389 m 139 764 l 243 944 l 375 944 l 479 764 l 396 764 l 308 867 l 222 764 l 139 764 z "},"ë":{"ha":611,"x_min":63,"x_max":549,"o":"m 549 306 l 188 306 q 199 192 188 238 q 233 120 210 147 q 292 81 256 93 q 382 69 329 69 l 521 69 l 521 14 q 442 -6 489 3 q 354 -14 396 -14 q 221 3 276 -14 q 130 63 165 21 q 78 174 94 104 q 63 347 63 243 q 78 521 63 451 q 124 632 93 590 q 200 691 154 674 q 306 708 246 708 q 411 691 365 708 q 488 632 457 674 q 533 521 518 590 q 549 347 549 451 l 549 306 m 424 389 q 414 506 424 460 q 388 581 404 553 q 351 620 372 608 q 306 632 329 632 q 260 620 282 632 q 223 581 239 608 q 197 506 207 553 q 188 389 188 460 l 424 389 m 257 944 l 257 792 l 132 792 l 132 944 l 257 944 m 479 944 l 479 792 l 354 792 l 354 944 l 479 944 z "},"ì":{"ha":319,"x_min":21,"x_max":222,"o":"m 222 0 l 97 0 l 97 694 l 222 694 l 222 0 m 118 778 l 21 958 l 153 958 l 201 778 l 118 778 z "},"í":{"ha":319,"x_min":97,"x_max":299,"o":"m 97 694 l 222 694 l 222 0 l 97 0 l 97 694 m 118 778 l 167 958 l 299 958 l 201 778 l 118 778 z "},"î":{"ha":299,"x_min":-21,"x_max":319,"o":"m 88 694 l 213 694 l 213 0 l 88 0 l 88 694 m -21 764 l 83 944 l 215 944 l 319 764 l 236 764 l 149 867 l 63 764 l -21 764 z "},"ï":{"ha":319,"x_min":-14,"x_max":333,"o":"m 222 0 l 97 0 l 97 694 l 222 694 l 222 0 m 111 944 l 111 792 l -14 792 l -14 944 l 111 944 m 333 944 l 333 792 l 208 792 l 208 944 l 333 944 z "},"ð":{"ha":632,"x_min":56,"x_max":569,"o":"m 463 838 q 569 500 569 718 l 569 299 q 553 153 569 213 q 506 56 538 93 q 426 3 474 19 q 313 -14 378 -14 q 199 3 247 -14 q 119 56 151 19 q 72 153 88 93 q 56 299 56 213 q 71 444 56 385 q 117 541 86 504 q 193 594 147 578 q 299 611 239 611 q 379 601 346 611 q 444 576 413 592 q 396 757 444 681 l 326 674 l 264 722 l 344 818 q 104 931 258 893 l 111 986 q 404 890 293 969 l 479 979 l 542 931 l 463 838 m 444 500 q 401 519 429 511 q 340 528 372 528 q 272 517 301 528 q 222 478 242 506 q 191 408 201 451 q 181 299 181 364 q 190 185 181 231 q 218 113 200 140 q 260 74 236 86 q 313 63 283 63 q 365 74 342 63 q 407 113 389 86 q 435 185 425 140 q 444 299 444 231 l 444 500 z "},"ñ":{"ha":660,"x_min":90,"x_max":569,"o":"m 215 0 l 90 0 l 90 694 l 194 694 l 201 653 l 208 653 q 274 694 235 679 q 354 708 313 708 q 444 699 404 708 q 511 667 483 690 q 554 603 539 643 q 569 500 569 563 l 569 0 l 444 0 l 444 500 q 435 560 444 536 q 407 599 425 585 q 365 619 389 614 q 313 625 342 625 q 258 617 286 625 q 215 597 231 608 l 215 0 m 431 806 q 396 868 431 868 q 372 855 383 868 q 347 826 360 842 q 315 798 333 811 q 271 785 297 785 q 192 818 218 785 q 167 931 167 851 l 236 931 q 271 868 236 868 q 295 881 283 868 q 320 910 307 894 q 351 938 333 925 q 396 951 369 951 q 474 918 449 951 q 500 806 500 885 l 431 806 z "},"ò":{"ha":653,"x_min":69,"x_max":583,"o":"m 458 347 q 447 485 458 431 q 418 573 436 540 q 376 619 400 606 q 326 632 353 632 q 276 619 300 632 q 235 573 253 606 q 206 485 217 540 q 194 347 194 431 q 206 209 194 264 q 235 122 217 154 q 276 76 253 89 q 326 63 300 63 q 376 76 353 63 q 418 122 400 89 q 447 209 436 154 q 458 347 458 264 m 583 347 q 567 176 583 246 q 517 65 550 107 q 437 4 485 22 q 326 -14 389 -14 q 216 4 264 -14 q 135 65 168 22 q 86 176 103 107 q 69 347 69 246 q 86 518 69 449 q 135 630 103 588 q 216 690 168 672 q 326 708 264 708 q 437 690 389 708 q 517 630 485 672 q 567 518 550 588 q 583 347 583 449 m 292 778 l 194 958 l 326 958 l 375 778 l 292 778 z "},"ó":{"ha":653,"x_min":69,"x_max":583,"o":"m 194 347 q 206 209 194 264 q 235 122 217 154 q 276 76 253 89 q 326 63 300 63 q 376 76 353 63 q 418 122 400 89 q 447 209 436 154 q 458 347 458 264 q 447 485 458 431 q 418 573 436 540 q 376 619 400 606 q 326 632 353 632 q 276 619 300 632 q 235 573 253 606 q 206 485 217 540 q 194 347 194 431 m 69 347 q 86 518 69 449 q 135 630 103 588 q 216 690 168 672 q 326 708 264 708 q 437 690 389 708 q 517 630 485 672 q 567 518 550 588 q 583 347 583 449 q 567 176 583 246 q 517 65 550 107 q 437 4 485 22 q 326 -14 389 -14 q 216 4 264 -14 q 135 65 168 22 q 86 176 103 107 q 69 347 69 246 m 278 778 l 326 958 l 458 958 l 361 778 l 278 778 z "},"ô":{"ha":639,"x_min":63,"x_max":576,"o":"m 188 347 q 199 209 188 264 q 228 122 210 154 q 269 76 246 89 q 319 63 293 63 q 369 76 346 63 q 411 122 393 89 q 440 209 429 154 q 451 347 451 264 q 440 485 451 431 q 411 573 429 540 q 369 619 393 606 q 319 632 346 632 q 269 619 293 632 q 228 573 246 606 q 199 485 210 540 q 188 347 188 431 m 63 347 q 79 518 63 449 q 128 630 96 588 q 209 690 161 672 q 319 708 257 708 q 430 690 382 708 q 510 630 478 672 q 560 518 543 588 q 576 347 576 449 q 560 176 576 246 q 510 65 543 107 q 430 4 478 22 q 319 -14 382 -14 q 209 4 257 -14 q 128 65 161 22 q 79 176 96 107 q 63 347 63 246 m 150 764 l 254 944 l 386 944 l 490 764 l 407 764 l 319 867 l 233 764 l 150 764 z "},"õ":{"ha":653,"x_min":69,"x_max":583,"o":"m 458 347 q 447 485 458 431 q 418 573 436 540 q 376 619 400 606 q 326 632 353 632 q 276 619 300 632 q 235 573 253 606 q 206 485 217 540 q 194 347 194 431 q 206 209 194 264 q 235 122 217 154 q 276 76 253 89 q 326 63 300 63 q 376 76 353 63 q 418 122 400 89 q 447 209 436 154 q 458 347 458 264 m 583 347 q 567 176 583 246 q 517 65 550 107 q 437 4 485 22 q 326 -14 389 -14 q 216 4 264 -14 q 135 65 168 22 q 86 176 103 107 q 69 347 69 246 q 86 518 69 449 q 135 630 103 588 q 216 690 168 672 q 326 708 264 708 q 437 690 389 708 q 517 630 485 672 q 567 518 550 588 q 583 347 583 449 m 424 806 q 389 868 424 868 q 365 855 376 868 q 340 826 353 842 q 308 798 326 811 q 264 785 290 785 q 185 818 211 785 q 160 931 160 851 l 229 931 q 264 868 229 868 q 288 881 276 868 q 313 910 300 894 q 344 938 326 925 q 389 951 363 951 q 467 918 442 951 q 493 806 493 885 l 424 806 z "},"ö":{"ha":653,"x_min":69,"x_max":583,"o":"m 458 347 q 447 485 458 431 q 418 573 436 540 q 376 619 400 606 q 326 632 353 632 q 276 619 300 632 q 235 573 253 606 q 206 485 217 540 q 194 347 194 431 q 206 209 194 264 q 235 122 217 154 q 276 76 253 89 q 326 63 300 63 q 376 76 353 63 q 418 122 400 89 q 447 209 436 154 q 458 347 458 264 m 583 347 q 567 176 583 246 q 517 65 550 107 q 437 4 485 22 q 326 -14 389 -14 q 216 4 264 -14 q 135 65 168 22 q 86 176 103 107 q 69 347 69 246 q 86 518 69 449 q 135 630 103 588 q 216 690 168 672 q 326 708 264 708 q 437 690 389 708 q 517 630 485 672 q 567 518 550 588 q 583 347 583 449 m 278 944 l 278 792 l 153 792 l 153 944 l 278 944 m 500 944 l 500 792 l 375 792 l 375 944 l 500 944 z "},"÷":{"ha":597,"x_min":42,"x_max":556,"o":"m 42 472 l 556 472 l 556 361 l 42 361 l 42 472 m 354 257 l 354 132 l 243 132 l 243 257 l 354 257 m 354 701 l 354 576 l 243 576 l 243 701 l 354 701 z "},"ø":{"ha":667,"x_min":42,"x_max":625,"o":"m 590 347 q 574 176 590 246 q 524 65 557 107 q 444 4 492 22 q 333 -14 396 -14 q 217 7 267 -14 q 135 76 167 28 l 90 28 l 42 83 l 101 149 q 76 347 76 225 q 93 518 76 449 q 142 630 110 588 q 223 690 175 672 q 333 708 271 708 q 450 688 400 708 q 532 618 500 667 l 576 667 l 625 611 l 565 546 q 583 458 576 507 q 590 347 590 410 m 465 347 q 461 432 465 394 l 221 171 q 269 85 239 108 q 333 63 299 63 q 383 76 360 63 q 425 122 407 89 q 454 209 443 154 q 465 347 465 264 m 201 347 q 202 302 201 324 q 204 261 203 281 l 444 524 q 397 608 426 585 q 333 632 368 632 q 283 619 307 632 q 242 573 260 606 q 213 485 224 540 q 201 347 201 431 z "},"ù":{"ha":660,"x_min":90,"x_max":569,"o":"m 444 694 l 569 694 l 569 0 l 465 0 l 458 42 l 451 42 q 386 1 425 15 q 306 -14 347 -14 q 216 -5 256 -14 q 149 28 176 4 q 106 92 121 51 q 90 194 90 132 l 90 694 l 215 694 l 215 194 q 225 134 215 158 q 253 95 235 110 q 294 75 271 81 q 347 69 318 69 q 401 78 374 69 q 444 97 429 86 l 444 694 m 299 778 l 201 958 l 333 958 l 382 778 l 299 778 z "},"ú":{"ha":660,"x_min":90,"x_max":569,"o":"m 444 694 l 569 694 l 569 0 l 465 0 l 458 42 l 451 42 q 386 1 425 15 q 306 -14 347 -14 q 216 -5 256 -14 q 149 28 176 4 q 106 92 121 51 q 90 194 90 132 l 90 694 l 215 694 l 215 194 q 225 134 215 158 q 253 95 235 110 q 294 75 271 81 q 347 69 318 69 q 401 78 374 69 q 444 97 429 86 l 444 694 m 285 778 l 333 958 l 465 958 l 368 778 l 285 778 z "},"û":{"ha":660,"x_min":90,"x_max":569,"o":"m 444 694 l 569 694 l 569 0 l 465 0 l 458 42 l 451 42 q 386 1 425 15 q 306 -14 347 -14 q 216 -5 256 -14 q 149 28 176 4 q 106 92 121 51 q 90 194 90 132 l 90 694 l 215 694 l 215 194 q 225 134 215 158 q 253 95 235 110 q 294 75 271 81 q 347 69 318 69 q 401 78 374 69 q 444 97 429 86 l 444 694 m 163 764 l 267 944 l 399 944 l 503 764 l 419 764 l 332 867 l 246 764 l 163 764 z "},"ü":{"ha":660,"x_min":90,"x_max":569,"o":"m 444 694 l 569 694 l 569 0 l 465 0 l 458 42 l 451 42 q 386 1 425 15 q 306 -14 347 -14 q 216 -5 256 -14 q 149 28 176 4 q 106 92 121 51 q 90 194 90 132 l 90 694 l 215 694 l 215 194 q 225 134 215 158 q 253 95 235 110 q 294 75 271 81 q 347 69 318 69 q 401 78 374 69 q 444 97 429 86 l 444 694 m 285 944 l 285 792 l 160 792 l 160 944 l 285 944 m 507 944 l 507 792 l 382 792 l 382 944 l 507 944 z "},"ý":{"ha":660,"x_min":90,"x_max":569,"o":"m 306 -14 q 216 -5 256 -14 q 149 28 176 4 q 106 92 121 51 q 90 194 90 132 l 90 694 l 215 694 l 215 194 q 225 134 215 158 q 253 95 235 110 q 294 75 271 81 q 347 69 318 69 q 401 78 374 69 q 444 97 429 86 l 444 694 l 569 694 l 569 56 q 553 -110 569 -43 q 503 -217 538 -176 q 417 -274 469 -257 q 292 -292 364 -292 q 203 -283 250 -292 q 125 -264 157 -275 l 125 -208 l 264 -208 q 345 -197 311 -208 q 401 -159 379 -186 q 434 -88 424 -132 q 444 21 444 -44 q 380 -4 413 6 q 306 -14 347 -14 m 285 778 l 333 958 l 465 958 l 368 778 l 285 778 z "},"þ":{"ha":653,"x_min":97,"x_max":590,"o":"m 222 972 l 222 674 q 287 699 254 689 q 361 708 319 708 q 458 691 415 708 q 531 632 501 674 q 575 521 560 590 q 590 347 590 451 q 575 174 590 243 q 531 63 560 104 q 458 3 501 21 q 361 -14 415 -14 q 287 -4 319 -14 q 222 21 254 6 l 222 -278 l 97 -278 l 97 972 l 222 972 m 465 347 q 455 484 465 431 q 426 569 444 538 q 380 613 407 600 q 319 625 353 625 q 265 617 293 625 q 222 597 238 608 l 222 97 q 265 78 238 86 q 319 69 293 69 q 380 81 353 69 q 426 124 407 93 q 455 210 444 156 q 465 347 465 264 z "},"ÿ":{"ha":660,"x_min":90,"x_max":569,"o":"m 306 -14 q 216 -5 256 -14 q 149 28 176 4 q 106 92 121 51 q 90 194 90 132 l 90 694 l 215 694 l 215 194 q 225 134 215 158 q 253 95 235 110 q 294 75 271 81 q 347 69 318 69 q 401 78 374 69 q 444 97 429 86 l 444 694 l 569 694 l 569 56 q 553 -110 569 -43 q 503 -217 538 -176 q 417 -274 469 -257 q 292 -292 364 -292 q 203 -283 250 -292 q 125 -264 157 -275 l 125 -208 l 264 -208 q 345 -197 311 -208 q 401 -159 379 -186 q 434 -88 424 -132 q 444 21 444 -44 q 380 -4 413 6 q 306 -14 347 -14 m 285 944 l 285 792 l 160 792 l 160 944 l 285 944 m 507 944 l 507 792 l 382 792 l 382 944 l 507 944 z "},"Ā":{"ha":708,"x_min":28,"x_max":681,"o":"m 215 250 l 153 0 l 28 0 l 264 972 l 444 972 l 681 0 l 556 0 l 493 250 l 215 250 m 357 833 l 351 833 l 236 347 l 472 347 l 357 833 m 194 1153 l 514 1153 l 514 1069 l 194 1069 l 194 1153 z "},"ā":{"ha":625,"x_min":63,"x_max":535,"o":"m 167 889 l 486 889 l 486 806 l 167 806 l 167 889 m 410 340 l 313 340 q 224 313 260 340 q 188 208 188 286 q 197 140 188 167 q 224 97 207 113 q 263 76 240 82 q 313 69 286 69 q 367 78 339 69 q 410 97 394 86 l 410 340 m 271 -14 q 185 -5 224 -14 q 120 29 147 4 q 78 97 93 54 q 63 208 63 140 q 78 315 63 274 q 120 381 93 357 q 185 415 147 406 q 271 424 224 424 q 340 419 303 424 q 410 410 378 415 l 410 472 q 399 549 410 519 q 369 596 389 579 q 322 619 350 613 q 257 625 293 625 l 118 625 l 118 681 q 197 700 150 692 q 285 708 243 708 q 394 699 347 708 q 472 663 440 689 q 519 591 503 638 q 535 472 535 544 l 535 0 l 431 0 l 424 42 l 417 42 q 351 1 390 15 q 271 -14 313 -14 z "},"Ą":{"ha":708,"x_min":28,"x_max":757,"o":"m 493 250 l 215 250 l 153 0 l 28 0 l 264 972 l 444 972 l 681 0 l 625 0 l 625 -62 q 643 -127 625 -110 q 708 -144 661 -144 l 757 -144 l 757 -201 q 728 -212 743 -207 q 695 -219 714 -217 q 653 -222 676 -222 q 565 -193 594 -222 q 535 -111 535 -164 q 540 -67 535 -87 q 551 -32 544 -47 q 569 0 558 -15 l 556 0 l 493 250 m 357 833 l 351 833 l 236 347 l 472 347 l 357 833 z "},"ą":{"ha":625,"x_min":63,"x_max":632,"o":"m 271 -14 q 185 -5 224 -14 q 120 29 147 4 q 78 97 93 54 q 63 208 63 140 q 78 315 63 274 q 120 381 93 357 q 185 415 147 406 q 271 424 224 424 q 340 419 303 424 q 410 410 378 415 l 410 472 q 399 549 410 519 q 369 596 389 579 q 322 619 350 613 q 257 625 293 625 l 118 625 l 118 681 q 197 700 150 692 q 285 708 243 708 q 394 699 347 708 q 472 663 440 689 q 519 591 503 638 q 535 472 535 544 l 535 0 l 500 0 l 500 -62 q 518 -127 500 -110 q 583 -144 536 -144 l 632 -144 l 632 -201 q 603 -212 618 -207 q 570 -219 589 -217 q 528 -222 551 -222 q 440 -193 469 -222 q 410 -111 410 -164 q 415 -67 410 -87 q 426 -32 419 -47 q 444 0 433 -15 l 431 0 l 424 42 l 417 42 q 351 1 390 15 q 271 -14 313 -14 m 410 340 l 313 340 q 224 313 260 340 q 188 208 188 286 q 197 140 188 167 q 224 97 207 113 q 263 76 240 82 q 313 69 286 69 q 367 78 339 69 q 410 97 394 86 l 410 340 z "},"Ć":{"ha":604,"x_min":69,"x_max":583,"o":"m 375 -14 q 245 10 301 -14 q 149 90 189 33 q 90 244 110 147 q 69 486 69 340 q 90 728 69 632 q 147 882 110 825 q 239 963 185 939 q 361 986 293 986 q 481 978 424 986 q 569 958 538 969 l 569 896 l 389 896 q 312 878 347 896 q 250 813 276 860 q 209 688 224 767 q 194 486 194 608 q 210 285 194 364 q 252 159 225 206 q 317 94 279 113 q 403 76 356 76 l 583 76 l 583 14 q 494 -6 551 3 q 375 -14 438 -14 m 319 1042 l 368 1222 l 500 1222 l 403 1042 l 319 1042 z "},"ć":{"ha":521,"x_min":63,"x_max":500,"o":"m 347 625 q 278 613 308 625 q 228 569 249 600 q 198 484 208 538 q 188 347 188 431 q 198 210 188 264 q 230 124 208 156 q 284 81 251 93 q 361 69 317 69 l 500 69 l 500 14 q 422 -6 468 3 q 333 -14 375 -14 q 212 3 263 -14 q 128 63 161 21 q 78 174 94 104 q 63 347 63 243 q 78 521 63 451 q 126 632 94 590 q 206 691 158 674 q 319 708 254 708 q 408 700 361 708 q 486 681 454 692 l 486 625 l 347 625 m 264 778 l 313 958 l 444 958 l 347 778 l 264 778 z "},"Č":{"ha":604,"x_min":69,"x_max":583,"o":"m 375 -14 q 245 10 301 -14 q 149 90 189 33 q 90 244 110 147 q 69 486 69 340 q 90 728 69 632 q 147 882 110 825 q 239 963 185 939 q 361 986 293 986 q 481 978 424 986 q 569 958 538 969 l 569 896 l 389 896 q 312 878 347 896 q 250 813 276 860 q 209 688 224 767 q 194 486 194 608 q 210 285 194 364 q 252 159 225 206 q 317 94 279 113 q 403 76 356 76 l 583 76 l 583 14 q 494 -6 551 3 q 375 -14 438 -14 m 268 1236 l 354 1133 l 442 1236 l 525 1236 l 421 1056 l 289 1056 l 185 1236 l 268 1236 z "},"č":{"ha":521,"x_min":63,"x_max":500,"o":"m 347 625 q 278 613 308 625 q 228 569 249 600 q 198 484 208 538 q 188 347 188 431 q 198 210 188 264 q 230 124 208 156 q 284 81 251 93 q 361 69 317 69 l 500 69 l 500 14 q 422 -6 468 3 q 333 -14 375 -14 q 212 3 263 -14 q 128 63 161 21 q 78 174 94 104 q 63 347 63 243 q 78 521 63 451 q 126 632 94 590 q 206 691 158 674 q 319 708 254 708 q 408 700 361 708 q 486 681 454 692 l 486 625 l 347 625 m 215 958 l 301 856 l 389 958 l 472 958 l 368 778 l 236 778 l 132 958 l 215 958 z "},"Ē":{"ha":625,"x_min":97,"x_max":569,"o":"m 222 97 l 569 97 l 569 0 l 97 0 l 97 972 l 569 972 l 569 875 l 222 875 l 222 556 l 528 556 l 528 458 l 222 458 l 222 97 m 172 1153 l 492 1153 l 492 1069 l 172 1069 l 172 1153 z "},"ē":{"ha":611,"x_min":63,"x_max":549,"o":"m 549 306 l 188 306 q 199 192 188 238 q 233 120 210 147 q 292 81 256 93 q 382 69 329 69 l 521 69 l 521 14 q 442 -6 489 3 q 354 -14 396 -14 q 221 3 276 -14 q 130 63 165 21 q 78 174 94 104 q 63 347 63 243 q 78 521 63 451 q 124 632 93 590 q 200 691 154 674 q 306 708 246 708 q 411 691 365 708 q 488 632 457 674 q 533 521 518 590 q 549 347 549 451 l 549 306 m 424 389 q 414 506 424 460 q 388 581 404 553 q 351 620 372 608 q 306 632 329 632 q 260 620 282 632 q 223 581 239 608 q 197 506 207 553 q 188 389 188 460 l 424 389 m 153 889 l 472 889 l 472 806 l 153 806 l 153 889 z "},"Ė":{"ha":625,"x_min":97,"x_max":569,"o":"m 222 97 l 569 97 l 569 0 l 97 0 l 97 972 l 569 972 l 569 875 l 222 875 l 222 556 l 528 556 l 528 458 l 222 458 l 222 97 m 403 1222 l 403 1069 l 278 1069 l 278 1222 l 403 1222 z "},"ė":{"ha":611,"x_min":63,"x_max":549,"o":"m 549 306 l 188 306 q 199 192 188 238 q 233 120 210 147 q 292 81 256 93 q 382 69 329 69 l 521 69 l 521 14 q 442 -6 489 3 q 354 -14 396 -14 q 221 3 276 -14 q 130 63 165 21 q 78 174 94 104 q 63 347 63 243 q 78 521 63 451 q 124 632 93 590 q 200 691 154 674 q 306 708 246 708 q 411 691 365 708 q 488 632 457 674 q 533 521 518 590 q 549 347 549 451 l 549 306 m 424 389 q 414 506 424 460 q 388 581 404 553 q 351 620 372 608 q 306 632 329 632 q 260 620 282 632 q 223 581 239 608 q 197 506 207 553 q 188 389 188 460 l 424 389 m 368 944 l 368 792 l 243 792 l 243 944 l 368 944 z "},"Ę":{"ha":625,"x_min":97,"x_max":639,"o":"m 97 0 l 97 972 l 569 972 l 569 875 l 222 875 l 222 556 l 528 556 l 528 458 l 222 458 l 222 97 l 569 97 l 569 0 l 507 0 l 507 -62 q 525 -127 507 -110 q 590 -144 543 -144 l 639 -144 l 639 -201 q 610 -212 625 -207 q 577 -219 596 -217 q 535 -222 558 -222 q 447 -193 476 -222 q 417 -111 417 -164 q 422 -67 417 -87 q 433 -32 426 -47 q 451 0 440 -15 l 97 0 z "},"ę":{"ha":611,"x_min":63,"x_max":549,"o":"m 549 306 l 188 306 q 199 192 188 238 q 233 120 210 147 q 292 81 256 93 q 382 69 329 69 l 521 69 l 521 14 q 442 -6 489 3 q 354 -14 396 -14 l 354 -62 q 372 -127 354 -110 q 438 -144 390 -144 l 486 -144 l 486 -201 q 457 -212 472 -207 q 424 -219 443 -217 q 382 -222 406 -222 q 294 -193 324 -222 q 264 -111 264 -164 q 274 -50 264 -76 q 292 -10 285 -24 q 188 17 231 -4 q 117 81 144 39 q 76 189 89 124 q 63 347 63 254 q 78 521 63 451 q 124 632 93 590 q 200 691 154 674 q 306 708 246 708 q 411 691 365 708 q 488 632 457 674 q 533 521 518 590 q 549 347 549 451 l 549 306 m 424 389 q 414 506 424 460 q 388 581 404 553 q 351 620 372 608 q 306 632 329 632 q 260 620 282 632 q 223 581 239 608 q 197 506 207 553 q 188 389 188 460 l 424 389 z "},"Ğ":{"ha":701,"x_min":69,"x_max":611,"o":"m 611 14 q 522 -6 579 3 q 403 -14 465 -14 q 257 10 319 -14 q 153 90 194 33 q 90 244 111 147 q 69 486 69 340 q 90 728 69 632 q 149 882 110 825 q 245 963 189 939 q 375 986 301 986 q 494 978 438 986 q 583 958 551 969 l 583 896 l 403 896 q 317 878 356 896 q 252 813 279 860 q 210 688 225 767 q 194 486 194 608 q 210 285 194 364 q 255 159 225 206 q 329 94 285 113 q 431 76 374 76 l 486 76 l 486 528 l 611 528 l 611 14 m 375 1153 q 458 1174 422 1153 q 514 1215 493 1194 l 569 1160 q 493 1084 543 1113 q 375 1056 443 1056 q 257 1084 307 1056 q 181 1160 207 1113 l 236 1215 q 292 1174 257 1194 q 375 1153 328 1153 z "},"ğ":{"ha":646,"x_min":63,"x_max":556,"o":"m 431 21 q 366 -4 399 6 q 292 -14 333 -14 q 194 3 238 -14 q 122 63 151 21 q 78 174 93 104 q 63 347 63 243 q 78 521 63 451 q 128 632 94 590 q 212 691 161 674 q 333 708 263 708 q 449 698 396 708 q 556 667 503 688 l 556 56 q 540 -110 556 -43 q 490 -217 524 -176 q 403 -274 456 -257 q 278 -292 350 -292 q 190 -283 236 -292 q 111 -264 143 -275 l 111 -208 l 250 -208 q 331 -197 297 -208 q 388 -159 365 -186 q 420 -88 410 -132 q 431 21 431 -44 m 431 625 l 333 625 q 273 613 300 625 q 227 569 246 600 q 198 484 208 538 q 188 347 188 431 q 198 210 188 264 q 227 124 208 156 q 273 81 246 93 q 333 69 300 69 q 388 78 360 69 q 431 97 415 86 l 431 625 m 319 889 q 396 906 361 889 q 451 944 431 924 l 507 889 q 434 819 481 847 q 319 792 388 792 q 205 819 251 792 q 132 889 158 847 l 188 944 q 243 906 208 924 q 319 889 278 889 z "},"Ģ":{"ha":694,"x_min":69,"x_max":611,"o":"m 319 -97 l 444 -97 l 403 -306 l 319 -306 l 319 -97 m 611 14 q 522 -6 579 3 q 403 -14 465 -14 q 257 10 319 -14 q 153 90 194 33 q 90 244 111 147 q 69 486 69 340 q 90 728 69 632 q 149 882 110 825 q 245 963 189 939 q 375 986 301 986 q 494 978 438 986 q 583 958 551 969 l 583 896 l 403 896 q 317 878 356 896 q 252 813 279 860 q 210 688 225 767 q 194 486 194 608 q 210 285 194 364 q 255 159 225 206 q 329 94 285 113 q 431 76 374 76 l 486 76 l 486 528 l 611 528 l 611 14 z "},"ģ":{"ha":646,"x_min":63,"x_max":556,"o":"m 389 792 l 264 792 l 306 1000 l 389 1000 l 389 792 m 431 21 q 366 -4 399 6 q 292 -14 333 -14 q 194 3 238 -14 q 122 63 151 21 q 78 174 93 104 q 63 347 63 243 q 78 521 63 451 q 128 632 94 590 q 212 691 161 674 q 333 708 263 708 q 449 698 396 708 q 556 667 503 688 l 556 56 q 540 -110 556 -43 q 490 -217 524 -176 q 403 -274 456 -257 q 278 -292 350 -292 q 190 -283 236 -292 q 111 -264 143 -275 l 111 -208 l 250 -208 q 331 -197 297 -208 q 388 -159 365 -186 q 420 -88 410 -132 q 431 21 431 -44 m 431 625 l 333 625 q 273 613 300 625 q 227 569 246 600 q 198 484 208 538 q 188 347 188 431 q 198 210 188 264 q 227 124 208 156 q 273 81 246 93 q 333 69 300 69 q 388 78 360 69 q 431 97 415 86 l 431 625 z "},"ħ":{"ha":681,"x_min":28,"x_max":590,"o":"m 236 757 l 236 632 q 305 657 268 647 q 389 667 342 667 q 470 658 433 667 q 534 625 507 649 q 576 561 561 601 q 590 458 590 521 l 590 0 l 465 0 l 465 458 q 456 519 465 494 q 428 558 446 543 q 386 578 410 572 q 333 583 363 583 q 279 575 307 583 q 236 556 251 567 l 236 0 l 111 0 l 111 757 l 28 757 l 28 847 l 111 847 l 111 972 l 236 972 l 236 847 l 431 847 l 431 785 q 352 765 399 774 q 264 757 306 757 l 236 757 z "},"Ĩ":{"ha":319,"x_min":-7,"x_max":326,"o":"m 222 972 l 222 0 l 97 0 l 97 972 l 222 972 m 257 1063 q 222 1125 257 1125 q 198 1112 210 1125 q 173 1083 186 1099 q 142 1055 160 1068 q 97 1042 124 1042 q 19 1075 44 1042 q -7 1188 -7 1108 l 63 1188 q 97 1125 63 1125 q 122 1138 110 1125 q 147 1167 133 1151 q 178 1195 160 1182 q 222 1208 196 1208 q 301 1175 275 1208 q 326 1063 326 1142 l 257 1063 z "},"ĩ":{"ha":319,"x_min":-14,"x_max":319,"o":"m 222 0 l 97 0 l 97 694 l 222 694 l 222 0 m 250 806 q 215 868 250 868 q 191 855 203 868 q 166 826 179 842 q 135 798 153 811 q 90 785 117 785 q 12 818 38 785 q -14 931 -14 851 l 56 931 q 90 868 56 868 q 115 881 103 868 q 140 910 126 894 q 171 938 153 925 q 215 951 189 951 q 294 918 268 951 q 319 806 319 885 l 250 806 z "},"Ī":{"ha":306,"x_min":-7,"x_max":313,"o":"m 215 972 l 215 0 l 90 0 l 90 972 l 215 972 m -7 1139 l 313 1139 l 313 1056 l -7 1056 l -7 1139 z "},"ī":{"ha":319,"x_min":0,"x_max":319,"o":"m 222 0 l 97 0 l 97 694 l 222 694 l 222 0 m 0 889 l 319 889 l 319 806 l 0 806 l 0 889 z "},"Į":{"ha":306,"x_min":69,"x_max":292,"o":"m 90 972 l 215 972 l 215 0 l 160 0 l 160 -62 q 178 -127 160 -110 q 243 -144 196 -144 l 292 -144 l 292 -201 q 263 -212 278 -207 q 230 -219 249 -217 q 188 -222 211 -222 q 99 -193 129 -222 q 69 -111 69 -164 q 74 -67 69 -87 q 86 -32 79 -47 q 104 0 93 -15 l 90 0 l 90 972 z "},"į":{"ha":306,"x_min":69,"x_max":292,"o":"m 90 694 l 215 694 l 215 0 l 160 0 l 160 -62 q 178 -127 160 -110 q 243 -144 196 -144 l 292 -144 l 292 -201 q 263 -212 278 -207 q 230 -219 249 -217 q 188 -222 211 -222 q 99 -193 129 -222 q 69 -111 69 -164 q 74 -67 69 -87 q 86 -32 79 -47 q 104 0 93 -15 l 90 0 l 90 694 m 215 944 l 215 778 l 90 778 l 90 944 l 215 944 z "},"İ":{"ha":319,"x_min":97,"x_max":222,"o":"m 222 972 l 222 0 l 97 0 l 97 972 l 222 972 m 222 1222 l 222 1069 l 97 1069 l 97 1222 l 222 1222 z "},"ı":{"ha":319,"x_min":97,"x_max":222,"o":"m 222 0 l 97 0 l 97 694 l 222 694 l 222 0 z "},"ĳ":{"ha":639,"x_min":97,"x_max":542,"o":"m 542 -56 q 527 -175 542 -129 q 486 -247 513 -221 q 424 -282 460 -272 q 347 -292 389 -292 q 282 -283 315 -292 q 222 -264 249 -275 l 222 -208 l 319 -208 q 352 -202 335 -208 q 384 -179 369 -196 q 408 -133 399 -162 q 417 -56 417 -103 l 417 604 l 222 604 l 222 0 l 97 0 l 97 694 l 542 694 l 542 -56 m 542 944 l 542 792 l 417 792 l 417 944 l 542 944 m 222 944 l 222 792 l 97 792 l 97 944 l 222 944 z "},"Ĵ":{"ha":490,"x_min":0,"x_max":511,"o":"m 125 76 q 190 88 161 76 q 238 129 218 100 q 267 208 257 158 q 278 333 278 258 l 278 972 l 403 972 l 403 333 q 387 168 403 235 q 337 61 371 101 q 250 3 303 21 q 125 -14 197 -14 q 60 -6 93 -14 q 0 14 26 3 l 0 76 l 125 76 m 171 1028 l 275 1208 l 407 1208 l 511 1028 l 428 1028 l 340 1131 l 254 1028 l 171 1028 z "},"ĵ":{"ha":333,"x_min":-83,"x_max":340,"o":"m 236 -56 q 222 -175 236 -129 q 181 -247 207 -221 q 119 -282 154 -272 q 42 -292 83 -292 q -24 -283 10 -292 q -83 -264 -57 -275 l -83 -208 l 14 -208 q 47 -202 29 -208 q 78 -179 64 -196 q 102 -133 93 -162 q 111 -56 111 -103 l 111 694 l 236 694 l 236 -56 m 0 764 l 104 944 l 236 944 l 340 764 l 257 764 l 169 867 l 83 764 l 0 764 z "},"Ķ":{"ha":681,"x_min":97,"x_max":667,"o":"m 292 -69 l 417 -69 l 375 -278 l 292 -278 l 292 -69 m 667 0 l 521 0 l 222 486 l 222 0 l 97 0 l 97 972 l 222 972 l 222 500 l 493 972 l 639 972 l 354 493 l 667 0 z "},"ķ":{"ha":604,"x_min":97,"x_max":590,"o":"m 222 361 l 222 0 l 97 0 l 97 972 l 222 972 l 222 375 l 424 694 l 563 694 l 347 368 l 590 0 l 451 0 l 222 361 m 264 -83 l 389 -83 l 347 -292 l 264 -292 l 264 -83 z "},"ĸ":{"ha":604,"x_min":97,"x_max":590,"o":"m 222 361 l 222 0 l 97 0 l 97 694 l 222 694 l 222 375 l 424 694 l 563 694 l 347 368 l 590 0 l 451 0 l 222 361 z "},"Ļ":{"ha":583,"x_min":97,"x_max":569,"o":"m 278 -83 l 403 -83 l 361 -292 l 278 -292 l 278 -83 m 222 97 l 569 97 l 569 0 l 97 0 l 97 972 l 222 972 l 222 97 z "},"ļ":{"ha":319,"x_min":97,"x_max":222,"o":"m 97 -83 l 222 -83 l 181 -292 l 97 -292 l 97 -83 m 97 972 l 222 972 l 222 0 l 97 0 l 97 972 z "},"ŀ":{"ha":500,"x_min":97,"x_max":431,"o":"m 97 972 l 222 972 l 222 0 l 97 0 l 97 972 m 431 563 l 431 410 l 306 410 l 306 563 l 431 563 z "},"Ł":{"ha":590,"x_min":-14,"x_max":576,"o":"m 229 597 l 313 653 l 361 583 l 229 493 l 229 97 l 576 97 l 576 0 l 104 0 l 104 403 l 35 354 l -14 424 l 104 507 l 104 972 l 229 972 l 229 597 z "},"ł":{"ha":375,"x_min":0,"x_max":375,"o":"m 118 0 l 118 403 l 49 354 l 0 424 l 118 507 l 118 972 l 243 972 l 243 597 l 326 653 l 375 583 l 243 493 l 243 0 l 118 0 z "},"Ń":{"ha":750,"x_min":97,"x_max":653,"o":"m 333 1042 l 382 1222 l 514 1222 l 417 1042 l 333 1042 m 222 0 l 97 0 l 97 972 l 236 972 l 521 285 l 528 285 l 528 972 l 653 972 l 653 0 l 514 0 l 229 688 l 222 688 l 222 0 z "},"ń":{"ha":660,"x_min":90,"x_max":569,"o":"m 215 0 l 90 0 l 90 694 l 194 694 l 201 653 l 208 653 q 274 694 235 679 q 354 708 313 708 q 444 699 404 708 q 511 667 483 690 q 554 603 539 643 q 569 500 569 563 l 569 0 l 444 0 l 444 500 q 435 560 444 536 q 407 599 425 585 q 365 619 389 614 q 313 625 342 625 q 258 617 286 625 q 215 597 231 608 l 215 0 m 285 778 l 333 958 l 465 958 l 368 778 l 285 778 z "},"Ņ":{"ha":750,"x_min":97,"x_max":653,"o":"m 306 -69 l 431 -69 l 389 -278 l 306 -278 l 306 -69 m 222 0 l 97 0 l 97 972 l 236 972 l 521 285 l 528 285 l 528 972 l 653 972 l 653 0 l 514 0 l 229 688 l 222 688 l 222 0 z "},"ņ":{"ha":660,"x_min":90,"x_max":569,"o":"m 271 -83 l 396 -83 l 354 -292 l 271 -292 l 271 -83 m 215 0 l 90 0 l 90 694 l 194 694 l 201 653 l 208 653 q 274 694 235 679 q 354 708 313 708 q 444 699 404 708 q 511 667 483 690 q 554 603 539 643 q 569 500 569 563 l 569 0 l 444 0 l 444 500 q 435 560 444 536 q 407 599 425 585 q 365 619 389 614 q 313 625 342 625 q 258 617 286 625 q 215 597 231 608 l 215 0 z "},"Ō":{"ha":736,"x_min":69,"x_max":667,"o":"m 368 986 q 494 963 439 986 q 588 882 549 939 q 647 728 626 825 q 667 486 667 632 q 647 244 667 340 q 588 90 626 147 q 494 10 549 33 q 368 -14 439 -14 q 242 10 297 -14 q 149 90 188 33 q 90 244 110 147 q 69 486 69 340 q 90 728 69 632 q 149 882 110 825 q 242 963 188 939 q 368 986 297 986 m 368 69 q 433 88 401 69 q 489 153 465 106 q 527 281 513 200 q 542 486 542 361 q 527 692 542 611 q 489 819 513 772 q 433 885 465 867 q 368 903 401 903 q 303 885 335 903 q 247 819 271 867 q 209 692 224 772 q 194 486 194 611 q 209 281 194 361 q 247 153 224 200 q 303 88 271 106 q 368 69 335 69 m 208 1153 l 528 1153 l 528 1069 l 208 1069 l 208 1153 z "},"ō":{"ha":653,"x_min":69,"x_max":583,"o":"m 194 347 q 206 209 194 264 q 235 122 217 154 q 276 76 253 89 q 326 63 300 63 q 376 76 353 63 q 418 122 400 89 q 447 209 436 154 q 458 347 458 264 q 447 485 458 431 q 418 573 436 540 q 376 619 400 606 q 326 632 353 632 q 276 619 300 632 q 235 573 253 606 q 206 485 217 540 q 194 347 194 431 m 69 347 q 86 518 69 449 q 135 630 103 588 q 216 690 168 672 q 326 708 264 708 q 437 690 389 708 q 517 630 485 672 q 567 518 550 588 q 583 347 583 449 q 567 176 583 246 q 517 65 550 107 q 437 4 485 22 q 326 -14 389 -14 q 216 4 264 -14 q 135 65 168 22 q 86 176 103 107 q 69 347 69 246 m 167 889 l 486 889 l 486 806 l 167 806 l 167 889 z "},"Œ":{"ha":1028,"x_min":56,"x_max":972,"o":"m 972 972 l 972 875 l 625 875 l 625 556 l 931 556 l 931 458 l 625 458 l 625 97 l 972 97 l 972 0 l 458 0 q 284 27 360 0 q 158 113 208 54 q 81 263 107 171 q 56 486 56 356 q 81 709 56 617 q 158 860 107 801 q 284 945 208 918 q 458 972 360 972 l 972 972 m 500 875 l 458 875 q 339 856 390 875 q 252 790 288 836 q 199 670 217 744 q 181 486 181 596 q 199 302 181 376 q 252 182 217 228 q 339 117 288 136 q 458 97 390 97 l 500 97 l 500 875 z "},"œ":{"ha":1000,"x_min":63,"x_max":938,"o":"m 743 -14 q 660 -7 696 -14 q 597 13 625 0 q 547 47 568 26 q 507 97 525 68 q 428 15 479 44 q 319 -14 378 -14 q 209 4 257 -14 q 128 65 161 22 q 79 176 96 107 q 63 347 63 246 q 79 518 63 449 q 128 630 96 588 q 209 690 161 672 q 319 708 257 708 q 429 679 378 708 q 507 597 481 650 q 585 679 533 650 q 694 708 636 708 q 800 691 754 708 q 876 632 846 674 q 922 521 907 590 q 938 347 938 451 l 938 306 l 576 306 q 588 192 576 238 q 622 120 599 147 q 681 81 644 93 q 771 69 718 69 l 910 69 l 910 14 q 831 -6 878 3 q 743 -14 785 -14 m 813 389 q 803 506 813 460 q 777 581 793 553 q 740 620 761 608 q 694 632 718 632 q 649 620 671 632 q 612 581 628 608 q 586 506 596 553 q 576 389 576 460 l 813 389 m 319 632 q 269 619 293 632 q 228 573 246 606 q 199 485 210 540 q 188 347 188 431 q 199 209 188 264 q 228 122 210 154 q 269 76 246 89 q 319 63 293 63 q 369 76 346 63 q 411 122 393 89 q 440 209 429 154 q 451 347 451 264 q 440 485 451 431 q 411 573 429 540 q 369 619 393 606 q 319 632 346 632 z "},"Ŕ":{"ha":701,"x_min":97,"x_max":653,"o":"m 625 653 q 616 531 625 582 q 590 442 607 479 q 546 383 572 406 q 486 347 519 360 l 653 0 l 514 0 l 361 319 l 222 319 l 222 0 l 97 0 l 97 958 q 203 980 150 974 q 319 986 257 986 q 461 969 403 986 q 556 913 519 953 q 608 810 592 874 q 625 653 625 746 m 319 417 q 401 428 367 417 q 457 467 435 440 q 490 540 479 494 q 500 653 500 585 q 490 770 500 724 q 457 844 479 817 q 401 884 435 872 q 319 896 367 896 l 222 896 l 222 417 l 319 417 m 278 1042 l 326 1222 l 458 1222 l 361 1042 l 278 1042 z "},"Ŗ":{"ha":701,"x_min":97,"x_max":653,"o":"m 306 -69 l 431 -69 l 389 -278 l 306 -278 l 306 -69 m 625 653 q 616 531 625 582 q 590 442 607 479 q 546 383 572 406 q 486 347 519 360 l 653 0 l 514 0 l 361 319 l 222 319 l 222 0 l 97 0 l 97 958 q 203 980 150 974 q 319 986 257 986 q 461 969 403 986 q 556 913 519 953 q 608 810 592 874 q 625 653 625 746 m 319 417 q 401 428 367 417 q 457 467 435 440 q 490 540 479 494 q 500 653 500 585 q 490 770 500 724 q 457 844 479 817 q 401 884 435 872 q 319 896 367 896 l 222 896 l 222 417 l 319 417 z "},"ŗ":{"ha":465,"x_min":90,"x_max":451,"o":"m 90 -83 l 215 -83 l 174 -292 l 90 -292 l 90 -83 m 215 0 l 90 0 l 90 694 l 196 694 l 203 639 l 210 639 q 277 677 235 660 q 382 694 319 694 l 451 694 l 451 590 l 313 590 q 261 584 286 590 q 215 563 236 578 l 215 0 z "},"Ř":{"ha":701,"x_min":97,"x_max":653,"o":"m 625 653 q 616 531 625 582 q 590 442 607 479 q 546 383 572 406 q 486 347 519 360 l 653 0 l 514 0 l 361 319 l 222 319 l 222 0 l 97 0 l 97 958 q 203 980 150 974 q 319 986 257 986 q 461 969 403 986 q 556 913 519 953 q 608 810 592 874 q 625 653 625 746 m 319 417 q 401 428 367 417 q 457 467 435 440 q 490 540 479 494 q 500 653 500 585 q 490 770 500 724 q 457 844 479 817 q 401 884 435 872 q 319 896 367 896 l 222 896 l 222 417 l 319 417 m 233 1222 l 319 1119 l 407 1222 l 490 1222 l 386 1042 l 254 1042 l 150 1222 l 233 1222 z "},"ř":{"ha":465,"x_min":90,"x_max":451,"o":"m 215 0 l 90 0 l 90 694 l 196 694 l 203 639 l 210 639 q 277 677 235 660 q 382 694 319 694 l 451 694 l 451 590 l 313 590 q 261 584 286 590 q 215 563 236 578 l 215 0 m 181 944 l 267 842 l 354 944 l 438 944 l 333 764 l 201 764 l 97 944 l 181 944 z "},"Ś":{"ha":618,"x_min":49,"x_max":569,"o":"m 49 736 q 113 924 49 863 q 313 986 176 986 q 432 978 375 986 q 521 958 489 969 l 521 896 l 340 896 q 174 736 174 896 q 203 635 174 672 q 276 572 232 597 q 372 524 321 546 q 467 470 422 503 q 540 386 511 438 q 569 250 569 335 q 553 133 569 182 q 499 51 536 83 q 403 2 463 18 q 257 -14 343 -14 q 138 -6 194 -14 q 49 14 81 3 l 49 76 l 229 76 q 397 119 349 76 q 444 250 444 161 q 415 346 444 311 q 342 405 386 381 q 247 451 297 429 q 151 507 196 474 q 78 594 107 540 q 49 736 49 647 m 264 1056 l 313 1236 l 444 1236 l 347 1056 l 264 1056 z "},"ś":{"ha":549,"x_min":49,"x_max":500,"o":"m 229 778 l 278 958 l 410 958 l 313 778 l 229 778 m 174 528 q 198 462 174 486 q 258 419 222 438 q 337 385 294 401 q 415 344 379 369 q 476 281 451 319 q 500 181 500 243 q 484 86 500 124 q 434 26 468 49 q 347 -5 400 4 q 222 -14 294 -14 q 134 -6 181 -14 q 56 14 88 3 l 56 69 l 194 69 q 332 94 289 69 q 375 181 375 118 q 351 247 375 222 q 290 289 326 271 q 212 323 254 307 q 133 364 169 339 q 73 427 97 389 q 49 528 49 465 q 111 670 49 632 q 299 708 174 708 q 387 700 340 708 q 465 681 433 692 l 465 625 l 326 625 q 213 603 253 625 q 174 528 174 581 z "},"Ş":{"ha":618,"x_min":49,"x_max":569,"o":"m 347 -35 q 435 -62 406 -35 q 465 -132 465 -90 q 433 -201 465 -174 q 333 -229 401 -229 q 291 -226 310 -229 q 258 -219 272 -224 q 229 -208 243 -214 l 229 -167 l 319 -167 q 363 -157 351 -167 q 375 -132 375 -147 q 333 -97 375 -97 l 257 -97 l 257 -14 q 138 -6 194 -14 q 49 14 81 3 l 49 76 l 229 76 q 397 119 349 76 q 444 250 444 161 q 415 346 444 311 q 342 405 386 381 q 247 451 297 429 q 151 507 196 474 q 78 594 107 540 q 49 736 49 647 q 113 924 49 863 q 313 986 176 986 q 432 978 375 986 q 521 958 489 969 l 521 896 l 340 896 q 174 736 174 896 q 203 635 174 672 q 276 572 232 597 q 372 524 321 546 q 467 470 422 503 q 540 386 511 438 q 569 250 569 335 q 514 65 569 129 q 326 -10 458 1 l 326 -35 l 347 -35 z "},"ş":{"ha":549,"x_min":49,"x_max":500,"o":"m 319 -35 q 408 -62 378 -35 q 438 -132 438 -90 q 406 -201 438 -174 q 306 -229 374 -229 q 263 -226 282 -229 q 231 -219 244 -224 q 201 -208 215 -214 l 201 -167 l 292 -167 q 335 -157 324 -167 q 347 -132 347 -147 q 306 -97 347 -97 l 229 -97 l 229 -14 l 222 -14 q 134 -6 181 -14 q 56 14 88 3 l 56 69 l 194 69 q 332 94 289 69 q 375 181 375 118 q 351 247 375 222 q 290 289 326 271 q 212 323 254 307 q 133 364 169 339 q 73 427 97 389 q 49 528 49 465 q 111 670 49 632 q 299 708 174 708 q 387 700 340 708 q 465 681 433 692 l 465 625 l 326 625 q 213 603 253 625 q 174 528 174 581 q 198 462 174 486 q 258 419 222 438 q 337 385 294 401 q 415 344 379 369 q 476 281 451 319 q 500 181 500 243 q 452 40 500 82 q 299 -11 404 -3 l 299 -35 l 319 -35 z "},"Š":{"ha":618,"x_min":49,"x_max":569,"o":"m 49 736 q 113 924 49 863 q 313 986 176 986 q 432 978 375 986 q 521 958 489 969 l 521 896 l 340 896 q 174 736 174 896 q 203 635 174 672 q 276 572 232 597 q 372 524 321 546 q 467 470 422 503 q 540 386 511 438 q 569 250 569 335 q 553 133 569 182 q 499 51 536 83 q 403 2 463 18 q 257 -14 343 -14 q 138 -6 194 -14 q 49 14 81 3 l 49 76 l 229 76 q 397 119 349 76 q 444 250 444 161 q 415 346 444 311 q 342 405 386 381 q 247 451 297 429 q 151 507 196 474 q 78 594 107 540 q 49 736 49 647 m 213 1236 l 299 1133 l 386 1236 l 469 1236 l 365 1056 l 233 1056 l 129 1236 l 213 1236 z "},"š":{"ha":549,"x_min":49,"x_max":500,"o":"m 178 958 l 264 856 l 351 958 l 435 958 l 331 778 l 199 778 l 94 958 l 178 958 m 174 528 q 198 462 174 486 q 258 419 222 438 q 337 385 294 401 q 415 344 379 369 q 476 281 451 319 q 500 181 500 243 q 484 86 500 124 q 434 26 468 49 q 347 -5 400 4 q 222 -14 294 -14 q 134 -6 181 -14 q 56 14 88 3 l 56 69 l 194 69 q 332 94 289 69 q 375 181 375 118 q 351 247 375 222 q 290 289 326 271 q 212 323 254 307 q 133 364 169 339 q 73 427 97 389 q 49 528 49 465 q 111 670 49 632 q 299 708 174 708 q 387 700 340 708 q 465 681 433 692 l 465 625 l 326 625 q 213 603 253 625 q 174 528 174 581 z "},"Ū":{"ha":722,"x_min":83,"x_max":639,"o":"m 361 69 q 426 81 397 69 q 474 123 454 93 q 503 204 493 153 q 514 333 514 256 l 514 972 l 639 972 l 639 333 q 623 168 639 235 q 573 61 607 101 q 486 3 539 21 q 361 -14 433 -14 q 235 3 288 -14 q 149 61 183 21 q 99 168 115 101 q 83 333 83 235 l 83 972 l 208 972 l 208 333 q 219 204 208 256 q 249 123 229 153 q 297 81 268 93 q 361 69 325 69 m 201 1153 l 521 1153 l 521 1069 l 201 1069 l 201 1153 z "},"ū":{"ha":660,"x_min":90,"x_max":569,"o":"m 444 694 l 569 694 l 569 0 l 465 0 l 458 42 l 451 42 q 386 1 425 15 q 306 -14 347 -14 q 216 -5 256 -14 q 149 28 176 4 q 106 92 121 51 q 90 194 90 132 l 90 694 l 215 694 l 215 194 q 225 134 215 158 q 253 95 235 110 q 294 75 271 81 q 347 69 318 69 q 401 78 374 69 q 444 97 429 86 l 444 694 m 174 875 l 493 875 l 493 792 l 174 792 l 174 875 z "},"Ų":{"ha":722,"x_min":83,"x_max":639,"o":"m 389 -62 q 407 -127 389 -110 q 472 -144 425 -144 l 521 -144 l 521 -201 q 492 -212 507 -207 q 459 -219 478 -217 q 417 -222 440 -222 q 328 -193 358 -222 q 299 -111 299 -164 q 308 -52 299 -78 q 325 -12 318 -26 q 217 11 263 -8 q 141 71 171 31 q 97 176 111 111 q 83 333 83 240 l 83 972 l 208 972 l 208 333 q 219 204 208 256 q 249 123 229 153 q 297 81 268 93 q 361 69 325 69 q 426 81 397 69 q 474 123 454 93 q 503 204 493 153 q 514 333 514 256 l 514 972 l 639 972 l 639 333 q 624 174 639 239 q 579 69 610 110 q 501 9 549 28 q 389 -12 454 -10 l 389 -62 z "},"ų":{"ha":667,"x_min":90,"x_max":667,"o":"m 465 0 l 458 42 l 451 42 q 386 1 425 15 q 306 -14 347 -14 q 216 -5 256 -14 q 149 28 176 4 q 106 92 121 51 q 90 194 90 132 l 90 694 l 215 694 l 215 194 q 225 134 215 158 q 253 95 235 110 q 294 75 271 81 q 347 69 318 69 q 401 78 374 69 q 444 97 429 86 l 444 694 l 569 694 l 569 0 l 535 0 l 535 -62 q 553 -127 535 -110 q 618 -144 571 -144 l 667 -144 l 667 -201 q 638 -212 653 -207 q 605 -219 624 -217 q 563 -222 586 -222 q 474 -193 504 -222 q 444 -111 444 -164 q 449 -67 444 -87 q 461 -32 454 -47 q 479 0 468 -15 l 465 0 z "},"Ÿ":{"ha":625,"x_min":14,"x_max":611,"o":"m 264 1222 l 264 1069 l 139 1069 l 139 1222 l 264 1222 m 486 1222 l 486 1069 l 361 1069 l 361 1222 l 486 1222 m 486 972 l 611 972 l 375 306 l 375 0 l 250 0 l 250 306 l 14 972 l 139 972 l 313 479 l 486 972 z "},"Ź":{"ha":563,"x_min":28,"x_max":535,"o":"m 174 97 l 528 97 l 528 0 l 28 0 l 28 90 l 389 875 l 35 875 l 35 972 l 535 972 l 535 882 l 174 97 m 236 1042 l 285 1222 l 417 1222 l 319 1042 l 236 1042 z "},"ź":{"ha":514,"x_min":28,"x_max":486,"o":"m 486 611 l 175 90 l 479 90 l 479 0 l 28 0 l 28 83 l 340 604 l 42 604 l 42 694 l 486 694 l 486 611 m 208 778 l 257 958 l 389 958 l 292 778 l 208 778 z "},"Ż":{"ha":563,"x_min":28,"x_max":535,"o":"m 174 97 l 528 97 l 528 0 l 28 0 l 28 90 l 389 875 l 35 875 l 35 972 l 535 972 l 535 882 l 174 97 m 347 1222 l 347 1069 l 222 1069 l 222 1222 l 347 1222 z "},"ż":{"ha":514,"x_min":28,"x_max":486,"o":"m 486 611 l 175 90 l 479 90 l 479 0 l 28 0 l 28 83 l 340 604 l 42 604 l 42 694 l 486 694 l 486 611 m 333 944 l 333 792 l 208 792 l 208 944 l 333 944 z "},"Ž":{"ha":563,"x_min":28,"x_max":535,"o":"m 174 97 l 528 97 l 528 0 l 28 0 l 28 90 l 389 875 l 35 875 l 35 972 l 535 972 l 535 882 l 174 97 m 213 1236 l 299 1133 l 386 1236 l 469 1236 l 365 1056 l 233 1056 l 129 1236 l 213 1236 z "},"ž":{"ha":514,"x_min":28,"x_max":486,"o":"m 486 611 l 175 90 l 479 90 l 479 0 l 28 0 l 28 83 l 340 604 l 42 604 l 42 694 l 486 694 l 486 611 m 185 958 l 271 856 l 358 958 l 442 958 l 338 778 l 206 778 l 101 958 l 185 958 z "},"ƒ":{"ha":458,"x_min":-97,"x_max":472,"o":"m 125 736 q 140 855 125 808 q 181 927 154 901 q 242 963 207 953 q 319 972 278 972 q 356 970 335 972 q 398 964 376 968 q 440 955 419 960 q 472 944 460 950 l 472 889 l 347 889 q 315 883 332 889 q 283 860 297 876 q 259 813 268 843 q 250 736 250 783 l 250 681 l 444 681 l 444 618 q 366 599 413 607 q 278 590 319 590 l 250 590 l 250 -56 q 235 -175 250 -129 q 194 -247 221 -221 q 133 -282 168 -272 q 56 -292 97 -292 q 19 -290 40 -292 q -23 -283 -1 -287 q -65 -274 -44 -279 q -97 -264 -85 -269 l -97 -208 l 28 -208 q 60 -202 43 -208 q 92 -179 78 -196 q 116 -133 107 -162 q 125 -56 125 -103 l 125 590 l 42 590 l 42 681 l 125 681 l 125 736 z "},"ˆ":{"ha":396,"x_min":28,"x_max":368,"o":"m 28 764 l 132 944 l 264 944 l 368 764 l 285 764 l 197 867 l 111 764 l 28 764 z "},"ˇ":{"ha":396,"x_min":28,"x_max":368,"o":"m 111 958 l 197 856 l 285 958 l 368 958 l 264 778 l 132 778 l 28 958 l 111 958 z "},"˙":{"ha":181,"x_min":28,"x_max":153,"o":"m 153 944 l 153 792 l 28 792 l 28 944 l 153 944 z "},"˛":{"ha":278,"x_min":28,"x_max":250,"o":"m 118 0 l 118 -62 q 136 -127 118 -110 q 201 -144 154 -144 l 250 -144 l 250 -201 q 221 -212 236 -207 q 188 -219 207 -217 q 146 -222 169 -222 q 58 -193 88 -222 q 28 -111 28 -164 q 33 -67 28 -87 q 44 -32 38 -47 q 63 0 51 -15 l 118 0 z "},"˜":{"ha":389,"x_min":28,"x_max":361,"o":"m 292 806 q 257 868 292 868 q 234 855 244 868 q 211 826 224 842 q 182 798 199 811 q 139 785 165 785 q 54 818 81 785 q 28 931 28 851 l 97 931 q 132 868 97 868 q 155 881 144 868 q 178 910 165 894 q 207 938 190 925 q 250 951 224 951 q 335 918 308 951 q 361 806 361 885 l 292 806 z "},"Ё":{"ha":625,"x_min":97,"x_max":569,"o":"m 222 97 l 569 97 l 569 0 l 97 0 l 97 972 l 569 972 l 569 875 l 222 875 l 222 556 l 528 556 l 528 458 l 222 458 l 222 97 m 278 1222 l 278 1069 l 153 1069 l 153 1222 l 278 1222 m 500 1222 l 500 1069 l 375 1069 l 375 1222 l 500 1222 z "},"Ђ":{"ha":771,"x_min":0,"x_max":708,"o":"m 583 340 q 540 472 583 429 q 396 514 496 514 l 299 514 l 299 0 l 174 0 l 174 875 l 0 875 l 0 972 l 500 972 l 500 875 l 299 875 l 299 597 q 367 607 325 603 q 451 611 410 611 q 645 547 582 611 q 708 340 708 482 l 708 222 q 658 42 708 97 q 514 -14 607 -14 q 465 -8 493 -14 q 417 14 438 -1 l 417 69 l 486 69 q 556 104 528 69 q 583 222 583 139 l 583 340 z "},"Ѓ":{"ha":569,"x_min":97,"x_max":542,"o":"m 97 972 l 542 972 l 542 875 l 222 875 l 222 0 l 97 0 l 97 972 m 264 1042 l 313 1222 l 444 1222 l 347 1042 l 264 1042 z "},"Є":{"ha":604,"x_min":69,"x_max":583,"o":"m 486 451 l 194 451 q 213 269 197 342 q 254 154 228 197 q 318 94 281 111 q 403 76 356 76 l 583 76 l 583 14 q 494 -6 551 3 q 375 -14 438 -14 q 245 10 301 -14 q 149 90 189 33 q 90 244 110 147 q 69 486 69 340 q 90 728 69 632 q 147 882 110 825 q 239 963 185 939 q 361 986 293 986 q 481 978 424 986 q 569 958 538 969 l 569 896 l 389 896 q 315 878 350 896 q 255 821 281 861 q 213 714 229 781 q 194 549 197 647 l 486 549 l 486 451 z "},"Ѕ":{"ha":618,"x_min":49,"x_max":569,"o":"m 49 736 q 113 924 49 863 q 313 986 176 986 q 432 978 375 986 q 521 958 489 969 l 521 896 l 340 896 q 174 736 174 896 q 203 635 174 672 q 276 572 232 597 q 372 524 321 546 q 467 470 422 503 q 540 386 511 438 q 569 250 569 335 q 553 133 569 182 q 499 51 536 83 q 403 2 463 18 q 257 -14 343 -14 q 138 -6 194 -14 q 49 14 81 3 l 49 76 l 229 76 q 397 119 349 76 q 444 250 444 161 q 415 346 444 311 q 342 405 386 381 q 247 451 297 429 q 151 507 196 474 q 78 594 107 540 q 49 736 49 647 z "},"І":{"ha":319,"x_min":97,"x_max":222,"o":"m 222 972 l 222 0 l 97 0 l 97 972 l 222 972 z "},"Ї":{"ha":319,"x_min":-14,"x_max":333,"o":"m 222 972 l 222 0 l 97 0 l 97 972 l 222 972 m 111 1222 l 111 1069 l -14 1069 l -14 1222 l 111 1222 m 333 1222 l 333 1069 l 208 1069 l 208 1222 l 333 1222 z "},"Ј":{"ha":486,"x_min":0,"x_max":403,"o":"m 125 76 q 190 88 161 76 q 238 129 218 100 q 267 208 257 158 q 278 333 278 258 l 278 972 l 403 972 l 403 333 q 387 168 403 235 q 337 61 371 101 q 250 3 303 21 q 125 -14 197 -14 q 60 -6 93 -14 q 0 14 26 3 l 0 76 l 125 76 z "},"Љ":{"ha":1097,"x_min":0,"x_max":1042,"o":"m 778 590 q 977 521 913 590 q 1042 285 1042 451 q 1025 147 1042 204 q 972 55 1008 90 q 878 3 936 19 q 736 -14 819 -14 q 620 -8 674 -14 q 514 14 567 -1 l 514 875 l 294 875 l 264 292 q 244 150 260 208 q 203 56 228 92 q 148 3 179 19 q 83 -14 117 -14 q 24 -7 49 -14 q 0 0 10 -4 l 0 63 q 53 74 29 63 q 94 112 76 85 q 124 183 113 139 q 139 292 136 226 l 174 972 l 639 972 l 639 576 q 706 586 665 582 q 778 590 746 590 m 639 493 l 639 76 l 736 76 q 874 123 831 76 q 917 285 917 169 q 874 447 917 400 q 736 493 831 493 l 639 493 z "},"Њ":{"ha":1097,"x_min":97,"x_max":1042,"o":"m 778 563 q 978 495 914 563 q 1042 271 1042 428 q 1025 142 1042 196 q 972 53 1008 88 q 878 2 936 18 q 736 -14 819 -14 q 620 -8 674 -14 q 515 13 567 -3 l 514 0 l 514 465 l 222 465 l 222 0 l 97 0 l 97 972 l 222 972 l 222 563 l 514 563 l 514 972 l 639 972 l 639 549 q 706 558 665 554 q 778 563 746 563 m 639 465 l 639 76 l 736 76 q 874 122 831 76 q 917 271 917 167 q 874 420 917 375 q 736 465 831 465 l 639 465 z "},"Ћ":{"ha":778,"x_min":0,"x_max":708,"o":"m 451 611 q 645 547 582 611 q 708 340 708 482 l 708 0 l 583 0 l 583 340 q 540 472 583 429 q 396 514 496 514 l 299 514 l 299 0 l 174 0 l 174 875 l 0 875 l 0 972 l 500 972 l 500 875 l 299 875 l 299 597 q 367 607 325 603 q 451 611 410 611 z "},"Ќ":{"ha":688,"x_min":97,"x_max":681,"o":"m 306 1028 l 354 1208 l 486 1208 l 389 1028 l 306 1028 m 396 504 q 444 486 422 497 q 483 456 465 475 q 513 406 500 436 q 535 333 526 376 l 569 153 q 602 90 576 117 q 681 63 628 63 l 681 0 q 657 -7 671 -4 q 597 -14 632 -14 q 494 28 535 -14 q 438 153 453 69 l 403 333 q 353 433 389 407 q 271 458 318 458 l 222 458 l 222 0 l 97 0 l 97 972 l 222 972 l 222 556 l 271 556 q 339 582 307 556 q 389 681 371 608 l 424 819 q 583 986 465 986 q 617 984 601 986 q 643 979 632 982 q 667 972 657 975 l 667 910 q 590 885 614 910 q 556 819 567 861 l 521 681 q 498 608 510 638 q 471 558 486 578 q 438 528 456 539 q 396 510 419 517 l 396 504 z "},"Ў":{"ha":639,"x_min":0,"x_max":611,"o":"m 319 1139 q 402 1160 367 1139 q 458 1201 438 1181 l 514 1146 q 438 1070 488 1099 q 319 1042 388 1042 q 201 1070 251 1042 q 125 1146 151 1099 l 181 1201 q 237 1160 201 1181 q 319 1139 272 1139 m 250 -14 q 181 -6 218 -14 q 111 14 143 3 l 111 76 l 208 76 q 260 86 238 76 q 302 119 283 96 q 335 182 321 143 q 357 278 349 221 q 226 322 276 278 q 153 444 176 365 l 0 972 l 125 972 l 278 444 q 375 368 300 368 l 486 972 l 611 972 l 472 222 q 396 42 449 97 q 250 -14 343 -14 z "},"Џ":{"ha":736,"x_min":97,"x_max":639,"o":"m 431 0 l 410 -208 l 326 -208 l 306 0 l 97 0 l 97 972 l 222 972 l 222 97 l 514 97 l 514 972 l 639 972 l 639 0 l 431 0 z "},"А":{"ha":708,"x_min":28,"x_max":681,"o":"m 215 250 l 153 0 l 28 0 l 264 972 l 444 972 l 681 0 l 556 0 l 493 250 l 215 250 m 357 833 l 351 833 l 236 347 l 472 347 l 357 833 z "},"Б":{"ha":681,"x_min":97,"x_max":625,"o":"m 222 590 l 319 590 q 461 574 403 590 q 556 521 519 557 q 608 426 592 485 q 625 285 625 368 q 608 147 625 204 q 556 55 592 90 q 461 3 519 19 q 319 -14 403 -14 q 203 -8 257 -14 q 97 14 150 -1 l 97 972 l 583 972 l 583 875 l 222 875 l 222 590 m 222 493 l 222 76 l 319 76 q 457 123 414 76 q 500 285 500 169 q 457 447 500 400 q 319 493 414 493 l 222 493 z "},"В":{"ha":694,"x_min":97,"x_max":639,"o":"m 486 518 q 604 426 569 494 q 639 264 639 358 q 622 138 639 190 q 568 52 606 86 q 469 2 531 18 q 319 -14 408 -14 q 203 -8 257 -14 q 97 14 150 -1 l 97 958 q 203 980 150 974 q 319 986 257 986 q 532 923 467 986 q 597 729 597 860 q 573 613 597 667 q 486 524 549 558 l 486 518 m 222 465 l 222 76 l 319 76 q 469 120 424 76 q 514 264 514 164 q 469 419 514 374 q 319 465 424 465 l 222 465 m 306 556 q 472 729 472 556 q 306 896 472 896 l 222 896 l 222 556 l 306 556 z "},"Г":{"ha":569,"x_min":97,"x_max":542,"o":"m 97 972 l 542 972 l 542 875 l 222 875 l 222 0 l 97 0 l 97 972 z "},"Д":{"ha":757,"x_min":14,"x_max":722,"o":"m 507 97 l 507 875 l 301 875 l 278 382 q 264 258 275 311 q 240 169 253 206 q 208 97 225 128 l 507 97 m 132 0 q 90 -208 121 -125 l 14 -208 l 14 97 l 83 97 q 115 169 100 128 q 139 258 128 206 q 153 382 150 311 l 181 972 l 632 972 l 632 97 l 722 97 l 722 -208 l 646 -208 q 604 0 614 -125 l 132 0 z "},"Е":{"ha":625,"x_min":97,"x_max":569,"o":"m 222 97 l 569 97 l 569 0 l 97 0 l 97 972 l 569 972 l 569 875 l 222 875 l 222 556 l 528 556 l 528 458 l 222 458 l 222 97 z "},"Ж":{"ha":1028,"x_min":7,"x_max":1021,"o":"m 292 510 q 250 528 268 517 q 217 558 232 539 q 190 608 201 578 q 167 681 178 638 l 132 819 q 97 885 121 861 q 21 910 74 910 l 21 972 q 44 979 31 975 q 70 984 56 982 q 104 986 85 986 q 264 819 222 986 l 299 681 q 349 582 317 608 q 417 556 381 556 l 451 556 l 451 972 l 576 972 l 576 556 l 611 556 q 679 582 647 556 q 729 681 711 608 l 764 819 q 924 986 806 986 q 957 984 942 986 q 983 979 972 982 q 1007 972 997 975 l 1007 910 q 931 885 954 910 q 896 819 907 861 l 861 681 q 838 608 850 638 q 811 558 826 578 q 778 528 796 539 q 736 510 760 517 l 736 504 q 784 486 763 497 q 823 456 806 475 q 853 406 840 436 q 875 333 867 376 l 910 153 q 942 90 917 117 q 1021 63 968 63 l 1021 0 q 997 -7 1011 -4 q 938 -14 972 -14 q 834 28 875 -14 q 778 153 793 69 l 743 333 q 694 433 729 407 q 611 458 658 458 l 576 458 l 576 0 l 451 0 l 451 458 l 417 458 q 334 433 369 458 q 285 333 299 407 l 250 153 q 90 -14 218 -14 q 31 -7 56 -14 q 7 0 17 -4 l 7 63 q 85 90 60 63 q 118 153 111 117 l 153 333 q 174 406 161 376 q 205 456 188 436 q 244 486 222 475 q 292 504 265 497 l 292 510 z "},"З":{"ha":590,"x_min":21,"x_max":535,"o":"m 215 76 q 365 120 319 76 q 410 264 410 164 q 365 413 410 368 q 215 458 319 458 l 118 458 l 118 556 l 201 556 q 339 598 296 556 q 382 729 382 640 q 339 854 382 813 q 201 896 296 896 l 35 896 l 35 958 q 72 969 50 964 q 119 978 94 974 q 169 984 144 982 q 215 986 194 986 q 440 923 372 986 q 507 729 507 860 q 476 596 507 646 q 382 517 444 546 l 382 511 q 500 420 465 488 q 535 264 535 353 q 518 138 535 190 q 464 52 501 86 q 365 2 426 18 q 215 -14 304 -14 q 108 -6 163 -14 q 21 14 53 3 l 21 76 l 215 76 z "},"И":{"ha":750,"x_min":97,"x_max":653,"o":"m 528 722 l 521 722 l 236 0 l 97 0 l 97 972 l 222 972 l 222 250 l 229 250 l 507 972 l 653 972 l 653 0 l 528 0 l 528 722 z "},"Й":{"ha":750,"x_min":97,"x_max":653,"o":"m 528 722 l 521 722 l 236 0 l 97 0 l 97 972 l 222 972 l 222 250 l 229 250 l 507 972 l 653 972 l 653 0 l 528 0 l 528 722 m 375 1153 q 458 1174 422 1153 q 514 1215 493 1194 l 569 1160 q 493 1084 543 1113 q 375 1056 443 1056 q 257 1084 307 1056 q 181 1160 207 1113 l 236 1215 q 292 1174 257 1194 q 375 1153 328 1153 z "},"К":{"ha":688,"x_min":97,"x_max":681,"o":"m 396 504 q 444 486 422 497 q 483 456 465 475 q 513 406 500 436 q 535 333 526 376 l 569 153 q 602 90 576 117 q 681 63 628 63 l 681 0 q 657 -7 671 -4 q 597 -14 632 -14 q 494 28 535 -14 q 438 153 453 69 l 403 333 q 353 433 389 407 q 271 458 318 458 l 222 458 l 222 0 l 97 0 l 97 972 l 222 972 l 222 556 l 271 556 q 339 582 307 556 q 389 681 371 608 l 424 819 q 583 986 465 986 q 617 984 601 986 q 643 979 632 982 q 667 972 657 975 l 667 910 q 590 885 614 910 q 556 819 567 861 l 521 681 q 498 608 510 638 q 471 558 486 578 q 438 528 456 539 q 396 510 419 517 l 396 504 z "},"Л":{"ha":736,"x_min":0,"x_max":639,"o":"m 83 -14 q 24 -7 49 -14 q 0 0 10 -4 l 0 63 q 53 74 29 63 q 94 112 76 85 q 124 183 113 139 q 139 292 136 226 l 174 972 l 639 972 l 639 0 l 514 0 l 514 875 l 294 875 l 264 292 q 244 150 260 208 q 203 56 228 92 q 148 3 179 19 q 83 -14 117 -14 z "},"М":{"ha":1028,"x_min":76,"x_max":951,"o":"m 451 125 l 250 722 l 243 722 l 201 0 l 76 0 l 132 972 l 285 972 l 511 306 l 517 306 l 743 972 l 896 972 l 951 0 l 826 0 l 785 722 l 778 722 l 576 125 l 451 125 z "},"Н":{"ha":736,"x_min":97,"x_max":639,"o":"m 639 972 l 639 0 l 514 0 l 514 444 l 222 444 l 222 0 l 97 0 l 97 972 l 222 972 l 222 542 l 514 542 l 514 972 l 639 972 z "},"О":{"ha":736,"x_min":69,"x_max":667,"o":"m 368 986 q 494 963 439 986 q 588 882 549 939 q 647 728 626 825 q 667 486 667 632 q 647 244 667 340 q 588 90 626 147 q 494 10 549 33 q 368 -14 439 -14 q 242 10 297 -14 q 149 90 188 33 q 90 244 110 147 q 69 486 69 340 q 90 728 69 632 q 149 882 110 825 q 242 963 188 939 q 368 986 297 986 m 368 69 q 433 88 401 69 q 489 153 465 106 q 527 281 513 200 q 542 486 542 361 q 527 692 542 611 q 489 819 513 772 q 433 885 465 867 q 368 903 401 903 q 303 885 335 903 q 247 819 271 867 q 209 692 224 772 q 194 486 194 611 q 209 281 194 361 q 247 153 224 200 q 303 88 271 106 q 368 69 335 69 z "},"П":{"ha":736,"x_min":97,"x_max":639,"o":"m 639 972 l 639 0 l 514 0 l 514 875 l 222 875 l 222 0 l 97 0 l 97 972 l 639 972 z "},"Р":{"ha":681,"x_min":97,"x_max":625,"o":"m 319 382 q 401 394 367 382 q 457 435 435 406 q 490 514 479 464 q 500 639 500 564 q 490 764 500 714 q 457 843 479 814 q 401 884 435 872 q 319 896 367 896 l 222 896 l 222 382 l 319 382 m 222 0 l 97 0 l 97 958 q 203 980 150 974 q 319 986 257 986 q 461 969 403 986 q 556 911 519 951 q 608 804 592 871 q 625 639 625 738 q 609 469 625 538 q 560 360 593 401 q 478 302 528 319 q 361 285 429 285 q 289 289 329 285 q 222 299 249 293 l 222 0 z "},"С":{"ha":604,"x_min":69,"x_max":583,"o":"m 375 -14 q 245 10 301 -14 q 149 90 189 33 q 90 244 110 147 q 69 486 69 340 q 90 728 69 632 q 147 882 110 825 q 239 963 185 939 q 361 986 293 986 q 481 978 424 986 q 569 958 538 969 l 569 896 l 389 896 q 312 878 347 896 q 250 813 276 860 q 209 688 224 767 q 194 486 194 608 q 210 285 194 364 q 252 159 225 206 q 317 94 279 113 q 403 76 356 76 l 583 76 l 583 14 q 494 -6 551 3 q 375 -14 438 -14 z "},"Т":{"ha":597,"x_min":14,"x_max":583,"o":"m 14 972 l 583 972 l 583 875 l 361 875 l 361 0 l 236 0 l 236 875 l 14 875 l 14 972 z "},"У":{"ha":646,"x_min":0,"x_max":618,"o":"m 244 -14 q 175 -6 213 -14 q 106 14 138 3 l 106 76 l 203 76 q 253 85 231 76 q 294 117 276 94 q 326 179 313 140 q 353 278 340 218 q 216 322 265 278 q 146 444 167 367 l 0 972 l 125 972 l 271 444 q 371 368 293 368 l 493 972 l 618 972 l 467 222 q 390 42 442 97 q 244 -14 338 -14 z "},"Ф":{"ha":958,"x_min":42,"x_max":917,"o":"m 167 486 q 186 349 167 408 q 240 248 206 289 q 319 185 274 207 q 417 160 364 163 l 417 813 q 319 788 364 810 q 240 724 274 765 q 186 624 206 683 q 167 486 167 564 m 542 903 q 697 868 628 897 q 815 786 767 839 q 890 658 864 733 q 917 486 917 582 q 890 315 917 390 q 815 186 864 239 q 697 104 767 133 q 542 69 628 75 l 542 -28 l 417 -28 l 417 69 q 261 104 331 75 q 143 186 192 133 q 68 315 94 239 q 42 486 42 390 q 68 658 42 582 q 143 786 94 733 q 261 868 192 839 q 417 903 331 897 l 417 1000 l 542 1000 l 542 903 m 792 486 q 772 624 792 564 q 719 724 753 683 q 639 788 685 765 q 542 813 593 810 l 542 160 q 639 185 593 163 q 719 248 685 207 q 772 349 753 289 q 792 486 792 408 z "},"Х":{"ha":639,"x_min":21,"x_max":618,"o":"m 472 972 l 597 972 l 410 500 l 618 0 l 493 0 l 319 417 l 146 0 l 21 0 l 229 500 l 42 972 l 167 972 l 319 583 l 472 972 z "},"Ц":{"ha":750,"x_min":97,"x_max":715,"o":"m 97 0 l 97 972 l 222 972 l 222 97 l 500 97 l 500 972 l 625 972 l 625 97 l 715 97 l 715 -208 l 639 -208 q 597 0 607 -125 l 97 0 z "},"Ч":{"ha":701,"x_min":69,"x_max":604,"o":"m 326 361 q 133 426 196 361 q 69 632 69 490 l 69 972 l 194 972 l 194 632 q 238 501 194 543 q 382 458 282 458 l 479 458 l 479 972 l 604 972 l 604 0 l 479 0 l 479 375 q 410 365 453 369 q 326 361 368 361 z "},"Ш":{"ha":1042,"x_min":97,"x_max":944,"o":"m 583 97 l 819 97 l 819 972 l 944 972 l 944 0 l 97 0 l 97 972 l 222 972 l 222 97 l 458 97 l 458 972 l 583 972 l 583 97 z "},"Щ":{"ha":1069,"x_min":97,"x_max":1035,"o":"m 97 0 l 97 972 l 222 972 l 222 97 l 458 97 l 458 972 l 583 972 l 583 97 l 819 97 l 819 972 l 944 972 l 944 97 l 1035 97 l 1035 -208 l 958 -208 q 917 0 926 -125 l 97 0 z "},"Ъ":{"ha":764,"x_min":28,"x_max":708,"o":"m 306 493 l 306 76 l 403 76 q 540 123 497 76 q 583 285 583 169 q 540 447 583 400 q 403 493 497 493 l 306 493 m 444 590 q 644 521 579 590 q 708 285 708 451 q 692 147 708 204 q 639 55 675 90 q 544 3 603 19 q 403 -14 486 -14 q 287 -8 340 -14 q 181 14 233 -1 l 181 875 l 28 875 l 28 972 l 306 972 l 306 576 q 372 586 332 582 q 444 590 413 590 z "},"Ы":{"ha":958,"x_min":97,"x_max":861,"o":"m 861 972 l 861 0 l 736 0 l 736 972 l 861 972 m 222 493 l 222 76 l 319 76 q 451 123 408 76 q 493 285 493 169 q 451 447 493 400 q 319 493 408 493 l 222 493 m 361 590 q 555 521 492 590 q 618 285 618 451 q 601 147 618 204 q 549 55 585 90 q 457 3 514 19 q 319 -14 400 -14 q 203 -8 257 -14 q 97 14 150 -1 l 97 972 l 222 972 l 222 576 q 289 586 249 582 q 361 590 329 590 z "},"Ь":{"ha":681,"x_min":97,"x_max":625,"o":"m 222 493 l 222 76 l 319 76 q 457 123 414 76 q 500 285 500 169 q 457 447 500 400 q 319 493 414 493 l 222 493 m 361 590 q 560 521 496 590 q 625 285 625 451 q 608 147 625 204 q 556 55 592 90 q 461 3 519 19 q 319 -14 403 -14 q 203 -8 257 -14 q 97 14 150 -1 l 97 972 l 222 972 l 222 576 q 289 586 249 582 q 361 590 329 590 z "},"Э":{"ha":604,"x_min":21,"x_max":535,"o":"m 118 549 l 410 549 q 391 714 407 647 q 349 821 375 781 q 288 878 322 861 q 215 896 254 896 l 35 896 l 35 958 q 124 978 67 969 q 243 986 181 986 q 365 963 311 986 q 457 882 419 939 q 515 728 494 825 q 535 486 535 632 q 515 244 535 340 q 455 90 494 147 q 358 10 415 33 q 229 -14 301 -14 q 110 -6 167 -14 q 21 14 53 3 l 21 76 l 201 76 q 286 94 249 76 q 350 154 324 111 q 392 269 376 197 q 410 451 407 342 l 118 451 l 118 549 z "},"Ю":{"ha":979,"x_min":97,"x_max":910,"o":"m 222 444 l 222 0 l 97 0 l 97 972 l 222 972 l 222 542 l 326 542 q 356 755 335 669 q 415 892 378 840 q 502 965 451 943 q 618 986 553 986 q 740 963 686 986 q 832 882 794 939 q 890 728 869 825 q 910 486 910 632 q 890 244 910 340 q 832 90 869 147 q 740 10 794 33 q 618 -14 686 -14 q 502 8 553 -14 q 415 82 451 29 q 356 223 378 135 q 326 444 335 311 l 222 444 m 618 69 q 679 88 649 69 q 733 153 710 106 q 770 281 756 200 q 785 486 785 361 q 770 692 785 611 q 733 819 756 772 q 679 885 710 867 q 618 903 649 903 q 556 885 586 903 q 503 819 526 867 q 466 692 481 772 q 451 486 451 611 q 466 281 451 361 q 503 153 481 200 q 556 88 526 106 q 618 69 586 69 z "},"Я":{"ha":694,"x_min":14,"x_max":597,"o":"m 472 493 l 472 896 l 375 896 q 238 850 281 896 q 194 694 194 804 q 238 539 194 585 q 375 493 281 493 l 472 493 m 257 431 q 190 454 224 436 q 129 505 156 472 q 86 585 103 538 q 69 694 69 632 q 86 828 69 772 q 139 919 103 883 q 233 970 175 954 q 375 986 292 986 q 491 980 438 986 q 597 958 544 974 l 597 0 l 472 0 l 472 396 l 417 396 q 339 369 375 396 q 285 271 303 343 l 257 153 q 97 -14 215 -14 q 40 -7 65 -14 q 14 0 26 -4 l 14 63 q 90 87 67 63 q 125 153 114 111 l 153 271 q 194 376 168 339 q 257 425 221 414 l 257 431 z "},"а":{"ha":625,"x_min":63,"x_max":535,"o":"m 410 340 l 313 340 q 224 313 260 340 q 188 208 188 286 q 197 140 188 167 q 224 97 207 113 q 263 76 240 82 q 313 69 286 69 q 367 78 339 69 q 410 97 394 86 l 410 340 m 271 -14 q 185 -5 224 -14 q 120 29 147 4 q 78 97 93 54 q 63 208 63 140 q 78 315 63 274 q 120 381 93 357 q 185 415 147 406 q 271 424 224 424 q 340 419 303 424 q 410 410 378 415 l 410 472 q 399 549 410 519 q 369 596 389 579 q 322 619 350 613 q 257 625 293 625 l 118 625 l 118 681 q 197 700 150 692 q 285 708 243 708 q 394 699 347 708 q 472 663 440 689 q 519 591 503 638 q 535 472 535 544 l 535 0 l 431 0 l 424 42 l 417 42 q 351 1 390 15 q 271 -14 313 -14 z "},"б":{"ha":660,"x_min":76,"x_max":590,"o":"m 201 632 q 267 657 233 647 q 347 667 300 667 q 453 649 407 667 q 529 592 499 632 q 575 488 560 553 q 590 326 590 422 q 574 165 590 231 q 526 60 558 100 q 447 3 494 21 q 333 -14 399 -14 q 220 3 268 -14 q 140 60 172 21 q 92 165 108 100 q 76 326 76 231 l 76 556 q 94 755 76 675 q 153 883 113 835 q 261 953 194 932 q 424 979 328 975 l 576 986 l 583 931 q 504 901 547 915 q 403 882 461 888 q 313 861 350 876 q 250 817 275 846 q 213 742 225 788 q 201 632 201 697 m 201 326 q 211 197 201 249 q 239 116 221 146 q 281 74 257 86 q 333 63 304 63 q 386 74 363 63 q 428 116 410 86 q 456 197 446 146 q 465 326 465 249 q 455 451 465 401 q 424 531 444 501 q 374 572 404 560 q 306 583 344 583 q 245 575 274 583 q 201 556 217 567 l 201 326 z "},"в":{"ha":625,"x_min":90,"x_max":569,"o":"m 313 69 q 410 95 375 69 q 444 194 444 121 q 410 294 444 268 q 313 319 375 319 l 215 319 l 215 69 l 313 69 m 215 625 l 215 403 l 299 403 q 384 427 351 403 q 417 514 417 451 q 384 601 417 576 q 299 625 351 625 l 215 625 m 90 681 q 194 702 143 696 q 299 708 246 708 q 404 699 358 708 q 481 668 450 690 q 526 608 511 646 q 542 514 542 571 q 533 456 542 481 q 511 415 525 432 q 480 388 497 399 q 444 371 463 378 l 444 365 q 490 346 468 358 q 531 313 513 333 q 559 263 549 292 q 569 194 569 233 q 553 92 569 132 q 506 28 538 51 q 426 -5 474 4 q 313 -14 378 -14 q 197 -8 250 -14 q 90 14 143 -1 l 90 681 z "},"г":{"ha":507,"x_min":90,"x_max":493,"o":"m 493 694 l 493 604 l 215 604 l 215 0 l 90 0 l 90 694 l 493 694 z "},"д":{"ha":688,"x_min":14,"x_max":653,"o":"m 653 90 l 653 -201 l 576 -201 q 551 -106 561 -160 q 535 0 540 -53 l 132 0 q 116 -106 126 -53 q 90 -201 106 -160 l 14 -201 l 14 90 l 76 90 q 113 161 92 114 q 139 292 135 208 l 160 694 l 569 694 l 569 90 l 653 90 m 281 604 l 264 292 q 238 161 260 208 q 201 90 217 114 l 444 90 l 444 604 l 281 604 z "},"е":{"ha":611,"x_min":63,"x_max":549,"o":"m 549 306 l 188 306 q 199 192 188 238 q 233 120 210 147 q 292 81 256 93 q 382 69 329 69 l 521 69 l 521 14 q 442 -6 489 3 q 354 -14 396 -14 q 221 3 276 -14 q 130 63 165 21 q 78 174 94 104 q 63 347 63 243 q 78 521 63 451 q 124 632 93 590 q 200 691 154 674 q 306 708 246 708 q 411 691 365 708 q 488 632 457 674 q 533 521 518 590 q 549 347 549 451 l 549 306 m 424 389 q 414 506 424 460 q 388 581 404 553 q 351 620 372 608 q 306 632 329 632 q 260 620 282 632 q 223 581 239 608 q 197 506 207 553 q 188 389 188 460 l 424 389 z "},"ж":{"ha":892,"x_min":14,"x_max":878,"o":"m 383 410 l 383 694 l 508 694 l 508 410 l 536 410 q 578 428 558 410 q 614 493 597 446 l 649 590 q 700 680 671 651 q 788 708 729 708 q 814 706 800 708 q 839 701 828 704 q 864 694 853 697 l 864 639 q 805 625 822 639 q 781 590 788 611 l 746 493 q 701 405 724 431 q 647 371 679 379 l 647 365 q 713 331 685 357 q 760 236 742 304 l 794 104 q 818 69 800 83 q 878 56 836 56 l 878 0 q 856 -7 868 -4 q 801 -14 832 -14 q 710 16 743 -14 q 663 104 678 46 l 628 236 q 536 319 604 319 l 508 319 l 508 0 l 383 0 l 383 319 l 356 319 q 299 299 324 319 q 264 236 275 278 l 229 104 q 181 16 214 46 q 90 -14 149 -14 q 36 -7 60 -14 q 14 0 24 -4 l 14 56 q 74 69 56 56 q 97 104 92 83 l 132 236 q 178 331 150 304 q 244 365 207 357 l 244 371 q 190 405 213 379 q 146 493 168 431 l 111 590 q 87 625 104 611 q 28 639 69 639 l 28 694 q 53 701 39 697 q 77 706 64 704 q 104 708 90 708 q 192 680 163 708 q 243 590 221 651 l 278 493 q 314 428 294 446 q 356 410 333 410 l 383 410 z "},"з":{"ha":528,"x_min":21,"x_max":472,"o":"m 201 708 q 315 699 267 708 q 394 668 363 690 q 442 608 426 646 q 458 514 458 571 q 449 456 458 481 q 424 415 439 432 q 388 388 408 399 q 347 371 368 378 l 347 365 q 393 346 371 358 q 433 313 415 333 q 462 263 451 292 q 472 194 472 233 q 456 92 472 132 q 406 28 440 51 q 317 -5 371 4 q 188 -14 263 -14 q 99 -6 146 -14 q 21 14 53 3 l 21 69 l 188 69 q 307 95 267 69 q 347 194 347 121 q 312 293 347 267 q 229 319 276 319 l 111 319 l 111 403 l 215 403 q 298 427 263 403 q 333 514 333 451 q 293 601 333 576 q 174 625 253 625 l 35 625 l 35 681 q 113 700 67 692 q 201 708 160 708 z "},"и":{"ha":667,"x_min":90,"x_max":576,"o":"m 451 486 l 444 486 l 222 0 l 90 0 l 90 694 l 215 694 l 215 222 l 222 222 l 431 694 l 576 694 l 576 0 l 451 0 l 451 486 z "},"й":{"ha":667,"x_min":90,"x_max":576,"o":"m 451 486 l 444 486 l 222 0 l 90 0 l 90 694 l 215 694 l 215 222 l 222 222 l 431 694 l 576 694 l 576 0 l 451 0 l 451 486 m 326 875 q 403 892 368 875 q 458 931 438 910 l 514 875 q 441 806 488 833 q 326 778 394 778 q 212 806 258 778 q 139 875 165 833 l 194 931 q 250 892 215 910 q 326 875 285 875 z "},"к":{"ha":618,"x_min":90,"x_max":604,"o":"m 374 365 q 440 331 411 357 q 486 236 468 304 l 521 104 q 544 69 526 83 q 604 56 563 56 l 604 0 q 582 -7 594 -4 q 528 -14 558 -14 q 437 16 469 -14 q 389 104 404 46 l 354 236 q 263 319 331 319 l 215 319 l 215 0 l 90 0 l 90 694 l 215 694 l 215 410 l 263 410 q 304 428 285 410 q 340 493 324 446 l 375 590 q 426 680 397 651 q 514 708 456 708 q 540 706 526 708 q 565 701 554 704 q 590 694 579 697 l 590 639 q 531 625 549 639 q 507 590 514 611 l 472 493 q 428 405 450 431 q 374 371 406 379 l 374 365 z "},"л":{"ha":654,"x_min":0,"x_max":564,"o":"m 564 694 l 564 0 l 439 0 l 439 604 l 258 604 l 236 222 q 184 42 229 97 q 76 -14 139 -14 q 23 -7 44 -14 q 0 0 1 0 l 0 56 q 74 94 42 56 q 111 222 106 133 l 139 694 l 564 694 z "},"м":{"ha":875,"x_min":76,"x_max":799,"o":"m 440 257 l 604 694 l 750 694 l 799 0 l 681 0 l 646 493 l 639 493 l 493 104 l 382 104 l 236 493 l 229 493 l 194 0 l 76 0 l 125 694 l 271 694 l 435 257 l 440 257 z "},"н":{"ha":660,"x_min":90,"x_max":569,"o":"m 215 0 l 90 0 l 90 694 l 215 694 l 215 396 l 444 396 l 444 694 l 569 694 l 569 0 l 444 0 l 444 306 l 215 306 l 215 0 z "},"о":{"ha":639,"x_min":63,"x_max":576,"o":"m 451 347 q 440 485 451 431 q 411 573 429 540 q 369 619 393 606 q 319 632 346 632 q 269 619 293 632 q 228 573 246 606 q 199 485 210 540 q 188 347 188 431 q 199 209 188 264 q 228 122 210 154 q 269 76 246 89 q 319 63 293 63 q 369 76 346 63 q 411 122 393 89 q 440 209 429 154 q 451 347 451 264 m 576 347 q 560 176 576 246 q 510 65 543 107 q 430 4 478 22 q 319 -14 382 -14 q 209 4 257 -14 q 128 65 161 22 q 79 176 96 107 q 63 347 63 246 q 79 518 63 449 q 128 630 96 588 q 209 690 161 672 q 319 708 257 708 q 430 690 382 708 q 510 630 478 672 q 560 518 543 588 q 576 347 576 449 z "},"п":{"ha":660,"x_min":90,"x_max":569,"o":"m 215 0 l 90 0 l 90 694 l 569 694 l 569 0 l 444 0 l 444 604 l 215 604 l 215 0 z "},"р":{"ha":646,"x_min":90,"x_max":583,"o":"m 208 653 q 274 694 235 679 q 354 708 313 708 q 451 691 408 708 q 524 632 494 674 q 568 521 553 590 q 583 347 583 451 q 568 174 583 243 q 524 63 553 104 q 451 3 494 21 q 354 -14 408 -14 q 280 -4 313 -14 q 215 21 247 6 l 215 -278 l 90 -278 l 90 694 l 194 694 l 201 653 l 208 653 m 215 97 q 258 78 231 86 q 313 69 286 69 q 373 81 346 69 q 419 124 400 93 q 448 210 438 156 q 458 347 458 264 q 448 484 458 431 q 419 569 438 538 q 373 613 400 600 q 313 625 346 625 q 258 617 286 625 q 215 597 231 608 l 215 97 z "},"с":{"ha":521,"x_min":63,"x_max":500,"o":"m 347 625 q 278 613 308 625 q 228 569 249 600 q 198 484 208 538 q 188 347 188 431 q 198 210 188 264 q 230 124 208 156 q 284 81 251 93 q 361 69 317 69 l 500 69 l 500 14 q 422 -6 468 3 q 333 -14 375 -14 q 212 3 263 -14 q 128 63 161 21 q 78 174 94 104 q 63 347 63 243 q 78 521 63 451 q 126 632 94 590 q 206 691 158 674 q 319 708 254 708 q 408 700 361 708 q 486 681 454 692 l 486 625 l 347 625 z "},"т":{"ha":514,"x_min":14,"x_max":500,"o":"m 500 694 l 500 604 l 319 604 l 319 0 l 194 0 l 194 604 l 14 604 l 14 694 l 500 694 z "},"у":{"ha":618,"x_min":28,"x_max":576,"o":"m 319 -14 q 211 30 251 -14 q 153 153 171 74 l 28 694 l 153 694 l 278 153 q 303 94 288 111 q 336 76 318 76 l 451 694 l 576 694 l 444 -14 q 363 -226 417 -160 q 215 -292 308 -292 q 150 -283 183 -292 q 90 -264 117 -275 l 90 -208 l 188 -208 q 233 -201 214 -208 q 269 -172 253 -193 q 297 -112 285 -150 q 319 -14 308 -74 z "},"ф":{"ha":833,"x_min":56,"x_max":778,"o":"m 354 972 l 479 972 l 479 701 q 699 605 619 690 q 778 347 778 519 q 699 89 778 175 q 479 -7 619 3 l 479 -278 l 354 -278 l 354 -7 q 135 89 214 3 q 56 347 56 175 q 135 605 56 519 q 354 701 214 690 l 354 972 m 479 76 q 550 94 518 79 q 605 142 582 110 q 640 224 628 174 q 653 347 653 274 q 640 470 653 419 q 605 553 628 521 q 550 600 582 585 q 479 618 518 615 l 479 76 m 354 618 q 283 600 315 615 q 228 553 251 585 q 193 470 206 521 q 181 347 181 419 q 193 224 181 274 q 228 142 206 174 q 283 94 251 110 q 354 76 315 79 l 354 618 z "},"х":{"ha":556,"x_min":21,"x_max":535,"o":"m 404 694 l 529 694 l 361 354 l 535 0 l 410 0 l 278 271 l 146 0 l 21 0 l 194 354 l 26 694 l 151 694 l 278 438 l 404 694 z "},"ц":{"ha":681,"x_min":90,"x_max":646,"o":"m 646 90 l 646 -201 l 569 -201 q 544 -106 554 -160 q 528 0 533 -53 l 90 0 l 90 694 l 215 694 l 215 90 l 438 90 l 438 694 l 563 694 l 563 90 l 646 90 z "},"ч":{"ha":632,"x_min":63,"x_max":542,"o":"m 63 694 l 188 694 l 188 451 q 226 358 188 383 q 326 333 264 333 l 417 333 l 417 694 l 542 694 l 542 0 l 417 0 l 417 264 q 347 254 390 258 q 257 250 304 250 q 180 259 215 250 q 118 291 144 268 q 77 353 92 314 q 63 451 63 392 l 63 694 z "},"ш":{"ha":931,"x_min":90,"x_max":840,"o":"m 90 0 l 90 694 l 215 694 l 215 90 l 403 90 l 403 694 l 528 694 l 528 90 l 715 90 l 715 694 l 840 694 l 840 0 l 90 0 z "},"щ":{"ha":958,"x_min":90,"x_max":924,"o":"m 90 0 l 90 694 l 215 694 l 215 90 l 403 90 l 403 694 l 528 694 l 528 90 l 715 90 l 715 694 l 840 694 l 840 90 l 924 90 l 924 -201 l 847 -201 q 822 -106 832 -160 q 806 0 811 -53 l 90 0 z "},"ъ":{"ha":701,"x_min":28,"x_max":646,"o":"m 292 424 q 356 433 324 429 q 431 438 389 438 q 520 428 481 438 q 588 393 560 418 q 631 324 615 368 q 646 208 646 279 q 630 97 646 140 q 582 29 614 54 q 502 -5 550 4 q 389 -14 454 -14 q 273 -8 326 -14 q 167 14 219 -1 l 167 604 l 28 604 l 28 694 l 292 694 l 292 424 m 389 69 q 486 97 451 69 q 521 208 521 125 q 486 319 521 292 q 389 347 451 347 l 292 347 l 292 69 l 389 69 z "},"ы":{"ha":875,"x_min":90,"x_max":785,"o":"m 785 694 l 785 0 l 660 0 l 660 694 l 785 694 m 313 69 q 404 97 371 69 q 438 208 438 125 q 404 319 438 292 q 313 347 371 347 l 215 347 l 215 69 l 313 69 m 354 438 q 440 428 401 438 q 505 393 478 418 q 547 324 532 368 q 563 208 563 279 q 547 97 563 140 q 499 29 531 54 q 422 -5 468 4 q 313 -14 375 -14 q 197 -8 250 -14 q 90 14 143 -1 l 90 694 l 215 694 l 215 424 q 280 433 247 429 q 354 438 313 438 z "},"ь":{"ha":625,"x_min":90,"x_max":569,"o":"m 215 424 q 280 433 247 429 q 354 438 313 438 q 444 428 404 438 q 511 393 483 418 q 554 324 539 368 q 569 208 569 279 q 553 97 569 140 q 506 29 538 54 q 426 -5 474 4 q 313 -14 378 -14 q 197 -8 250 -14 q 90 14 143 -1 l 90 694 l 215 694 l 215 424 m 313 69 q 410 97 375 69 q 444 208 444 125 q 410 319 444 292 q 313 347 375 347 l 215 347 l 215 69 l 313 69 z "},"э":{"ha":521,"x_min":21,"x_max":458,"o":"m 118 313 l 118 403 l 333 403 q 290 574 328 524 q 174 625 253 625 l 35 625 l 35 681 q 113 700 67 692 q 201 708 160 708 q 315 691 267 708 q 394 632 363 674 q 442 521 426 590 q 458 347 458 451 q 442 174 458 243 q 393 63 426 104 q 309 3 360 21 q 188 -14 258 -14 q 99 -6 146 -14 q 21 14 53 3 l 21 69 l 160 69 q 235 81 204 69 q 288 121 267 93 q 319 195 308 149 q 333 313 331 242 l 118 313 z "},"ю":{"ha":868,"x_min":90,"x_max":806,"o":"m 215 694 l 215 403 l 306 403 q 378 637 317 565 q 556 708 440 708 q 665 690 618 708 q 742 630 711 672 q 790 518 774 588 q 806 347 806 449 q 790 176 806 246 q 742 65 774 107 q 665 4 711 22 q 556 -14 618 -14 q 378 60 440 -14 q 306 306 315 133 l 215 306 l 215 0 l 90 0 l 90 694 l 215 694 m 556 63 q 605 76 582 63 q 644 122 628 89 q 671 209 661 154 q 681 347 681 264 q 671 485 681 431 q 644 573 661 540 q 605 619 628 606 q 556 632 582 632 q 506 619 529 632 q 467 573 483 606 q 440 485 450 540 q 431 347 431 431 q 440 209 431 264 q 467 122 450 154 q 506 76 483 89 q 556 63 529 63 z "},"я":{"ha":618,"x_min":14,"x_max":528,"o":"m 306 625 q 208 598 243 625 q 174 493 174 571 q 208 388 174 415 q 306 361 243 361 l 403 361 l 403 625 l 306 625 m 217 301 q 151 317 182 303 q 98 357 121 332 q 62 417 75 382 q 49 493 49 451 q 66 600 49 558 q 117 666 83 642 q 198 699 150 690 q 306 708 246 708 q 422 702 368 708 q 528 681 475 696 l 528 0 l 403 0 l 403 271 l 356 271 q 264 201 290 271 l 229 104 q 178 15 207 43 q 90 -14 149 -14 q 39 -7 64 -14 q 14 0 25 -4 l 14 56 q 73 69 56 56 q 97 104 90 83 l 132 201 q 169 268 149 249 q 217 296 189 288 l 217 301 z "},"ё":{"ha":611,"x_min":63,"x_max":549,"o":"m 549 306 l 188 306 q 199 192 188 238 q 233 120 210 147 q 292 81 256 93 q 382 69 329 69 l 521 69 l 521 14 q 442 -6 489 3 q 354 -14 396 -14 q 221 3 276 -14 q 130 63 165 21 q 78 174 94 104 q 63 347 63 243 q 78 521 63 451 q 124 632 93 590 q 200 691 154 674 q 306 708 246 708 q 411 691 365 708 q 488 632 457 674 q 533 521 518 590 q 549 347 549 451 l 549 306 m 424 389 q 414 506 424 460 q 388 581 404 553 q 351 620 372 608 q 306 632 329 632 q 260 620 282 632 q 223 581 239 608 q 197 506 207 553 q 188 389 188 460 l 424 389 m 257 944 l 257 792 l 132 792 l 132 944 l 257 944 m 479 944 l 479 792 l 354 792 l 354 944 l 479 944 z "},"ђ":{"ha":660,"x_min":28,"x_max":590,"o":"m 465 458 q 456 519 465 494 q 428 558 446 543 q 386 578 410 572 q 333 583 363 583 q 279 575 307 583 q 236 556 251 567 l 236 0 l 111 0 l 111 757 l 28 757 l 28 847 l 111 847 l 111 972 l 236 972 l 236 847 l 431 847 l 431 785 q 352 765 399 774 q 264 757 306 757 l 236 757 l 236 632 q 305 657 268 647 q 389 667 342 667 q 470 658 433 667 q 534 625 507 649 q 576 561 561 601 q 590 458 590 521 l 590 208 q 548 35 590 83 q 417 -14 506 -14 q 369 -8 390 -14 q 326 14 347 -1 l 326 69 l 382 69 q 444 97 424 69 q 465 208 465 125 l 465 458 z "},"ѓ":{"ha":507,"x_min":90,"x_max":493,"o":"m 493 694 l 493 604 l 215 604 l 215 0 l 90 0 l 90 694 l 493 694 m 243 778 l 292 958 l 424 958 l 326 778 l 243 778 z "},"є":{"ha":521,"x_min":63,"x_max":500,"o":"m 188 313 q 201 195 190 242 q 232 121 211 149 q 285 81 253 93 q 361 69 317 69 l 500 69 l 500 14 q 422 -6 468 3 q 333 -14 375 -14 q 212 3 263 -14 q 128 63 161 21 q 78 174 94 104 q 63 347 63 243 q 78 521 63 451 q 126 632 94 590 q 206 691 158 674 q 319 708 254 708 q 408 700 361 708 q 486 681 454 692 l 486 625 l 347 625 q 231 574 268 625 q 188 403 193 524 l 403 403 l 403 313 l 188 313 z "},"ѕ":{"ha":549,"x_min":49,"x_max":500,"o":"m 174 528 q 198 462 174 486 q 258 419 222 438 q 337 385 294 401 q 415 344 379 369 q 476 281 451 319 q 500 181 500 243 q 484 86 500 124 q 434 26 468 49 q 347 -5 400 4 q 222 -14 294 -14 q 134 -6 181 -14 q 56 14 88 3 l 56 69 l 194 69 q 332 94 289 69 q 375 181 375 118 q 351 247 375 222 q 290 289 326 271 q 212 323 254 307 q 133 364 169 339 q 73 427 97 389 q 49 528 49 465 q 111 670 49 632 q 299 708 174 708 q 387 700 340 708 q 465 681 433 692 l 465 625 l 326 625 q 213 603 253 625 q 174 528 174 581 z "},"і":{"ha":306,"x_min":90,"x_max":215,"o":"m 215 0 l 90 0 l 90 694 l 215 694 l 215 0 m 215 944 l 215 792 l 90 792 l 90 944 l 215 944 z "},"ї":{"ha":306,"x_min":-21,"x_max":326,"o":"m 215 0 l 90 0 l 90 694 l 215 694 l 215 0 m 104 944 l 104 792 l -21 792 l -21 944 l 104 944 m 326 944 l 326 792 l 201 792 l 201 944 l 326 944 z "},"ј":{"ha":333,"x_min":-83,"x_max":236,"o":"m 236 -56 q 222 -175 236 -129 q 181 -247 207 -221 q 119 -282 154 -272 q 42 -292 83 -292 q -24 -283 10 -292 q -83 -264 -57 -275 l -83 -208 l 14 -208 q 47 -202 29 -208 q 78 -179 64 -196 q 102 -133 93 -162 q 111 -56 111 -103 l 111 694 l 236 694 l 236 -56 m 236 944 l 236 792 l 111 792 l 111 944 l 236 944 z "},"љ":{"ha":972,"x_min":0,"x_max":917,"o":"m 563 424 q 627 433 594 429 q 701 438 660 438 q 791 428 751 438 q 858 393 831 418 q 901 324 886 368 q 917 208 917 279 q 901 97 917 140 q 853 29 885 54 q 773 -5 821 4 q 660 -14 725 -14 q 544 -8 597 -14 q 438 14 490 -1 l 438 604 l 258 604 l 236 222 q 184 42 229 97 q 76 -14 139 -14 q 23 -7 44 -14 q 0 0 1 0 l 0 56 q 74 94 42 56 q 111 222 106 133 l 139 694 l 563 694 l 563 424 m 660 69 q 757 97 722 69 q 792 208 792 125 q 757 319 792 292 q 660 347 722 347 l 563 347 l 563 69 l 660 69 z "},"њ":{"ha":979,"x_min":90,"x_max":924,"o":"m 569 396 q 634 406 601 401 q 708 410 667 410 q 798 401 758 410 q 865 367 838 392 q 908 301 893 343 q 924 194 924 260 q 908 92 924 132 q 860 28 892 51 q 780 -5 828 4 q 667 -14 732 -14 q 551 -8 604 -14 q 444 14 497 -1 l 444 319 l 215 319 l 215 0 l 90 0 l 90 694 l 215 694 l 215 410 l 444 410 l 444 694 l 569 694 l 569 396 m 667 69 q 764 95 729 69 q 799 194 799 121 q 764 294 799 268 q 667 319 729 319 l 569 319 l 569 69 l 667 69 z "},"ћ":{"ha":681,"x_min":28,"x_max":590,"o":"m 236 757 l 236 632 q 305 657 268 647 q 389 667 342 667 q 470 658 433 667 q 534 625 507 649 q 576 561 561 601 q 590 458 590 521 l 590 0 l 465 0 l 465 458 q 456 519 465 494 q 428 558 446 543 q 386 578 410 572 q 333 583 363 583 q 279 575 307 583 q 236 556 251 567 l 236 0 l 111 0 l 111 757 l 28 757 l 28 847 l 111 847 l 111 972 l 236 972 l 236 847 l 431 847 l 431 785 q 352 765 399 774 q 264 757 306 757 l 236 757 z "},"ќ":{"ha":618,"x_min":90,"x_max":604,"o":"m 271 778 l 319 958 l 451 958 l 354 778 l 271 778 m 374 365 q 440 331 411 357 q 486 236 468 304 l 521 104 q 544 69 526 83 q 604 56 563 56 l 604 0 q 582 -7 594 -4 q 528 -14 558 -14 q 437 16 469 -14 q 389 104 404 46 l 354 236 q 263 319 331 319 l 215 319 l 215 0 l 90 0 l 90 694 l 215 694 l 215 410 l 263 410 q 304 428 285 410 q 340 493 324 446 l 375 590 q 426 680 397 651 q 514 708 456 708 q 540 706 526 708 q 565 701 554 704 q 590 694 579 697 l 590 639 q 531 625 549 639 q 507 590 514 611 l 472 493 q 428 405 450 431 q 374 371 406 379 l 374 365 z "},"ў":{"ha":618,"x_min":28,"x_max":576,"o":"m 319 -14 q 211 30 251 -14 q 153 153 171 74 l 28 694 l 153 694 l 278 153 q 303 94 288 111 q 336 76 318 76 l 451 694 l 576 694 l 444 -14 q 363 -226 417 -160 q 215 -292 308 -292 q 150 -283 183 -292 q 90 -264 117 -275 l 90 -208 l 188 -208 q 233 -201 214 -208 q 269 -172 253 -193 q 297 -112 285 -150 q 319 -14 308 -74 m 313 875 q 389 892 354 875 q 444 931 424 910 l 500 875 q 427 806 474 833 q 313 778 381 778 q 198 806 244 778 q 125 875 151 833 l 181 931 q 236 892 201 910 q 313 875 271 875 z "},"џ":{"ha":660,"x_min":90,"x_max":569,"o":"m 288 -194 l 267 0 l 90 0 l 90 694 l 215 694 l 215 90 l 444 90 l 444 694 l 569 694 l 569 0 l 392 0 l 371 -194 l 288 -194 z "},"Ґ":{"ha":569,"x_min":97,"x_max":542,"o":"m 97 972 l 442 972 l 451 1090 l 542 1090 l 542 875 l 222 875 l 222 0 l 97 0 l 97 972 z "},"ґ":{"ha":507,"x_min":90,"x_max":493,"o":"m 493 604 l 215 604 l 215 0 l 90 0 l 90 694 l 392 694 l 403 819 l 493 819 l 493 604 z "},"–":{"ha":639,"x_min":42,"x_max":597,"o":"m 42 438 l 597 438 l 597 340 l 42 340 l 42 438 z "},"—":{"ha":889,"x_min":42,"x_max":847,"o":"m 42 438 l 847 438 l 847 340 l 42 340 l 42 438 z "},"‘":{"ha":236,"x_min":56,"x_max":188,"o":"m 188 667 l 56 667 l 97 972 l 188 972 l 188 667 z "},"’":{"ha":236,"x_min":56,"x_max":188,"o":"m 56 972 l 188 972 l 146 667 l 56 667 l 56 972 z "},"‚":{"ha":236,"x_min":56,"x_max":188,"o":"m 56 146 l 188 146 l 146 -160 l 56 -160 l 56 146 z "},"“":{"ha":444,"x_min":49,"x_max":389,"o":"m 389 667 l 257 667 l 299 972 l 389 972 l 389 667 m 181 667 l 49 667 l 90 972 l 181 972 l 181 667 z "},"”":{"ha":444,"x_min":56,"x_max":396,"o":"m 56 972 l 188 972 l 146 667 l 56 667 l 56 972 m 264 972 l 396 972 l 354 667 l 264 667 l 264 972 z "},"„":{"ha":444,"x_min":56,"x_max":396,"o":"m 56 146 l 188 146 l 146 -160 l 56 -160 l 56 146 m 264 146 l 396 146 l 354 -160 l 264 -160 l 264 146 z "},"†":{"ha":625,"x_min":28,"x_max":597,"o":"m 375 -278 l 250 -278 l 250 542 l 28 542 l 28 639 l 250 639 l 250 972 l 375 972 l 375 639 l 597 639 l 597 542 l 375 542 l 375 -278 z "},"‡":{"ha":625,"x_min":28,"x_max":597,"o":"m 375 639 l 597 639 l 597 542 l 375 542 l 375 153 l 597 153 l 597 56 l 375 56 l 375 -278 l 250 -278 l 250 56 l 28 56 l 28 153 l 250 153 l 250 542 l 28 542 l 28 639 l 250 639 l 250 972 l 375 972 l 375 639 z "},"•":{"ha":347,"x_min":63,"x_max":285,"o":"m 285 375 l 63 375 l 63 596 l 285 596 l 285 375 z "},"…":{"ha":708,"x_min":56,"x_max":653,"o":"m 181 146 l 181 -7 l 56 -7 l 56 146 l 181 146 m 417 146 l 417 -7 l 292 -7 l 292 146 l 417 146 m 653 146 l 653 -7 l 528 -7 l 528 146 l 653 146 z "},"‰":{"ha":1375,"x_min":42,"x_max":1333,"o":"m 806 972 l 264 0 l 139 0 l 681 972 l 806 972 m 799 194 q 774 291 799 263 q 708 319 750 319 q 642 291 667 319 q 618 194 618 263 q 642 98 618 126 q 708 69 667 69 q 774 98 750 69 q 799 194 799 126 m 903 194 q 853 38 903 90 q 708 -14 803 -14 q 564 38 614 -14 q 514 194 514 90 q 564 351 514 299 q 708 403 614 403 q 853 351 803 403 q 903 194 903 299 m 326 778 q 302 874 326 846 q 236 903 278 903 q 170 874 194 903 q 146 778 146 846 q 170 681 146 710 q 236 653 194 653 q 302 681 278 653 q 326 778 326 710 m 431 778 q 381 622 431 674 q 236 569 331 569 q 92 622 142 569 q 42 778 42 674 q 92 934 42 882 q 236 986 142 986 q 381 934 331 986 q 431 778 431 882 m 1229 194 q 1205 291 1229 263 q 1139 319 1181 319 q 1073 291 1097 319 q 1049 194 1049 263 q 1073 98 1049 126 q 1139 69 1097 69 q 1205 98 1181 69 q 1229 194 1229 126 m 1333 194 q 1283 38 1333 90 q 1139 -14 1233 -14 q 994 38 1044 -14 q 944 194 944 90 q 994 351 944 299 q 1139 403 1044 403 q 1283 351 1233 403 q 1333 194 1333 299 z "},"‹":{"ha":410,"x_min":28,"x_max":368,"o":"m 167 350 l 167 344 l 368 69 l 278 14 l 28 347 l 278 681 l 368 625 l 167 350 z "},"›":{"ha":410,"x_min":42,"x_max":382,"o":"m 42 625 l 132 681 l 382 347 l 132 14 l 42 69 l 243 344 l 243 350 l 42 625 z "},"€":{"ha":646,"x_min":14,"x_max":625,"o":"m 28 625 l 118 625 q 152 799 128 729 q 213 910 176 868 q 298 969 250 951 q 403 986 346 986 q 522 978 465 986 q 611 958 579 969 l 611 896 l 431 896 q 367 884 397 896 q 311 842 336 872 q 269 758 286 811 q 243 625 251 706 l 528 625 l 514 535 l 236 535 l 236 438 l 493 438 l 479 347 l 243 347 q 269 214 251 267 q 313 131 286 161 q 372 88 339 100 q 444 76 406 76 l 625 76 l 625 14 q 536 -6 593 3 q 417 -14 479 -14 q 303 3 354 -14 q 215 63 253 21 q 153 174 178 104 q 118 347 128 243 l 14 347 l 28 438 l 111 438 l 111 535 l 14 535 l 28 625 z "},"№":{"ha":1181,"x_min":97,"x_max":1139,"o":"m 778 500 l 1111 500 l 1111 403 l 778 403 l 778 500 m 1035 778 q 1010 874 1035 846 q 944 903 986 903 q 878 874 903 903 q 854 778 854 846 q 878 681 854 710 q 944 653 903 653 q 1010 681 986 653 q 1035 778 1035 710 m 1139 778 q 1089 622 1139 674 q 944 569 1039 569 q 800 622 850 569 q 750 778 750 674 q 800 934 750 882 q 944 986 850 986 q 1089 934 1039 986 q 1139 778 1139 882 m 222 0 l 97 0 l 97 972 l 236 972 l 521 285 l 528 285 l 528 972 l 653 972 l 653 0 l 514 0 l 229 688 l 222 688 l 222 0 z "},"™":{"ha":924,"x_min":14,"x_max":882,"o":"m 354 972 l 354 903 l 229 903 l 229 556 l 139 556 l 139 903 l 14 903 l 14 972 l 354 972 m 632 715 l 747 972 l 854 972 l 882 556 l 793 556 l 774 840 l 674 618 l 590 618 l 490 840 l 471 556 l 382 556 l 410 972 l 517 972 l 632 715 z "}}}
